<ttFont>
          <CharString index="0">
            -41 -105 callsubr
            41 hvcurveto
            return
          </CharString>
          <CharString index="1">
            rmoveto
            -107 callsubr
            return
          </CharString>
          <CharString index="2">
            -14 -13 -21 -20 14 -15 return
          </CharString>
          <CharString index="3">
            -95 callsubr
            -41 hvcurveto
            return
          </CharString>
          <CharString index="4">
            2 12 1 13 13 -103 callgsubr
            return
          </CharString>
          <CharString index="5">
            rmoveto
            -37 -148 -175 -122 -143 -9 rrcurveto
            96 62 90 323 callsubr
            198 hlineto
            return
          </CharString>
          <CharString index="6">
            hlineto
            -99 callsubr
            return
          </CharString>
          <CharString index="7">
            506 -102 callsubr
            return
          </CharString>
          <CharString index="8">
            41 14 16 19 20 -14 14 -41 hvcurveto
            return
          </CharString>
          <CharString index="9">
            236 callgsubr
            359 callsubr
            vhcurveto
            -30 callgsubr
            14 hhcurveto
            29 40 36 callsubr
            93 26 121 7 53 -60 callsubr
          </CharString>
          <CharString index="10">
            -23 -121 -29 -126 -21 -75 callsubr
            return
          </CharString>
          <CharString index="11">
            4 hlineto
            -18 -53 -15 -56 -15 -46 rrcurveto
            30 -39 -40 22 -40 hhcurveto
            -44 -29 -29 -43 -72 87 -73 48 30 28 25 49 26 hvcurveto
            33 -28 36 -30 34 -20 rrcurveto
            -22 36 35 -8 37 hhcurveto
            30 34 11 21 14 -19 2 -34 -71 -65 56 54 -63 hvcurveto
            12 29 12 35 12 40 10 32 11 35 11 32 rrcurveto
            83 16 74 43 60 vvcurveto
            46 -36 25 -37 -56 -40 -54 -71 -30 vhcurveto
            -1 -10 -10 0 -11 hhcurveto
            -77 -45 57 callgsubr
            51 13 -37 100 callsubr
            7 6 hvcurveto
            10 7 2 14 17 vvcurveto
            96 23 48 13 31 vhcurveto
            165 -107 callgsubr
          </CharString>
          <CharString index="12">
            16 19 20 -13 14 return
          </CharString>
          <CharString index="13">
            126 4 39 -92 callsubr
          </CharString>
          <CharString index="14">
            75 callgsubr
            105 77 83 83 42 16 -36 -43 hvcurveto
            -48 -19 -30 -25 vvcurveto
            -16 7 127 callgsubr
            89 75 63 70 hvcurveto
            23 20 24 22 22 20 -14 -72 -91 callsubr
            120 -106 callgsubr
            endchar
          </CharString>
          <CharString index="15">
            rrcurveto
            118 -107 callgsubr
          </CharString>
          <CharString index="16">
            rcurveline
            -97 callsubr
            return
          </CharString>
          <CharString index="17">
            rmoveto
            7 67 2 66 49 vvcurveto
            8 233 vlineto
            -9 -52 -10 -50 -10 -53 -48 -7 -79 -15 -68 -10 rrcurveto
            -165 -226 rmoveto
            -26 -38 51 33 28 53 16 73 13 hvcurveto
            -78 -12 -20 -63 -30 hhcurveto
            return
          </CharString>
          <CharString index="18">
            hlineto
            -94 callgsubr
            return
          </CharString>
          <CharString index="19">
            -23 -8 -74 -180 hhcurveto
            -80 -84 14 37 55 153 154 111 callgsubr
            7 213 callgsubr
            12 6 3 17 19 vvcurveto
            17 0 17 1 15 vhcurveto
            4 67 21 39 13 24 rrcurveto
            191 -102 callgsubr
          </CharString>
          <CharString index="20">
            -12 -41 -6 -41 -36 vvcurveto
            -68 11 -61 28 35 -18 78 94 16 vhcurveto
            5 28 7 28 9 25 rrcurveto
            86 15 77 43 62 303 callsubr
            -58 -49 -57 -72 -33 vhcurveto
            -18 hlineto
            -77 -46 57 callgsubr
            52 13 -37 100 callsubr
            7 6 hvcurveto
            10 7 2 14 17 vvcurveto
            96 23 48 13 31 vhcurveto
            139 -102 callgsubr
          </CharString>
          <CharString index="21">
            rmoveto
            -85 callgsubr
            return
          </CharString>
          <CharString index="22">
            386 -90 callsubr
            return
          </CharString>
          <CharString index="23">
            -32 callgsubr
            -67 497 -77 callsubr
            return
          </CharString>
          <CharString index="24">
            rmoveto
            29 5 38 8 44 5 rrcurveto
            131 15 96 -1 34 vvcurveto
            23 -87 6 -114 -154 -53 -13 -24 -11 vhcurveto
            -2 -6 -2 -7 -10 -181 -119 -249 -115 vvcurveto
            -48 54 -42 61 136 188 291 callgsubr
            -11 vhcurveto
            -25 -125 -49 -156 hhcurveto
            -15 -12 10 17 34 27 81 27 92 hvcurveto
            123 149 18 51 9 -13 5 -21 hvcurveto
            -59 -39 -10 -96 hhcurveto
            -8 -8 0 1 -6 hvcurveto
            20 74 17 75 56 vvcurveto
            endchar
          </CharString>
          <CharString index="25">
            -14 -73 -17 -71 -10 -48 rrcurveto
            26 -27 -35 20 -35 hhcurveto
            -51 -55 -48 -43 -45 hvcurveto
            -58 -58 -67 -75 -23 213 callsubr
            24 63 75 53 54 vhcurveto
            38 40 39 33 34 hhcurveto
            31 31 -32 -25 23 hvcurveto
            9 -7 9 -6 9 -3 11 callsubr
            99 -63 callgsubr
          </CharString>
          <CharString index="26">
            -78 callgsubr
            -96 -93 -103 return
          </CharString>
          <CharString index="27">
            rmoveto
            -57 -15 -38 -30 -42 -68 76 48 38 68 15 80 4 vhcurveto
            2 -21 5 -20 -45 vvcurveto
            -185 -17 callsubr
            return
          </CharString>
          <CharString index="28">
            rmoveto
            -81 callgsubr
            return
          </CharString>
          <CharString index="29">
            27 callgsubr
            68 callgsubr
            vhcurveto
            21 90 26 -49 callgsubr
            39 rrcurveto
            return
          </CharString>
          <CharString index="30">
            rmoveto
            -41 -14 -13 -21 -20 14 -15 41 -68 callsubr
            return
          </CharString>
          <CharString index="31">
            hhcurveto
            -67 callsubr
            -8 22 hvcurveto
            6 hlineto
            return
          </CharString>
          <CharString index="32">
            vvcurveto
            -24 25 -18 14 28 33 -92 callgsubr
            return
          </CharString>
          <CharString index="33">
            rmoveto
            -9 -2 -6 -7 -2 -9 rrcurveto
            -129 -33 -97 -89 -58 hhcurveto
            -24 -23 14 24 83 133 209 82 27 10 -43 -50 hvcurveto
            -46 176 rmoveto
            -132 -158 -256 -119 -57 75 -64 60 54 63 52 61 48 hvcurveto
            -65 3 16 -48 24 hhcurveto
            23 -1 57 62 11 hvcurveto
            14 77 8 42 30 vvcurveto
            8 -5 9 -7 9 vhcurveto
            13 20 12 29 22 vvcurveto
            350 callgsubr
            vhcurveto
            return
          </CharString>
          <CharString index="34">
            rmoveto
            -76 callgsubr
            return
          </CharString>
          <CharString index="35">
            rmoveto
            -27 -9 27 36 89 69 136 63 40 41 -79 -103 14 hvcurveto
            -60 -52 -77 -46 -62 hhcurveto
            return
          </CharString>
          <CharString index="36">
            -49 callgsubr
            39 rrcurveto
            return
          </CharString>
          <CharString index="37">
            rmoveto
            -14 -3 -8 -20 -5 hvcurveto
            -147 -40 -130 -241 -80 hhcurveto
            -18 -16 15 22 hvcurveto
            128 108 168 29 vvcurveto
            28 -21 26 -24 -50 -98 -253 -127 -53 58 -63 55 56 71 70 86 53 vhcurveto
            -14 -46 -9 -43 -25 vvcurveto
            -28 15 -14 16 13 13 14 28 8 vhcurveto
            63 214 49 145 19 vvcurveto
            32 -33 44 -23 vhcurveto
            return
          </CharString>
          <CharString index="38">
            -36 -18 8 -27 hhcurveto
            -15 -8 -9 -15 -16 13 -14 21 -9 hvcurveto
            5 -6 4 -7 -7 -26 callsubr
            8 -2 9 -4 9 vhcurveto
            return
          </CharString>
          <CharString index="39">
            hvcurveto
            246 callsubr
            -52 -3 -77 -8 -73 vhcurveto
            -114 -12 -91 -30 -68 vvcurveto
            -63 69 -97 69 73 39 99 115 21 vhcurveto
            1 23 23 0 23 return
          </CharString>
          <CharString index="40">
            -137 -154 -27 -89 -79 115 -129 80 81 33 87 82 33 -3 31 return
          </CharString>
          <CharString index="41">
            2 hlineto
            -7 -31 -4 -31 -27 vvcurveto
            -11 0 -11 1 -11 vhcurveto
            11 -23 -28 7 -26 hhcurveto
            -70 -113 -83 -32 -22 hvcurveto
            -27 -25 -14 -26 5 -11 11 -7 16 11 46 23 38 16 39 33 49 17 33 14 38 -1 33 -17 29 -3 6 -11 16 -3 rrcurveto
            331 callsubr
            hhcurveto
            1 hlineto
            1 hlineto
            331 callsubr
            1 hvcurveto
            11 5 2 20 2 29 rrcurveto
            21 0 17 2 37 vhcurveto
            -8 callsubr
            14 16 19 20 -14 14 -41 hvcurveto
            endchar
          </CharString>
          <CharString index="42">
            rmoveto
            -16 12 -13 14 17 16 16 32 45 vhcurveto
            189 callsubr
            return
          </CharString>
          <CharString index="43">
            rmoveto
            -16 -4 -8 -22 hvcurveto
            -126 -84 -196 -161 vvcurveto
            -94 69 -101 87 175 153 272 313 81 -60 42 -23 -14 -4 -6 -15 vhcurveto
            -31 9 -31 -74 vvcurveto
            -252 -142 -214 -86 -46 -30 51 75 vhcurveto
            109 81 218 87 vvcurveto
            43 -46 40 -19 vhcurveto
            return
          </CharString>
          <CharString index="44">
            -10 -54 -10 -53 -10 -55 rrcurveto
            -31 -40 -56 -32 -62 -48 -20 19 -28 hhcurveto
            -15 -8 -7 -15 -20 17 -17 25 -11 hvcurveto
            3 -4 2 -5 -5 vvcurveto
            -61 -89 -52 -95 -30 -15 13 36 return
          </CharString>
          <CharString index="45">
            21 37 -75 callgsubr
            return
          </CharString>
          <CharString index="46">
            rmoveto
            189 184 266 187 127 -80 125 -116 -142 -200 -256 -252 -82 72 -115 93 hvcurveto
            281 441 rmoveto
            -147 -173 -215 -102 -40 -40 47 77 196 177 221 80 47 51 -61 -118 vhcurveto
            return
          </CharString>
          <CharString index="47">
            rrcurveto
            116 -107 callgsubr
          </CharString>
          <CharString index="48">
            -6 -8 -3 -9 -8 vvcurveto
            -21 37 -26 18 18 return
          </CharString>
          <CharString index="49">
            -98 callgsubr
            156 193 5 callgsubr
          </CharString>
          <CharString index="50">
            rmoveto
            -61 -87 -134 -188 -111 hvcurveto
            31 94 24 122 41 vvcurveto
            30 -36 39 -30 -15 -4 -29 -44 -2 vhcurveto
            -1 -53 -9 -86 -20 -76 rrcurveto
            -18 -70 -26 -69 -11 vvcurveto
            -23 33 -39 20 23 49 88 73 47 vhcurveto
            125 80 63 112 42 hhcurveto
            13 16 -21 -30 -33 -13 -53 -16 -54 hvcurveto
            -24 -80 -27 -64 -33 vvcurveto
            -21 7 -9 15 36 39 87 105 33 vhcurveto
            21 66 12 63 47 vvcurveto
            62 -58 66 -46 vhcurveto
            endchar
          </CharString>
          <CharString index="51">
            42 20 58 29 48 vhcurveto
            36 -58 49 -65 43 -45 rrcurveto
            -23 -40 -45 -18 -49 hhcurveto
            -31 -12 23 38 hvcurveto
            return
          </CharString>
          <CharString index="52">
            -84 -77 callgsubr
            return
          </CharString>
          <CharString index="53">
            hhcurveto
            71 70 47 71 57 hvcurveto
            -22 -114 -27 -108 -21 234 callsubr
            34 174 140 33 vhcurveto
            21 90 26 -94 callsubr
          </CharString>
          <CharString index="54">
            hhcurveto
            -77 -42 44 47 -33 hvcurveto
            129 24 92 96 107 vvcurveto
            31 -7 29 -13 24 vhcurveto
            return
          </CharString>
          <CharString index="55">
            576 rmoveto
            -8 -19 -5 -22 -22 vvcurveto
            -9 1 -8 1 -7 vhcurveto
            -85 -8 -48 -86 -81 vvcurveto
            -47 19 -43 35 -22 vhcurveto
            -66 -99 -136 -44 -86 hhcurveto
            -8 -4 3 7 60 99 89 59 43 hvcurveto
            15 11 13 10 14 vvcurveto
            6 -3 5 -5 3 vhcurveto
            4 -5 -7 2 -9 -26 249 callgsubr
            129 67 hvcurveto
            30 2 -30 17 hhcurveto
            8 11 17 14 11 -4 12 -6 10 hvcurveto
            119 -339 rmoveto
            -18 10 -15 21 41 vvcurveto
            54 29 58 45 26 9 -24 -28 -47 -30 -45 -46 -40 vhcurveto
            return
          </CharString>
          <CharString index="56">
            rmoveto
            11 186 callgsubr
            -18 -21 -15 -34 -11 15 31 16 20 15 3 rrcurveto
            -264 -398 rmoveto
            -21 -37 38 29 17 9 8 18 22 27 -16 -23 30 hvcurveto
            -33 -14 -16 -20 -18 hhcurveto
            return
          </CharString>
          <CharString index="57">
            rmoveto
            13 28 34 13 42 -20 39 -24 7 -42 -16 -38 -26 -2 -25 4 -18 9 -43 11 -19 28 12 33 rrcurveto
            -209 -249 -32 callsubr
            63 33 rmoveto
            54 -9 -63 68 -95 9 callsubr
            341 -106 callgsubr
            -691 hlineto
            -85 callgsubr
            121 149 62 101 74 hvcurveto
            25 -41 37 -49 30 -38 rrcurveto
            -10 callgsubr
            -39 59 -69 24 -72 -32 rrcurveto
            -66 -32 -2 -61 41 -44 25 -36 48 -27 56 -1 rrcurveto
            -55 -32 -64 -27 -91 hhcurveto
            -16 -13 3 4 -11 hvcurveto
            472 306 5 callgsubr
          </CharString>
          <CharString index="58">
            -1 -3 -1 -2 -3 vvcurveto
            -19 return
          </CharString>
          <CharString index="59">
            21 90 27 -52 callgsubr
          </CharString>
          <CharString index="60">
            vhcurveto
            342 callgsubr
            return
          </CharString>
          <CharString index="61">
            rmoveto
            -60 callgsubr
            return
          </CharString>
          <CharString index="62">
            66 callgsubr
            -135 198 callsubr
            290 107 callsubr
            hvcurveto
            -129 242 -44 -92 vvcurveto
            -29 -31 -21 363 callsubr
            -38 -51 80 -87 hhcurveto
            -63 -50 -38 -60 -90 99 -53 115 13 12 0 1 12 hvcurveto
            -93 38 40 -101 35 hhcurveto
            14 7 7 15 23 -39 82 -31 76 hvcurveto
            76 16 52 38 63 vvcurveto
            return
          </CharString>
          <CharString index="63">
            -27 12 22 -41 callgsubr
            return
          </CharString>
          <CharString index="64">
            rmoveto
            -23 -30 3 6 -27 hvcurveto
            72 35 58 62 52 hhcurveto
            33 40 -49 -32 -39 -56 -23 -82 hvcurveto
            59 222 rmoveto
            -120 -134 -189 -142 -95 71 -70 105 289 callgsubr
            -7 8 -19 hvcurveto
            356 callgsubr
            27 9 28 hvcurveto
            -10 37 42 -6 47 hhcurveto
            162 callsubr
            hvcurveto
            return
          </CharString>
          <CharString index="65">
            195 callgsubr
            -9 -1 -8 hvcurveto
            -4 -16 -18 -3 -21 hhcurveto
            return
          </CharString>
          <CharString index="66">
            140 callsubr
            hvcurveto
            -13 17 -13 18 -12 18 return
          </CharString>
          <CharString index="67">
            rmoveto
            25 21 -25 -15 -41 -79 -20 -85 -3 hvcurveto
            53 35 45 51 38 hhcurveto
            -337 427 -106 callsubr
            368 hlineto
            -12 -29 -7 -41 -1 -39 rrcurveto
            11 -17 -18 7 -16 hhcurveto
            -105 -235 -193 -114 -39 41 -52 49 -19 hvcurveto
            -4 callsubr
            return
          </CharString>
          <CharString index="68">
            44 -79 callsubr
            return
          </CharString>
          <CharString index="69">
            -51 callgsubr
            -44 35 callgsubr
            return
          </CharString>
          <CharString index="70">
            rmoveto
            -27 40 24 -26 17 hhcurveto
            14 13 14 15 19 -13 12 -56 59 hvcurveto
            39 -39 -18 28 -19 hhcurveto
            -25 -23 -31 -25 -22 32 -18 53 -37 hvcurveto
            return
          </CharString>
          <CharString index="71">
            rmoveto
            -15 -83 -12 -73 -12 -84 rrcurveto
            -45 -73 -67 -38 -43 hhcurveto
            -12 -3 29 31 75 21 115 31 73 hvcurveto
            return
          </CharString>
          <CharString index="72">
            hhcurveto
            16 -41 callsubr
            return
          </CharString>
          <CharString index="73">
            vhcurveto
            13 12 19 44 callgsubr
            return
          </CharString>
          <CharString index="74">
            -6 -57 -16 -38 -27 vvcurveto
            -18 12 -17 15 38 40 172 133 29 vhcurveto
            21 94 24 116 5 54 94 callsubr
          </CharString>
          <CharString index="75">
            rmoveto
            -12 -16 -26 -9 355 callsubr
            45 -50 -33 -4 -1 -4 -3 -3 hvcurveto
            return
          </CharString>
          <CharString index="76">
            -19 -42 -29 -27 -47 hvcurveto
            -49 -28 -20 -21 -30 vvcurveto
            -19 15 -13 16 34 40 54 36 70 vhcurveto
            -45 35 44 -58 35 hhcurveto
            14 11 9 11 26 -37 36 -34 39 hvcurveto
            return
          </CharString>
          <CharString index="77">
            -9 -59 -10 -56 -7 -40 rrcurveto
            24 -25 -33 20 -33 hhcurveto
            -52 -52 -43 -39 -42 hvcurveto
            -61 -58 -71 -78 -26 213 callsubr
            24 66 74 53 54 vhcurveto
            39 40 39 29 35 hhcurveto
            32 31 -41 -24 22 hvcurveto
            -7 10 9 -7 11 hhcurveto
            1 hlineto
            1 hlineto
            33 21 167 141 28 hvcurveto
            44 79 66 37 37 hhcurveto
            17 5 -21 -27 -102 -33 -87 -58 -9 hvcurveto
            -13 -5 -15 3 -14 vvcurveto
            -19 32 -33 24 85 52 159 119 68 -27 42 -62 -45 -63 -31 -35 -64 vhcurveto
            14 71 12 73 3 28 rrcurveto
            315 -107 callgsubr
          </CharString>
          <CharString index="78">
            -71 -64 -36 -46 hhcurveto
            -13 -3 29 31 75 21 115 31 73 hvcurveto
            -203 66 callsubr
            120 42 callsubr
            return
          </CharString>
          <CharString index="79">
            vvcurveto
            89 -45 72 -97 -88 -61 -61 -46 -20 13 -11 17 vhcurveto
            36 6 72 89 hhcurveto
            42 18 -35 -45 -92 -69 -124 -115 -34 -15 11 26 hvcurveto
            30 17 10 16 vvcurveto
            11 -6 6 -13 -33 -31 -38 -38 -56 39 -45 80 return
          </CharString>
          <CharString index="80">
            -90 callsubr
            81 413 rmoveto
            23 callsubr
            -63 -11 -56 -14 -38 -21 -45 -19 -56 -26 -58 -24 4 22 5 21 5 20 150 callsubr
            -148 -351 rmoveto
            -30 -78 -75 -22 -51 hhcurveto
            -20 138 callsubr
            55 48 18 -101 -44 18 hvcurveto
            -267 415 61 callsubr
            46 70 20 28 78 hvcurveto
            -13 -56 -9 -42 -13 240 callsubr
            28 24 82 93 22 vhcurveto
            44 17 44 19 41 18 rrcurveto
            -62 12 62 -78 62 hhcurveto
            120 callsubr
            hvcurveto
            70 10 76 11 64 16 -7 -37 -91 callsubr
            118 -106 callgsubr
            endchar
          </CharString>
          <CharString index="81">
            vvcurveto
            -55 -98 -61 -92 -30 -15 13 36 75 38 90 86 54 callsubr
            15 -41 24 -25 -80 -86 -127 -119 173 callsubr
            return
          </CharString>
          <CharString index="82">
            -21 168 callgsubr
            14 16 19 20 -14 14 -41 hvcurveto
            endchar
          </CharString>
          <CharString index="83">
            65 -38 147 -6 -49 vvcurveto
            -36 -38 -31 -72 -79 -35 31 39 -15 vhcurveto
            21 -8 -13 13 -19 hhcurveto
            return
          </CharString>
          <CharString index="84">
            vvcurveto
            35 -8 31 -16 25 vhcurveto
            return
          </CharString>
          <CharString index="85">
            -73 callsubr
            87 hlineto
            -6 -9 -3 -9 -9 vvcurveto
            -21 36 -25 18 16 9 17 14 11 vhcurveto
            15 11 21 10 25 hhcurveto
            42 20 -26 -48 -105 -98 -93 -110 hvcurveto
            -38 -20 42 -28 hhcurveto
            -11 -9 -17 -19 hvcurveto
            -1 vlineto
            0 vlineto
            -30 63 -96 48 -63 vhcurveto
            -78 60 68 -86 29 hhcurveto
            17 8 8 16 21 -72 81 -55 77 hvcurveto
            -15 20 -16 26 -17 26 rrcurveto
            152 6 123 126 141 362 callgsubr
            24 vhcurveto
            102 -102 callgsubr
          </CharString>
          <CharString index="86">
            -40 -37 -43 -35 -36 -31 rrcurveto
            1 10 1 10 9 vvcurveto
            71 -38 75 -85 return
          </CharString>
          <CharString index="87">
            60 callgsubr
            -1 vlineto
            311 callgsubr
            return
          </CharString>
          <CharString index="88">
            -20 -16 callgsubr
            return
          </CharString>
          <CharString index="89">
            357 callsubr
            -67 -28 -84 -20 -80 -10 rrcurveto
            43 46 41 callgsubr
            return
          </CharString>
          <CharString index="90">
            414 -106 callsubr
            return
          </CharString>
          <CharString index="91">
            -106 callsubr
            504 hlineto
            -8 -44 -8 -43 -8 -44 rrcurveto
            -34 -41 -57 -36 -66 -46 -18 19 -31 hhcurveto
            -15 -7 -9 -15 -17 13 -14 19 -11 hvcurveto
            5 -6 3 -6 -7 vvcurveto
            -61 -87 -48 -90 -30 -14 13 36 65 36 90 83 29 vhcurveto
            15 5 19 3 330 callgsubr
            -82 -80 -122 -112 -73 38 -55 76 132 123 74 83 5 -1 6 -2 6 vhcurveto
            -1 6 5 0 6 hhcurveto
            46 48 13 23 39 hvcurveto
            -4 -23 return
          </CharString>
          <CharString index="92">
            rmoveto
            -102 -63 -15 -25 -19 31 -38 21 hvcurveto
            38 31 11 48 hhcurveto
            67 35 -4 -15 hvcurveto
            -50 -322 -172 -76 vvcurveto
            -33 53 -60 62 107 186 30 46 18 -16 5 -23 vhcurveto
            -46 -93 -16 -100 hhcurveto
            -19 -7 7 10 hvcurveto
            39 296 144 111 vvcurveto
            23 -29 46 -30 13 vhcurveto
            9 -22 -45 11 -58 hhcurveto
            return
          </CharString>
          <CharString index="93">
            vvcurveto
            -31 42 -43 39 118 120 45 75 89 vhcurveto
            -22 -109 -26 -99 -20 35 callsubr
          </CharString>
          <CharString index="94">
            rmoveto
            -66 -58 -70 -62 -41 hvcurveto
            2 17 0 15 13 vvcurveto
            56 -31 32 -23 -20 -2 -21 -26 vhcurveto
            -21 3 -27 -27 vvcurveto
            -56 -6 -50 -9 -45 vhcurveto
            -16 -80 -27 -54 -29 vvcurveto
            -27 13 -35 25 38 10 86 139 52 vhcurveto
            43 110 44 62 72 31 rrcurveto
            28 15 18 12 18 vvcurveto
            16 -21 8 -28 vhcurveto
            return
          </CharString>
          <CharString index="95">
            rmoveto
            -19 -50 -13 -21 -20 vvcurveto
            -15 8 -15 15 21 17 27 51 34 vhcurveto
            26 37 20 22 23 vvcurveto
            27 -21 27 -27 -24 -13 -30 -63 -24 vhcurveto
            146 -11 rmoveto
            -27 -47 -8 -17 -17 vvcurveto
            -14 7 -14 14 24 21 31 36 30 vhcurveto
            35 41 22 15 29 vvcurveto
            28 -20 25 -26 -22 -13 -31 -65 -37 vhcurveto
            return
          </CharString>
          <CharString index="96">
            517 684 135 -72 callsubr
            -556 196 callsubr
            858 hlineto
            -50 callgsubr
            -74 -59 -56 -71 -38 hvcurveto
            -19 -43 -62 -24 -88 28 callgsubr
            56 11 16 48 hvcurveto
            -8 -31 -4 -30 -29 vvcurveto
            -98 callsubr
          </CharString>
          <CharString index="97">
            hlineto
            -13 -70 -13 -69 -14 -73 rrcurveto
            47 -76 -179 66 -68 hhcurveto
            -19 -11 -9 -15 -27 80 -13 114 -40 hvcurveto
            53 -19 49 -24 33 -15 -45 -23 -66 -43 -57 -35 rrcurveto
            -92 -56 -99 -55 212 callgsubr
            82 51 59 97 vhcurveto
            46 28 47 29 38 25 rrcurveto
            -18 -93 -19 -82 133 callgsubr
            129 -102 callgsubr
          </CharString>
          <CharString index="98">
            174 hlineto
            -15 -85 -17 -84 -16 -90 rrcurveto
            -23 -121 -32 -119 -22 vvcurveto
            -21 32 277 callsubr
            13 -95 callsubr
            -41 hvcurveto
            endchar
          </CharString>
          <CharString index="99">
            2 27 5 30 8 29 rrcurveto
            85 17 76 45 57 360 callgsubr
            -61 -47 -58 -70 -28 vhcurveto
            -1 -8 -7 0 -8 hhcurveto
            -77 -45 57 callgsubr
            51 13 -37 100 callsubr
            7 6 hvcurveto
            10 7 2 14 17 vvcurveto
            96 23 48 13 31 vhcurveto
            144 hlineto
            41 return
          </CharString>
          <CharString index="100">
            -265 93 645 rmoveto
            -48 -29 -7 -25 -25 40 -12 72 hvcurveto
            return
          </CharString>
          <CharString index="101">
            rmoveto
            -49 -37 39 47 -26 hvcurveto
            81 85 77 82 40 hhcurveto
            17 11 -10 -21 -87 -47 -131 -71 hvcurveto
            -359 1 rmoveto
            -23 -10 12 20 56 70 138 59 38 32 -56 -40 26 hvcurveto
            -69 -72 -70 -61 -50 hhcurveto
            448 321 rmoveto
            -56 -78 -74 -77 -80 hvcurveto
            56 -23 -51 73 -68 hhcurveto
            -109 -90 -190 -87 -45 64 -46 46 60 72 53 62 70 hvcurveto
            -64 34 56 -48 66 hhcurveto
            129 58 173 104 61 -40 49 -60 hvcurveto
            return
          </CharString>
          <CharString index="102">
            645 rmoveto
            -3 20 -9 35 -13 38 rrcurveto
            324 callgsubr
            57 -10 48 -37 29 callsubr
            51 -75 21 -86 23 -48 rrcurveto
            return
          </CharString>
          <CharString index="103">
            -17 41 51 -7 58 hhcurveto
            133 131 50 71 49 -66 76 -55 -64 -86 -81 -91 -51 hvcurveto
            -57 8 -40 22 35 vvcurveto
            69 198 156 53 vhcurveto
            51 17 -50 26 hhcurveto
            return
          </CharString>
          <CharString index="104">
            174 callsubr
            -3 -9 -4 -19 -24 -16 -37 return
          </CharString>
          <CharString index="105">
            70 6 69 5 47 9 -14 -73 -17 -71 -10 -49 rrcurveto
            26 -26 -36 20 -35 hhcurveto
            -51 -55 -48 -43 -45 hvcurveto
            -58 -58 -67 -75 -23 213 callsubr
            24 63 75 53 54 vhcurveto
            38 40 39 33 34 hhcurveto
            37 35 -39 -26 26 hvcurveto
            5 -3 4 -3 5 -2 rrcurveto
            -4 6 5 -3 4 hhcurveto
            301 callsubr
            hvcurveto
            21 90 27 -71 callsubr
            104 -63 callgsubr
          </CharString>
          <CharString index="106">
            530 rmoveto
            -140 -38 -116 -127 -80 hhcurveto
            -21 -15 41 63 69 12 74 25 66 hvcurveto
            241 hlineto
            return
          </CharString>
          <CharString index="107">
            -85 callsubr
            81 413 rmoveto
            23 callsubr
            return
          </CharString>
          <CharString index="108">
            58 callsubr
            -68 -14 -80 -74 vvcurveto
            -97 30 -101 82 return
          </CharString>
          <CharString index="109">
            22 callgsubr
            -121 197 callsubr
            319 260 callsubr
            return
          </CharString>
          <CharString index="110">
            -56 42 53 -73 28 258 callsubr
            18 -50 315 callsubr
            -19 26 -26 40 -25 35 55 -4 60 17 36 38 -35 callgsubr
            return
          </CharString>
          <CharString index="111">
            -17 -30 -12 -41 -1 -41 rrcurveto
            12 -19 -19 8 -16 hhcurveto
            return
          </CharString>
          <CharString index="112">
            rmoveto
            -17 -4 -9 -21 hvcurveto
            -129 -137 -365 -92 vvcurveto
            -48 55 -44 64 138 173 59 57 12 -2 5 -14 vhcurveto
            -26 -118 -49 -154 hhcurveto
            -15 -11 8 16 21 11 44 32 103 hvcurveto
            43 142 43 148 64 vvcurveto
            40 -41 38 -20 vhcurveto
            endchar
          </CharString>
          <CharString index="113">
            576 -36 callsubr
            return
          </CharString>
          <CharString index="114">
            -12 callgsubr
            33 0 24 -2 16 hvcurveto
            219 hlineto
            -15 -85 -17 -84 -17 -90 -15 -76 -18 -77 -11 -51 rrcurveto
            24 -24 -34 20 -36 hhcurveto
            -54 -53 -47 -43 -42 hvcurveto
            -56 -59 -63 -76 -24 vvcurveto
            -14 9 -8 15 25 59 72 54 50 vhcurveto
            38 36 41 40 37 hhcurveto
            34 31 -37 -27 24 hvcurveto
            6 -5 6 -5 8 -2 rrcurveto
            -4 5 5 -3 4 hhcurveto
            301 callsubr
            51 callgsubr
            98 -107 callgsubr
          </CharString>
          <CharString index="115">
            74 callgsubr
            -16 -82 -14 -91 -17 -86 -5 -26 rcurveline
            -6 8 -8 5 -11 2 -43 44 -69 30 -53 -32 -62 -18 -44 -129 17 -49 33 -24 170 53 58 30 rrcurveto
            -19 -84 -17 -71 -17 240 callsubr
            return
          </CharString>
          <CharString index="116">
            hhcurveto
            95 callgsubr
            hvcurveto
            -33 -61 -67 -16 -70 -53 callsubr
            return
          </CharString>
          <CharString index="117">
            216 382 rmoveto
            -26 -14 35 33 80 63 88 36 20 21 -36 -56 -75 -65 -69 -35 hvcurveto
            473 378 rmoveto
            -30 -151 -114 10 -107 hvcurveto
            -49 3 -20 24 -18 6 rrcurveto
            4 -10 -11 3 -12 hhcurveto
            -90 -95 -128 -125 -68 47 -72 59 92 100 116 115 19 -3 18 -4 18 hvcurveto
            -3 12 12 -3 11 hhcurveto
            53 -4 72 18 61 36 -230 -329 -174 -238 -5 -33 -2 -20 19 -24 15 -3 21 -2 90 134 134 191 123 174 127 151 6 51 rrcurveto
            28 3 -29 47 -17 hhcurveto
            -56 -671 rmoveto
            -27 -14 34 34 80 63 88 36 21 20 -37 -55 -75 -64 -69 -35 hvcurveto
            64 314 rmoveto
            -89 -95 -128 -125 -69 47 -71 58 93 99 115 115 79 -46 84 -67 hvcurveto
            return
          </CharString>
          <CharString index="118">
            rrcurveto
            -4 6 148 callgsubr
            return
          </CharString>
          <CharString index="119">
            -106 callsubr
            53 hlineto
            -12 -69 -13 -67 -13 -71 -40 -2 -56 -8 -70 -9 rrcurveto
            13 56 7 58 53 vvcurveto
            81 -26 92 -90 return
          </CharString>
          <CharString index="120">
            hlineto
            -1 -3 -1 -3 -3 vvcurveto
            -20 33 -35 20 vhcurveto
            21 17 43 55 hhcurveto
            41 18 -23 -43 -85 -79 -55 -101 -19 hvcurveto
            28 -25 -26 21 -36 hhcurveto
            -31 -18 -18 -26 -38 43 -26 48 -5 hvcurveto
            return
          </CharString>
          <CharString index="121">
            18 vhcurveto
            -39 -78 -70 -29 -57 hhcurveto
            -21 -8 8 18 hvcurveto
            -35 446 -106 callsubr
            335 hlineto
            -15 -78 -15 -88 -16 -83 rrcurveto
            60 -17 -35 338 callgsubr
            55 68 21 32 73 hvcurveto
            -13 -58 -10 -45 200 callgsubr
            30 25 91 99 23 vhcurveto
            41 22 40 24 38 24 rrcurveto
            -13 -30 -7 -27 -21 vvcurveto
            -45 59 -42 42 62 76 44 53 75 vhcurveto
            -18 -79 -15 -65 -16 289 callsubr
            37 30 137 122 27 vhcurveto
            60 80 71 54 42 hhcurveto
            22 10 -13 -21 hvcurveto
            -127 -124 -68 -35 vvcurveto
            -14 18 -9 13 38 122 137 103 58 -45 54 -61 -46 -57 -34 -44 -60 vhcurveto
            18 81 19 94 3 34 rrcurveto
            return
          </CharString>
          <CharString index="122">
            -73 callsubr
            308 136 callgsubr
            -78 -144 -68 -56 -21 21 335 callgsubr
            -24 callsubr
            -20 -9 -16 -21 -53 45 -48 69 -23 hvcurveto
            -49 -55 -73 -105 82 callsubr
            100 4 69 57 75 137 -248 -13 32 vvcurveto
            29 105 33 40 vhcurveto
            31 22 -16 18 hhcurveto
            0 1 vlineto
            21 11 17 31 62 7 33 5 24 hvcurveto
            146 -63 callgsubr
          </CharString>
          <CharString index="123">
            rmoveto
            -63 -81 -81 -59 -65 hhcurveto
            -22 -11 8 19 46 100 140 57 42 36 -53 -35 25 hvcurveto
            return
          </CharString>
          <CharString index="124">
            rmoveto
            -33 -79 -76 -26 -50 hhcurveto
            -21 138 callsubr
            56 47 20 -96 -46 17 hvcurveto
            -278 412 339 callsubr
            -15 -79 -15 -88 -16 -84 rrcurveto
            61 -17 -34 61 22 callsubr
            13 16 2 4 19 hvcurveto
            -6 -5 rlineto
            -60 -51 -76 -84 -26 vvcurveto
            -14 8 -10 17 28 67 82 47 48 vhcurveto
            39 38 45 38 36 23 rrcurveto
            -12 -53 -9 -42 -12 186 callsubr
            281 -102 callgsubr
          </CharString>
          <CharString index="125">
            hlineto
            -8 0 -8 -9 vvcurveto
            -45 -2 -54 -5 -52 vhcurveto
            4 -27 -24 2 -31 hhcurveto
            -83 -65 -29 -70 -79 69 218 callsubr
            return
          </CharString>
          <CharString index="126">
            rmoveto
            33 40 -49 -32 -39 -56 -23 -82 -23 -30 3 6 -27 hvcurveto
            72 35 58 62 52 hhcurveto
            -42 -207 rmoveto
            162 callsubr
            -120 -134 -189 -142 -95 71 -70 105 289 callgsubr
            -7 8 -19 hvcurveto
            356 callgsubr
            27 9 28 hvcurveto
            -10 37 42 -6 47 hhcurveto
            endchar
          </CharString>
          <CharString index="127">
            -15 -70 -13 -57 -15 156 callsubr
            33 27 111 110 25 vhcurveto
            197 121 182 186 68 237 callsubr
            -7 -5 -6 -8 -2 hvcurveto
            -3 -5 -1 -5 -4 vvcurveto
            -27 198 -258 38 274 callgsubr
            -45 61 vhcurveto
            329 callgsubr
            35 3 32 10 30 15 108 2 114 11 91 30 rrcurveto
            -22 -115 -26 -114 -19 callsubr
            117 -107 callgsubr
          </CharString>
          <CharString index="128">
            -39 callgsubr
            27 -68 81 -2 return
          </CharString>
          <CharString index="129">
            -60 -20 callgsubr
            return
          </CharString>
          <CharString index="130">
            135 callgsubr
            -3 -67 -6 -65 vhcurveto
            return
          </CharString>
          <CharString index="131">
            76 callsubr
            115 callsubr
            hvcurveto
            175 callsubr
          </CharString>
          <CharString index="132">
            rmoveto
            273 callgsubr
            -21 -24 -30 -22 -27 46 -47 30 hvcurveto
            -150 hmoveto
            247 callgsubr
            -21 -23 -30 -22 -27 45 -47 31 hvcurveto
            return
          </CharString>
          <CharString index="133">
            42 214 499 rmoveto
            99 -47 1 118 -36 hhcurveto
            -30 -10 -29 -44 -131 87 -185 123 -32 hvcurveto
            -56 -108 -56 -103 -39 vvcurveto
            -24 8 -12 14 33 46 90 133 71 vhcurveto
            101 195 144 191 45 vvcurveto
            30 -18 23 -29 vhcurveto
            -50 -140 -343 -43 hhcurveto
            -27 -48 44 82 -38 hvcurveto
            return
          </CharString>
          <CharString index="134">
            -55 36 38 -33 38 hhcurveto
            52 49 65 45 21 -9 12 -16 -37 -7 -63 -7 -35 hvcurveto
            7 -35 -8 75 -70 hhcurveto
            -54 -64 -70 -48 return
          </CharString>
          <CharString index="135">
            59 184 33 callsubr
            return
          </CharString>
          <CharString index="136">
            -18 -13 -10 -19 hvcurveto
            -13 callgsubr
            return
          </CharString>
          <CharString index="137">
            vvcurveto
            13 13 5 22 vhcurveto
            87 51 -50 25 hhcurveto
            5 4 1 3 3 hvcurveto
            22 14 7 73 72 vvcurveto
            14 -3 13 -5 11 vhcurveto
            return
          </CharString>
          <CharString index="138">
            -72 41 51 -71 21 hhcurveto
            16 10 10 15 19 -43 53 -38 73 hvcurveto
            -10 19 -9 19 -9 18 rrcurveto
            -1 5 5 0 5 hhcurveto
            49 47 13 23 41 hvcurveto
            123 2 171 19 113 35 -1 -3 rcurveline
            -9 -45 -10 -46 -9 -40 rrcurveto
            9 -22 -27 6 -29 hhcurveto
            -132 -163 -65 -88 -57 67 -50 67 71 30 52 57 26 -5 30 -11 25 hvcurveto
            6 27 28 3 27 hhcurveto
            22 20 -3 -6 18 hvcurveto
            -9 -40 -6 -28 -10 vvcurveto
            -13 31 -33 13 21 37 245 callsubr
          </CharString>
          <CharString index="139">
            rmoveto
            49 50 9 16 48 hvcurveto
            -85 -212 -242 -105 -39 vvcurveto
            -10 10 -7 12 97 289 255 177 18 -6 13 -12 vhcurveto
            -30 -75 -46 -108 -45 -12 9 -34 hhcurveto
            -15 -8 -9 -15 -17 12 -12 17 -9 hvcurveto
            7 -7 5 -8 -8 vvcurveto
            -55 -97 -54 -87 -29 -15 13 36 65 36 90 83 29 vhcurveto
            15 5 19 3 330 callgsubr
            -82 -79 -122 -112 -73 37 -55 77 126 134 81 76 9 -3 9 -4 10 vhcurveto
            -301 234 callgsubr
            586 -102 callgsubr
          </CharString>
          <CharString index="140">
            719 -64 callsubr
            return
          </CharString>
          <CharString index="141">
            rmoveto
            13 6 -6 -13 -55 -91 -62 -66 -5 -6 1 2 -5 hvcurveto
            68 45 70 65 39 hhcurveto
            return
          </CharString>
          <CharString index="142">
            vvcurveto
            -21 32 -27 12 22 37 245 callgsubr
          </CharString>
          <CharString index="143">
            166 136 32 hvcurveto
            22 return
          </CharString>
          <CharString index="144">
            -278 -3 366 callgsubr
            25 4 -83 -77 -23 -1 -24 -1 -24 hvcurveto
            -323 hmoveto
            233 callgsubr
            -26 -230 -76 -247 -60 vvcurveto
            -15 12 -17 15 43 40 190 157 30 vhcurveto
            17 82 13 317 callgsubr
            -123 hlineto
            2 26 1 27 1 26 rrcurveto
            62 12 55 43 70 78 30 -52 21 hhcurveto
            8 5 6 11 45 -65 61 -87 -55 -46 -20 -31 -34 hvcurveto
            61 -12 -27 46 -51 hhcurveto
            -100 -107 -211 -100 -26 hvcurveto
            return
          </CharString>
          <CharString index="145">
            341 callsubr
            vhcurveto
            56 callsubr
            return
          </CharString>
          <CharString index="146">
            13 -6 6 -13 vhcurveto
            -33 -25 -42 -118 hhcurveto
            -48 -26 27 40 94 125 167 73 hvcurveto
            36 17 -36 26 hhcurveto
            9 8 8 11 31 -42 71 -61 -131 -149 -210 -138 return
          </CharString>
          <CharString index="147">
            rmoveto
            275 callsubr
            -82 -94 -4 -24 -18 27 -31 27 25 36 7 9 75 vhcurveto
            120 12 36 5 20 vvcurveto
            return
          </CharString>
          <CharString index="148">
            51 -20 42 -41 16 vhcurveto
            3 13 3 14 4 14 7 24 8 17 6 12 112 callsubr
          </CharString>
          <CharString index="149">
            hlineto
            -24 -69 -23 -110 -81 vvcurveto
            -75 16 -65 52 return
          </CharString>
          <CharString index="150">
            rmoveto
            28 9 -23 -29 -45 -29 -41 -45 -36 hvcurveto
            -17 8 -18 17 43 vvcurveto
            55 27 51 45 vhcurveto
            -479 246 -106 callsubr
            194 hlineto
            -94 -41 -92 -102 -72 vvcurveto
            -47 45 -26 54 -4 vhcurveto
            -62 -53 -58 -79 -60 330 callsubr
            return
          </CharString>
          <CharString index="151">
            14 -24 168 callsubr
            72 29 52 56 28 -5 31 -12 25 hvcurveto
            9 32 33 5 28 hhcurveto
            37 28 -11 -27 35 hvcurveto
            -6 7 7 -4 216 callsubr
            return
          </CharString>
          <CharString index="152">
            135 645 -46 callsubr
            203 hlineto
            -14 -19 -9 -22 -22 vvcurveto
            -21 21 -26 12 10 7 4 6 6 vhcurveto
            8 9 4 13 6 16 rrcurveto
            22 7 20 18 31 hhcurveto
            33 17 -28 -37 -54 -42 -47 -53 -33 hvcurveto
            5 -20 -21 2 -21 hhcurveto
            -47 -27 -11 -21 -21 34 -41 29 29 30 7 13 28 hvcurveto
            28 -15 17 -25 -32 vvcurveto
            -69 -68 -42 -95 -103 -71 40 72 vhcurveto
            44 23 14 28 vvcurveto
            16 -9 7 -15 -44 -30 -47 -56 -114 96 -75 152 145 98 79 103 return
          </CharString>
          <CharString index="153">
            rmoveto
            133 callsubr
            60 -77 -13 64 -36 hhcurveto
            -18 -13 -16 -21 -55 129 -111 21 hvcurveto
            return
          </CharString>
          <CharString index="154">
            -119 -22 vvcurveto
            -21 return
          </CharString>
          <CharString index="155">
            rmoveto
            94 161 54 49 16 -3 17 -10 hvcurveto
            108 callsubr
            -304 234 callgsubr
            574 -102 callgsubr
          </CharString>
          <CharString index="156">
            82 callgsubr
            49 hvcurveto
            -55 -39 -37 -53 -49 vvcurveto
            return
          </CharString>
          <CharString index="157">
            -13 -83 -18 vvcurveto
            -25 19 -14 14 38 16 152 return
          </CharString>
          <CharString index="158">
            54 callgsubr
            -30 12 -24 19 -22 hvcurveto
            -73 -27 -50 -63 -76 vvcurveto
            -112 91 -66 136 48 41 14 24 14 -15 5 -43 -104 -77 39 80 68 55 43 79 70 29 -35 -59 -23 3 -20 15 31 12 39 34 72 -54 64 -109 -7 -6 0 -1 -6 vhcurveto
            -10 13 -6 14 16 vvcurveto
            33 30 16 69 vhcurveto
            38 24 -3 24 hhcurveto
            8 6 1 2 6 hvcurveto
            25 6 8 47 49 vvcurveto
            22 -4 21 -6 19 vhcurveto
            return
          </CharString>
          <CharString index="159">
            vvcurveto
            -65 62 -38 106 132 196 91 109 -6 callgsubr
          </CharString>
          <CharString index="160">
            -27 13 42 callgsubr
            return
          </CharString>
          <CharString index="161">
            31 vhcurveto
            55 callgsubr
            return
          </CharString>
          <CharString index="162">
            rmoveto
            -42 48 -49 61 -36 52 rrcurveto
            14 15 16 9 16 hhcurveto
            41 55 -75 -75 27 hvcurveto
            -14 -12 -14 -12 -15 -10 rrcurveto
            -206 -5 rmoveto
            30 17 48 24 40 vhcurveto
            36 -46 46 -51 42 -40 rrcurveto
            -22 -42 -42 -11 -37 hhcurveto
            -35 -9 18 34 hvcurveto
            return
          </CharString>
          <CharString index="163">
            -13 callgsubr
            -111 76 10 -136 45 hhcurveto
            15 14 9 17 16 -10 42 -16 47 hvcurveto
            3 3 0 3 hhcurveto
            return
          </CharString>
          <CharString index="164">
            rmoveto
            12 31 38 13 45 hhcurveto
            65 43 -20 -42 -112 -191 -57 -63 -49 hvcurveto
            32 114 10 63 38 vvcurveto
            13 -4 14 -6 13 vhcurveto
            -47 -308 113 callgsubr
          </CharString>
          <CharString index="165">
            -106 callsubr
            88 hlineto
            -21 return
          </CharString>
          <CharString index="166">
            -41 -14 17 29 38 33 63 33 return
          </CharString>
          <CharString index="167">
            -74 37 163 -205 33 hhcurveto
            17 -41 callsubr
            74 4 69 34 50 49 rrcurveto
            79 111 127 80 77 hhcurveto
            32 14 -18 -35 hvcurveto
            -114 -182 -87 -32 100 callgsubr
            107 122 55 86 89 vhcurveto
            -20 -101 -21 -92 -18 261 callsubr
            40 14 16 19 20 -14 14 -40 hvcurveto
            endchar
          </CharString>
          <CharString index="168">
            74 callgsubr
            -15 -79 -14 -89 -17 -84 rrcurveto
            61 -16 -34 62 22 callsubr
            return
          </CharString>
          <CharString index="169">
            rmoveto
            -43 219 callsubr
            33 29 -35 -42 -29 -6 -26 -10 -24 vhcurveto
            -12 4 -13 6 -14 7 322 callsubr
            38 hlineto
            -10 -55 -10 -55 -11 -57 -81 -102 -130 -64 -131 -4 rrcurveto
            125 76 89 116 121 vvcurveto
            81 -57 57 -74 -67 -51 -44 -69 -86 67 -59 71 -9 vhcurveto
            -66 -92 -119 -49 -30 vvcurveto
            -34 48 -45 38 111 117 43 73 88 vhcurveto
            return
          </CharString>
          <CharString index="170">
            -76 -28 -78 -59 -76 vvcurveto
            -66 49 -34 77 54 56 19 31 45 vhcurveto
            -41 5 11 -30 20 hhcurveto
            35 -18 78 94 16 hvcurveto
            5 28 7 28 9 25 rrcurveto
            86 15 77 43 62 303 callsubr
            -58 -49 -57 -72 -33 vhcurveto
            -18 hlineto
            -77 -46 57 callgsubr
            52 13 -37 100 callsubr
            7 6 hvcurveto
            10 7 2 14 17 vvcurveto
            96 23 48 13 31 vhcurveto
            161 -107 callgsubr
          </CharString>
          <CharString index="171">
            94 23 callgsubr
            355 hlineto
            -13 -72 -14 -70 -14 -75 -28 17 -42 19 -40 21 rrcurveto
            27 -52 -63 38 -23 hhcurveto
            -19 -6 -13 -15 -33 154 -80 79 -32 hvcurveto
            -42 -23 -55 -36 -51 -31 rrcurveto
            -92 -56 -99 -56 212 callgsubr
            82 51 60 97 vhcurveto
            45 27 46 28 37 25 rrcurveto
            -19 -94 -18 -83 -17 vvcurveto
            -24 24 -18 14 24 29 131 126 28 vhcurveto
            -10 22 23 -7 17 hhcurveto
            return
          </CharString>
          <CharString index="172">
            -35 16 24 24 41 29 52 21 vhcurveto
            9 -19 4 -21 -19 vvcurveto
            return
          </CharString>
          <CharString index="173">
            69 -46 callsubr
            return
          </CharString>
          <CharString index="174">
            -15 -98 -14 -83 -18 vvcurveto
            -25 20 -14 14 38 return
          </CharString>
          <CharString index="175">
            -7 -1 -8 -8 vvcurveto
            return
          </CharString>
          <CharString index="176">
            vvcurveto
            165 -361 rmoveto
            23 16 -14 -26 -43 -55 -32 -79 -7 hvcurveto
            70 8 31 52 56 hhcurveto
            return
          </CharString>
          <CharString index="177">
            -45 callgsubr
            116 -78 callsubr
            return
          </CharString>
          <CharString index="178">
            154 callsubr
            -33 -14 43 62 123 45 83 13 44 vhcurveto
            return
          </CharString>
          <CharString index="179">
            vvcurveto
            -14 32 -24 14 21 40 291 callsubr
            31 174 callgsubr
            return
          </CharString>
          <CharString index="180">
            -27 12 -62 callsubr
            return
          </CharString>
          <CharString index="181">
            11 38 -3 40 -19 34 -39 59 -69 24 -72 -32 return
          </CharString>
          <CharString index="182">
            59 -23 callsubr
            return
          </CharString>
          <CharString index="183">
            rmoveto
            -12 -15 -26 -20 -25 44 -57 20 12 8 9 15 28 -31 76 -26 hvcurveto
            -402 264 -106 callsubr
            312 hlineto
            -7 -23 -3 -27 -23 vvcurveto
            -6 0 -7 1 -6 vhcurveto
            7 -15 -15 5 -15 hhcurveto
            -78 -144 -69 -53 -20 22 335 callgsubr
            66 -37 147 -5 -52 vvcurveto
            -37 -38 -31 -74 -83 -32 33 38 -15 vhcurveto
            21 -9 -12 13 -19 hhcurveto
            -20 -8 -16 -21 return
          </CharString>
          <CharString index="184">
            -11 -45 -11 -41 -7 -30 rrcurveto
            15 -23 -30 12 -30 hhcurveto
            -51 -61 -36 -36 -44 hvcurveto
            -64 -54 -56 -67 -22 302 callsubr
            24 48 61 52 60 vhcurveto
            34 39 44 24 38 hhcurveto
            29 33 -17 -22 25 hvcurveto
            6 -3 5 -2 6 -1 266 callsubr
            116 -106 callgsubr
            endchar
          </CharString>
          <CharString index="185">
            -15 -68 -12 -54 -15 156 callsubr
            32 27 106 108 25 vhcurveto
            103 173 148 150 66 hhcurveto
            32 14 -18 -35 hvcurveto
            -121 -183 -70 -36 vvcurveto
            -33 38 -36 31 107 123 53 84 89 vhcurveto
            -20 -101 -21 -94 -18 168 callgsubr
            13 -95 callsubr
            -41 hvcurveto
            endchar
          </CharString>
          <CharString index="186">
            113 callsubr
            23 50 341 callgsubr
            return
          </CharString>
          <CharString index="187">
            -73 55 -44 110 148 112 83 77 63 -61 41 -59 18 vhcurveto
            19 81 222 66 68 hhcurveto
            14 10 -5 -14 hvcurveto
            -79 -173 -80 -30 349 callgsubr
            127 43 86 92 vhcurveto
            -21 -112 -25 -109 -19 -16 callgsubr
            117 -107 callgsubr
          </CharString>
          <CharString index="188">
            42 callsubr
            75 62 33 36 57 vhcurveto
            -15 -98 return
          </CharString>
          <CharString index="189">
            -22 21 callsubr
            111 hvcurveto
            return
          </CharString>
          <CharString index="190">
            hhcurveto
            -28 -8 29 34 88 74 144 63 hvcurveto
            40 9 -71 35 hhcurveto
            17 8 13 21 37 -45 76 -54 return
          </CharString>
          <CharString index="191">
            hlineto
            115 callgsubr
            19 vhcurveto
            return
          </CharString>
          <CharString index="192">
            155 callgsubr
            150 callgsubr
            224 198 callgsubr
            374 hlineto
            -50 callgsubr
            -85 -66 -74 -87 -36 hvcurveto
            -62 -36 -105 -69 -155 -5 rrcurveto
            136 77 91 130 118 vvcurveto
            81 -58 57 -74 return
          </CharString>
          <CharString index="193">
            rmoveto
            20 -29 34 -24 -29 -122 -148 -212 -149 vhcurveto
            63 183 59 247 123 vvcurveto
            40 -40 47 -20 -19 -4 -8 -20 vhcurveto
            -284 -130 -351 -48 vvcurveto
            -23 31 -42 20 21 39 49 114 84 vhcurveto
            2 -6 3 -7 3 -6 rrcurveto
            -77 18 93 -67 54 hhcurveto
            21 15 9 16 hvcurveto
            32 -137 29 108 103 177 121 24 vvcurveto
            endchar
          </CharString>
          <CharString index="194">
            rmoveto
            50 -39 46 -42 -27 -26 -38 -19 vhcurveto
            -27 51 -2 -37 -75 -84 -57 -29 vvcurveto
            -10 7 -4 13 49 98 114 88 vhcurveto
            endchar
          </CharString>
          <CharString index="195">
            4 callgsubr
            -156 -420 -84 callsubr
            return
          </CharString>
          <CharString index="196">
            -54 406 96 callgsubr
            return
          </CharString>
          <CharString index="197">
            vvcurveto
            -158 141 -77 157 53 42 14 27 15 -20 4 -44 -130 -121 54 122 return
          </CharString>
          <CharString index="198">
            -13 -66 -12 -73 -13 -71 rrcurveto
            44 -28 -44 44 -51 hhcurveto
            return
          </CharString>
          <CharString index="199">
            4 -22 6 -31 -41 vvcurveto
            -120 return
          </CharString>
          <CharString index="200">
            -16 -73 -14 -60 -15 289 callsubr
            33 27 111 110 25 vhcurveto
            57 29 57 33 52 33 rrcurveto
            -12 -35 -7 -37 -34 vvcurveto
            -73 26 -59 70 82 94 53 84 67 vhcurveto
            -18 -83 -17 -68 -16 vvcurveto
            -21 29 -27 12 22 37 308 callgsubr
            14 16 19 20 -14 14 -41 hvcurveto
            endchar
          </CharString>
          <CharString index="201">
            rrcurveto
            120 -107 callgsubr
          </CharString>
          <CharString index="202">
            10 15 16 -54 70 return
          </CharString>
          <CharString index="203">
            183 16 callgsubr
            return
          </CharString>
          <CharString index="204">
            rmoveto
            13 15 15 9 26 -35 81 -24 -22 -25 -33 -23 -29 50 -46 28 hvcurveto
            return
          </CharString>
          <CharString index="205">
            11 20 14 11 vvcurveto
            14 -15 19 return
          </CharString>
          <CharString index="206">
            hlineto
            -63 -37 -61 -59 -46 vvcurveto
            -44 60 -35 60 -13 vhcurveto
            -13 -10 -13 -11 -11 -10 211 callsubr
            96 108 51 63 77 vhcurveto
            -17 -79 -14 -68 -15 vvcurveto
            -17 35 -25 12 21 36 183 131 29 vhcurveto
            20 90 28 126 5 318 callgsubr
          </CharString>
          <CharString index="207">
            26 hhcurveto
            8 7 4 return
          </CharString>
          <CharString index="208">
            hlineto
            -5 -25 -4 -26 -5 -25 rrcurveto
            -184 -43 -132 -88 -104 hhcurveto
            -36 -19 10 25 48 80 67 83 29 hvcurveto
            14 3 8 7 10 vvcurveto
            27 -29 17 -57 vhcurveto
            -148 hlineto
            181 callsubr
            -9 -14 36 -46 27 hvcurveto
            50 49 1 49 hhcurveto
            -55 -38 -40 -51 -51 vvcurveto
            -62 41 -41 79 86 89 40 74 69 vhcurveto
            return
          </CharString>
          <CharString index="209">
            rmoveto
            327 callgsubr
            51 25 24 -3 -3 20 hvcurveto
            -80 -13 -23 -64 -41 hhcurveto
            return
          </CharString>
          <CharString index="210">
            vvcurveto
            -70 65 -88 67 75 63 88 112 40 vhcurveto
            return
          </CharString>
          <CharString index="211">
            -44 -44 -18 -18 -22 vvcurveto
            return
          </CharString>
          <CharString index="212">
            299 callgsubr
            625 hlineto
            302 callgsubr
            -47 -51 -127 -156 -109 -132 -11 rrcurveto
            86 63 88 83 96 vvcurveto
            63 -35 53 -76 -92 -134 -131 -101 -149 vhcurveto
            -89 -54 rmoveto
            -37 -67 -69 -25 -69 hhcurveto
            -21 138 callsubr
            55 45 23 -91 -46 18 hvcurveto
            return
          </CharString>
          <CharString index="213">
            75 288 409 rmoveto
            0 vlineto
            -53 3 -74 18 26 vvcurveto
            34 116 57 43 vhcurveto
            32 13 -28 18 hhcurveto
            9 6 7 10 12 -8 14 -12 14 hvcurveto
            139 hlineto
            -11 -61 -11 -59 -12 -62 rrcurveto
            -90 -58 -143 -96 -115 hhcurveto
            -7 -5 3 6 20 38 42 51 37 hvcurveto
            21 16 50 32 21 vvcurveto
            15 -12 9 -14 vhcurveto
            return
          </CharString>
          <CharString index="214">
            -15 hlineto
            -27 0 -41 -35 vvcurveto
            21 -38 -55 16 -50 hhcurveto
            -75 -34 -30 -43 return
          </CharString>
          <CharString index="215">
            -34 -75 -66 -146 -69 callsubr
            return
          </CharString>
          <CharString index="216">
            73 callgsubr
            -104 453 rmoveto
            -41 return
          </CharString>
          <CharString index="217">
            rmoveto
            11 186 callgsubr
            -16 -24 -17 -38 -11 15 29 19 21 19 4 rrcurveto
            return
          </CharString>
          <CharString index="218">
            576 rmoveto
            -13 -62 -13 -65 -15 -68 -92 -49 -126 -41 -79 -4 rrcurveto
            -66 46 -76 32 42 160 callgsubr
            return
          </CharString>
          <CharString index="219">
            rrcurveto
            115 -107 callgsubr
          </CharString>
          <CharString index="220">
            -265 94 645 rmoveto
            -49 -29 -7 -25 -25 41 -12 72 hvcurveto
            42 27 callgsubr
            return
          </CharString>
          <CharString index="221">
            vvcurveto
            12 -2 11 -3 11 vhcurveto
            132 -43 114 -114 -82 vvcurveto
            -68 -206 -176 -147 -20 vhcurveto
            return
          </CharString>
          <CharString index="222">
            -73 87 -65 116 105 74 58 78 return
          </CharString>
          <CharString index="223">
            rmoveto
            -17 -17 -22 -23 -25 50 -52 23 12 7 11 15 28 -36 68 -22 hvcurveto
            endchar
          </CharString>
          <CharString index="224">
            576 rmoveto
            -13 -72 -14 -71 -16 -75 rrcurveto
            -90 -57 -129 -103 -121 56 callgsubr
            115 73 45 vhcurveto
            31 14 -29 18 hhcurveto
            9 6 8 10 12 -9 16 -12 15 hvcurveto
            return
          </CharString>
          <CharString index="225">
            vhcurveto
            38 24 -3 24 hhcurveto
            8 7 1 2 6 hvcurveto
            24 7 8 44 51 vvcurveto
            22 -4 21 -6 19 vhcurveto
            return
          </CharString>
          <CharString index="226">
            42 45 41 callgsubr
            return
          </CharString>
          <CharString index="227">
            76 40 103 118 19 return
          </CharString>
          <CharString index="228">
            -76 -46 57 callgsubr
            51 13 -37 26 hhcurveto
            7 7 4 5 6 hvcurveto
            11 7 3 15 18 vvcurveto
            96 22 48 13 31 vhcurveto
            return
          </CharString>
          <CharString index="229">
            hhcurveto
            -2 0 hlineto
            1 -25 -22 1 -37 hhcurveto
            -177 -260 -25 -173 -116 121 -92 362 callsubr
            hvcurveto
            51 -142 15 107 vvcurveto
            return
          </CharString>
          <CharString index="230">
            80 219 17 -61 callsubr
            return
          </CharString>
          <CharString index="231">
            49 67 vvcurveto
            49 -66 76 -55 -64 -86 -81 -91 -51 vhcurveto
            158 callgsubr
          </CharString>
          <CharString index="232">
            4 -7 callgsubr
            return
          </CharString>
          <CharString index="233">
            199 callsubr
            18 11 return
          </CharString>
          <CharString index="234">
            227 callgsubr
            -173 -140 -109 -169 -12 rrcurveto
            77 49 88 87 61 vvcurveto
            36 -50 51 -44 -73 -75 -25 -29 -115 vhcurveto
            -49 -12 -76 -16 -55 -16 35 43 28 52 1 72 rrcurveto
            49 -342 rmoveto
            -43 -97 -45 -93 -53 -34 14 38 return
          </CharString>
          <CharString index="235">
            4 callsubr
            -57 -97 -67 -78 -67 hvcurveto
            -7 -6 -8 -7 -8 -7 -47 273 callsubr
            -61 -218 rmoveto
            42 7 51 13 50 vhcurveto
            44 -73 69 -88 47 -55 rrcurveto
            -32 -46 -50 -26 -38 hhcurveto
            -33 -13 70 61 hvcurveto
            return
          </CharString>
          <CharString index="236">
            -81 130 callsubr
            return
          </CharString>
          <CharString index="237">
            276 511 -57 callgsubr
            return
          </CharString>
          <CharString index="238">
            -74 5 96 -29 hhcurveto
            -18 -27 -19 -36 -48 63 -61 68 71 82 63 43 15 -7 8 -16 hvcurveto
            return
          </CharString>
          <CharString index="239">
            140 callgsubr
            -11 16 31 18 20 18 5 rrcurveto
            return
          </CharString>
          <CharString index="240">
            22 26 33 29 39 hvcurveto
            43 32 49 19 30 vvcurveto
            16 -10 10 -19 228 callgsubr
            vhcurveto
            return
          </CharString>
          <CharString index="241">
            132 135 84 80 return
          </CharString>
          <CharString index="242">
            -40 -43 -33 -49 -40 vvcurveto
            -41 35 -33 53 74 117 37 46 82 vhcurveto
            -15 14 18 -10 17 hhcurveto
            328 callgsubr
            hvcurveto
            -23 -116 -26 20 callgsubr
            return
          </CharString>
          <CharString index="243">
            69 -73 callsubr
            return
          </CharString>
          <CharString index="244">
            181 callsubr
            -8 -15 return
          </CharString>
          <CharString index="245">
            -8 8 18 43 94 133 return
          </CharString>
          <CharString index="246">
            21 90 27 -71 callsubr
            117 -107 callgsubr
          </CharString>
          <CharString index="247">
            10 169 callsubr
            return
          </CharString>
          <CharString index="248">
            vvcurveto
            -37 43 -55 25 150 314 216 127 195 -275 169 -186 return
          </CharString>
          <CharString index="249">
            182 callgsubr
            217 callsubr
            return
          </CharString>
          <CharString index="250">
            -17 -90 rrcurveto
            -22 -121 return
          </CharString>
          <CharString index="251">
            96 callsubr
            -183 -137 rmoveto
            8 8 -1 8 hhcurveto
            -10 -36 -6 -36 -2 -32 rrcurveto
            -38 -44 -52 -20 -56 hhcurveto
            -38 -22 12 28 70 127 53 73 hvcurveto
            return
          </CharString>
          <CharString index="252">
            hlineto
            -1 -5 -22 -100 -11 -83 -18 -79 rlinecurve
            100 -18 -42 102 -80 hhcurveto
            return
          </CharString>
          <CharString index="253">
            5 18 8 19 hvcurveto
            -4 12 return
          </CharString>
          <CharString index="254">
            576 rmoveto
            -10 -58 -11 -57 -12 -59 -88 -34 -135 -26 -116 -11 rrcurveto
            38 44 24 54 56 -23 callsubr
            57 -522 rmoveto
            -29 -12 -26 -33 359 callgsubr
            53 19 vhcurveto
            9 -19 4 -21 -19 vvcurveto
            return
          </CharString>
          <CharString index="255">
            360 767 399 rmoveto
            -121 -60 -188 -46 -91 -6 rrcurveto
            -58 44 -66 32 44 vvcurveto
            13 12 5 22 vhcurveto
            87 52 -50 25 hhcurveto
            5 3 1 2 3 hvcurveto
            23 12 7 75 73 vvcurveto
            14 -3 13 -5 11 vhcurveto
            330 hlineto
            return
          </CharString>
          <CharString index="256">
            190 146 35 hvcurveto
            24 98 35 184 49 vvcurveto
            16 -37 36 -23 -11 -4 -6 -13 -1 vhcurveto
            -6 -70 -31 -183 return
          </CharString>
          <CharString index="257">
            20 88 26 276 callgsubr
            return
          </CharString>
          <CharString index="258">
            133 316 386 rmoveto
            8 66 2 66 50 vvcurveto
            8 247 vlineto
            -9 -51 -10 -50 -10 -52 -45 -6 -89 -17 -75 -11 rrcurveto
            -159 -206 rmoveto
            -26 -44 38 33 26 53 16 73 13 hvcurveto
            -71 -12 -17 -55 -27 hhcurveto
            return
          </CharString>
          <CharString index="259">
            -1 rrcurveto
            -4 5 5 -3 4 204 callsubr
            return
          </CharString>
          <CharString index="260">
            104 50 140 147 107 hhcurveto
            88 40 -84 -118 -9 0 -10 -1 -10 hvcurveto
            return
          </CharString>
          <CharString index="261">
            576 rmoveto
            89 callgsubr
            return
          </CharString>
          <CharString index="262">
            -64 69 -97 69 120 callsubr
            vhcurveto
            return
          </CharString>
          <CharString index="263">
            vvcurveto
            -18 13 -14 17 return
          </CharString>
          <CharString index="264">
            -34 -75 -66 -146 -36 -18 8 -27 hhcurveto
            -15 -8 -9 -15 -16 13 -14 21 -9 hvcurveto
            5 -6 4 -7 -7 vvcurveto
            -55 -98 -61 -92 -30 -15 13 36 75 38 90 86 54 callsubr
            15 -41 24 -25 return
          </CharString>
          <CharString index="265">
            645 rmoveto
            -23 42 -125 99 94 84 callgsubr
            return
          </CharString>
          <CharString index="266">
            576 274 callsubr
            -51 -127 -155 -114 -132 -11 rrcurveto
            83 58 91 95 95 vvcurveto
            63 -35 53 -77 -66 -95 -41 -56 -90 vhcurveto
            2 11 1 12 12 -23 callsubr
            return
          </CharString>
          <CharString index="267">
            rmoveto
            14 18 18 10 29 -41 94 -27 -25 -28 -37 -25 -32 55 -57 34 hvcurveto
            return
          </CharString>
          <CharString index="268" raw="1">
            401df70a 06b40b  
          </CharString>
          <CharString index="269">
            101 92 49 67 73 -73 97 -84 return
          </CharString>
          <CharString index="270">
            51 44 31 27 19 -10 return
          </CharString>
          <CharString index="271">
            -15 callgsubr
            246 callsubr
            -56 -4 -91 -9 -84 vhcurveto
            -113 -11 -90 -28 -68 vvcurveto
            -63 69 -97 69 69 39 96 115 22 vhcurveto
            1 23 23 0 24 return
          </CharString>
          <CharString index="272">
            20 87 26 124 4 40 rrcurveto
            -397 69 rmoveto
            233 callgsubr
            -14 -70 -13 -77 -14 -74 rrcurveto
            59 -18 -34 59 -58 -20 callgsubr
            return
          </CharString>
          <CharString index="273">
            177 callgsubr
            -4 0 -5 hhcurveto
            return
          </CharString>
          <CharString index="274">
            rmoveto
            42 7 50 13 50 vhcurveto
            44 -72 69 -88 46 -55 rrcurveto
            -32 -45 -50 -26 -39 hhcurveto
            -32 -13 70 61 hvcurveto
            return
          </CharString>
          <CharString index="275">
            -27 9 -37 hhcurveto
            -122 -183 -72 -87 -57 67 -50 67 return
          </CharString>
          <CharString index="276">
            95 callsubr
            -46 61 return
          </CharString>
          <CharString index="277">
            108 vvcurveto
            30 -6 25 -10 21 vhcurveto
            -292 214 callgsubr
            return
          </CharString>
          <CharString index="278">
            291 16 callsubr
            return
          </CharString>
          <CharString index="279">
            235 callsubr
            5 5 12 44 -64 62 -87 -105 -69 -69 -86 return
          </CharString>
          <CharString index="280">
            -70 37 -58 77 134 callsubr
            return
          </CharString>
          <CharString index="281">
            254 callsubr
            -4 return
          </CharString>
          <CharString index="282">
            137 -248 -13 32 vvcurveto
            29 105 33 40 vhcurveto
            31 22 -16 18 hhcurveto
            0 1 vlineto
            21 11 17 31 62 7 33 5 24 hvcurveto
            154 -107 callgsubr
          </CharString>
          <CharString index="283">
            rrcurveto
            51 -17 -35 34 -50 hhcurveto
            -147 -114 -257 -116 -55 54 -68 61 52 65 45 55 54 hvcurveto
            -4 -22 -3 -16 -9 vvcurveto
            -26 30 -27 17 21 44 171 121 30 vhcurveto
            return
          </CharString>
          <CharString index="284">
            67 callgsubr
            vhcurveto
            55 -138 11 139 vvcurveto
            58 57 28 96 return
          </CharString>
          <CharString index="285">
            -110 56 -99 102 98 callgsubr
            vhcurveto
            75 callgsubr
            return
          </CharString>
          <CharString index="286">
            -106 callsubr
            83 hlineto
            -20 return
          </CharString>
          <CharString index="287">
            -202 -68 callgsubr
            return
          </CharString>
          <CharString index="288">
            -49 -35 4 -34 hhcurveto
            -14 -8 -4 return
          </CharString>
          <CharString index="289">
            -28 -42 -35 -98 hhcurveto
            -55 -29 return
          </CharString>
          <CharString index="290">
            126 197 -38 callsubr
            return
          </CharString>
          <CharString index="291">
            -16 -21 115 callsubr
            hvcurveto
            137 -248 -13 32 vvcurveto
            29 105 33 40 vhcurveto
            31 22 -16 18 hhcurveto
            0 1 vlineto
            21 11 17 31 62 7 33 5 24 hvcurveto
            return
          </CharString>
          <CharString index="292">
            -197 -194 -268 -81 -14 11 -14 15 28 14 19 27 17 return
          </CharString>
          <CharString index="293">
            355 callgsubr
            148 64 145 81 30 vvcurveto
            17 -8 4 -15 -23 -110 -60 -56 -119 vhcurveto
            11 51 77 callgsubr
            rlinecurve
            return
          </CharString>
          <CharString index="294">
            309 callgsubr
            20 -38 23 -22 return
          </CharString>
          <CharString index="295">
            -23 -64 -43 -66 hhcurveto
            -14 -8 5 14 13 10 41 31 99 hvcurveto
            16 51 15 52 13 48 rrcurveto
            return
          </CharString>
          <CharString index="296">
            67 45 27 9 31 vvcurveto
            25 -20 32 -22 156 callgsubr
            vhcurveto
            104 callsubr
            return
          </CharString>
          <CharString index="297">
            183 110 callsubr
            return
          </CharString>
          <CharString index="298">
            33 -45 callgsubr
            64 188 callgsubr
            -141 -201 return
          </CharString>
          <CharString index="299">
            rmoveto
            -47 34 -39 45 55 44 55 53 48 -34 39 -45 -55 -44 -55 -54 vhcurveto
            119 16 rmoveto
            -29 -17 -20 -17 -15 -11 16 20 30 18 20 15 16 11 -16 -21 vhcurveto
            return
          </CharString>
          <CharString index="300">
            rmoveto
            39 -47 45 -17 -16 -4 342 callsubr
            33 -39 19 18 28 107 97 24 vhcurveto
            46 177 32 194 117 vvcurveto
            endchar
          </CharString>
          <CharString index="301">
            vvcurveto
            -21 29 53 callsubr
            return
          </CharString>
          <CharString index="302">
            -6 4 16 15 249 callsubr
            return
          </CharString>
          <CharString index="303">
            510 -106 callsubr
            return
          </CharString>
          <CharString index="304">
            499 -73 callsubr
            return
          </CharString>
          <CharString index="305">
            555 -106 callsubr
            return
          </CharString>
          <CharString index="306">
            18 14 13 vhcurveto
            13 12 return
          </CharString>
          <CharString index="307">
            248 callsubr
            -37 269 rmoveto
            -49 callsubr
            return
          </CharString>
          <CharString index="308">
            -106 callsubr
            350 hlineto
            -10 -29 -4 -36 -28 vvcurveto
            10 -19 -20 7 -16 hhcurveto
            -100 -198 -156 -103 -46 31 -37 45 -18 hvcurveto
            return
          </CharString>
          <CharString index="309">
            hlineto
            -60 -32 -55 -48 -40 vvcurveto
            -44 57 -33 57 -14 vhcurveto
            -17 -11 -16 -13 -13 -12 rrcurveto
            -45 -41 -28 -42 -35 vvcurveto
            -40 30 -30 56 95 114 53 64 78 vhcurveto
            return
          </CharString>
          <CharString index="310">
            -259 305 744 rmoveto
            63 -44 38 -50 -27 -25 -22 -22 vhcurveto
            -39 58 15 -57 -71 -92 -42 -32 vvcurveto
            -15 8 -7 20 43 109 99 92 vhcurveto
            endchar
          </CharString>
          <CharString index="311">
            -7 callgsubr
            117 hlineto
            return
          </CharString>
          <CharString index="312">
            -8 126 callgsubr
            return
          </CharString>
          <CharString index="313">
            128 -45 callgsubr
            return
          </CharString>
          <CharString index="314">
            205 callgsubr
            vhcurveto
            return
          </CharString>
          <CharString index="315">
            136 rmoveto
            83 117 209 84 34 6 -49 -49 6 vhcurveto
            1 -13 2 -12 3 -9 rrcurveto
            -110 -39 -113 -88 -62 hhcurveto
            -23 -16 15 23 hvcurveto
            return
          </CharString>
          <CharString index="316">
            vvcurveto
            -24 24 -18 14 28 33 245 callsubr
          </CharString>
          <CharString index="317">
            196 634 -196 hlineto
            236 -185 rmoveto
            196 185 -196 hlineto
            return
          </CharString>
          <CharString index="318">
            rrcurveto
            -47 -44 -43 -61 -38 vvcurveto
            -40 28 -31 56 return
          </CharString>
          <CharString index="319">
            58 72 16 79 25 67 hvcurveto
            return
          </CharString>
          <CharString index="320">
            295 callgsubr
            16 return
          </CharString>
          <CharString index="321">
            50 callgsubr
            -108 -152 -197 -97 -37 16 -28 27 -21 hvcurveto
            -67 -25 -60 -55 -69 vvcurveto
            return
          </CharString>
          <CharString index="322">
            422 328 rmoveto
            16 -21 9 -39 -98 -211 -31 -32 -19 27 -29 20 23 49 13 16 79 vhcurveto
            126 25 45 9 23 vvcurveto
            endchar
          </CharString>
          <CharString index="323">
            5 -7 callgsubr
            return
          </CharString>
          <CharString index="324">
            348 callgsubr
            -16 return
          </CharString>
          <CharString index="325">
            -103 79 119 44 196 182 return
          </CharString>
          <CharString index="326">
            220 callsubr
            32 21 20 30 return
          </CharString>
          <CharString index="327">
            20 -15 36 31 vvcurveto
            return
          </CharString>
          <CharString index="328">
            -278 954 rmoveto
            -89 190 -252 54 15 14 7 14 vhcurveto
            33 -152 110 103 vvcurveto
            35 -69 55 -37 -10 -5 -4 -12 vhcurveto
            return
          </CharString>
          <CharString index="329">
            hhcurveto
            -137 -154 -27 -89 -78 115 -130 80 81 33 87 83 32 -3 31 -7 22 hvcurveto
            5 hlineto
            361 callsubr
            9 return
          </CharString>
          <CharString index="330">
            hlineto
            -14 -53 -12 -86 -23 -98 rrcurveto
            84 -25 -45 90 -63 hhcurveto
            -113 -83 -157 -98 -73 31 -42 69 63 68 24 39 56 hvcurveto
            -5 return
          </CharString>
          <CharString index="331">
            -1 rrcurveto
            131 87 106 170 117 vvcurveto
            8 -1 8 -1 8 vhcurveto
            return
          </CharString>
          <CharString index="332">
            576 rmoveto
            -50 callgsubr
            return
          </CharString>
          <CharString index="333">
            298 hlineto
            41 13 -95 callsubr
            return
          </CharString>
          <CharString index="334">
            vvcurveto
            78 -52 69 -79 -110 -66 -86 -84 return
          </CharString>
          <CharString index="335">
            -22 6 -17 hhcurveto
            return
          </CharString>
          <CharString index="336">
            vvcurveto
            42 -25 32 return
          </CharString>
          <CharString index="337">
            256 244 callsubr
            return
          </CharString>
          <CharString index="338">
            hlineto
            -13 -71 -13 -69 -14 -73 rrcurveto
            75 -31 -51 79 -63 hhcurveto
            -118 -91 -161 -99 -76 31 -46 80 67 85 32 47 60 hvcurveto
            return
          </CharString>
          <CharString index="339">
            24 9 -26 hvcurveto
            1 vlineto
            16 -41 -65 8 -59 hhcurveto
            return
          </CharString>
          <CharString index="340">
            287 -106 callsubr
            return
          </CharString>
          <CharString index="341">
            vvcurveto
            -21 32 -27 12 22 return
          </CharString>
          <CharString index="342">
            78 30 -53 21 hhcurveto
            7 return
          </CharString>
          <CharString index="343">
            511 rmoveto
            -35 -150 -177 -125 -144 257 callgsubr
            198 hlineto
            return
          </CharString>
          <CharString index="344">
            -1 rrcurveto
            40 20 -20 -44 -92 -84 -92 -105 -15 -11 5 6 -9 hvcurveto
            -13 10 -11 7 -11 1 rrcurveto
            1 -3 -3 0 -4 hhcurveto
            return
          </CharString>
          <CharString index="345">
            235 callgsubr
            143 callgsubr
            vhcurveto
            return
          </CharString>
          <CharString index="346">
            90 66 callgsubr
            return
          </CharString>
          <CharString index="347">
            229 callgsubr
            17 return
          </CharString>
          <CharString index="348">
            319 callgsubr
            -26 return
          </CharString>
          <CharString index="349">
            -81 162 86 rmoveto
            -25 -18 44 39 140 88 93 67 23 19 -16 -21 17 hvcurveto
            -130 -9 -90 -149 -72 hhcurveto
            return
          </CharString>
          <CharString index="350">
            -6 161 262 rmoveto
            63 59 115 52 40 48 -86 -71 14 vhcurveto
            -52 -56 -59 -19 -62 hhcurveto
            -29 -7 14 36 hvcurveto
            return
          </CharString>
          <CharString index="351">
            546 rmoveto
            13 28 34 13 42 -20 39 -24 7 -42 -16 -38 -26 -2 -25 4 -18 9 -43 11 -19 28 12 33 rrcurveto
            return
          </CharString>
          <CharString index="352">
            174 140 33 vhcurveto
            281 callgsubr
          </CharString>
          <CharString index="353">
            148 104 callgsubr
            return
          </CharString>
          <CharString index="354">
            576 114 callgsubr
            return
          </CharString>
          <CharString index="355">
            -279 -32 callsubr
            return
          </CharString>
          <CharString index="356">
            146 callsubr
            13 -2 13 hhcurveto
            return
          </CharString>
          <CharString index="357">
            -75 31 -53 79 74 99 47 49 57 return
          </CharString>
          <CharString index="358">
            -5 -30 -7 -29 -8 -29 return
          </CharString>
          <CharString index="359">
            -5 -26 -6 -25 -7 -25 rrcurveto
            -130 -14 -127 -4 -81 vvcurveto
            -70 64 -88 68 77 63 88 110 39 vhcurveto
            return
          </CharString>
          <CharString index="360">
            -25 34 -28 -45 -21 -84 -48 -61 -37 rrcurveto
            -93 -57 -92 -49 212 callgsubr
            76 45 60 97 vhcurveto
            return
          </CharString>
          <CharString index="361">
            rmoveto
            10 3 6 return
          </CharString>
          <CharString index="362">
            -20 -44 -92 -83 -92 -105 -15 -11 5 5 -9 hvcurveto
            -13 11 -12 7 -11 1 rrcurveto
            1 -3 -3 0 -4 hhcurveto
            return
          </CharString>
          <CharString index="363">
            -13 262 callgsubr
            return
          </CharString>
          <CharString index="364">
            hlineto
            -16 -35 -10 -46 -1 -35 rrcurveto
            12 -19 -21 9 -19 hhcurveto
            return
          </CharString>
          <CharString index="365">
            hhcurveto
            17 10 10 15 return
          </CharString>
          <CharString index="366">
            vvcurveto
            89 -45 72 -96 -88 -59 -58 -45 -20 12 -11 17 vhcurveto
            34 9 68 86 hhcurveto
            42 19 -35 -45 -92 return
          </CharString>
          <CharString index="367">
            hlineto
            103 callgsubr
            rrcurveto
            -145 -2 -188 -183 -111 vvcurveto
            return
          </CharString>
          <CharString index="368">
            -75 callsubr
            118 hlineto
            return
          </CharString>
          <CharString index="369">
            127 -227 -7 32 vvcurveto
            27 101 22 40 vhcurveto
            31 22 -15 18 hhcurveto
            0 1 vlineto
            21 11 13 32 return
          </CharString>
          <CharString index="370">
            98 callsubr
            -16 -3 return
          </CharString>
          <CharString index="371">
            252 callgsubr
            vhcurveto
            return
          </CharString>
          <CharString index="372">
            -180 -177 -168 -183 -139 85 -110 163 206 160 146 198 return
          </CharString>
          <CharString index="373">
            rrcurveto
            -4 5 5 -3 4 hhcurveto
            21 37 -71 callgsubr
            32 hvcurveto
            21 90 27 -71 callsubr
            return
          </CharString>
          <CharString index="374">
            179 142 callgsubr
            return
          </CharString>
          <CharString index="375">
            hvcurveto
            -270 -390 -208 -275 -42 vvcurveto
            -17 22 -24 10 20 54 76 246 170 vhcurveto
            return
          </CharString>
          <CharString index="376">
            263 callsubr
            -4 -1 -2 return
          </CharString>
          <CharString index="377">
            -20 callgsubr
            63 66 return
          </CharString>
          <CharString index="378">
            38 12 -15 13 hhcurveto
            8 3 4 12 30 -42 62 -40 return
          </CharString>
          <CharString index="379">
            356 203 rmoveto
            1 hlineto
            29 54 37 33 73 hvcurveto
            return
          </CharString>
          <CharString index="380">
            66 -75 111 -41 80 rrcurveto
            return
          </CharString>
          <CharString index="381">
            310 callgsubr
            -48 return
          </CharString>
          <CharString index="382">
            21 -53 3 -117 return
          </CharString>
          <CharString index="383">
            127 6 38 rrcurveto
            return
          </CharString>
          <CharString index="384">
            73 callsubr
            119 hlineto
            41 return
          </CharString>
          <CharString index="385">
            282 callsubr
            -85 return
          </CharString>
          <CharString index="386">
            -106 callsubr
            97 hlineto
            -21 -64 -13 -79 -69 vvcurveto
            -102 29 -102 82 return
          </CharString>
          <CharString index="387">
            184 254 callsubr
            -3 -4 -10 -4 -17 -20 -15 -33 -11 15 30 15 20 15 3 rrcurveto
            return
          </CharString>
          <CharString index="388">
            174 callgsubr
            103 134 callgsubr
          </CharString>
          <CharString index="389">
            hlineto
            -1 -3 -1 -3 -3 vvcurveto
            -20 34 -35 20 vhcurveto
            21 16 43 56 hhcurveto
            40 19 -23 -43 return
          </CharString>
          <CharString index="390">
            rmoveto
            -26 -19 34 24 25 22 9 43 16 16 -2 -3 17 hvcurveto
            -50 -17 -24 -37 -28 hhcurveto
            return
          </CharString>
          <CharString index="391">
            9 23 11 27 6 22 rrcurveto
            334 callsubr
          </CharString>
          <CharString index="392">
            -128 -36 -140 -22 vvcurveto
            -23 25 -27 16 vhcurveto
            return
          </CharString>
          <CharString index="393">
            466 -106 callsubr
            return
          </CharString>
          <CharString index="394">
            -59 -20 callgsubr
            return
          </CharString>
          <CharString index="395">
            hhcurveto
            -84 -54 -52 -64 -64 return
          </CharString>
          <CharString index="396">
            229 callgsubr
            16 return
          </CharString>
          <CharString index="397" raw="1">
            a296979a 1e0b  
          </CharString>
          <CharString index="398">
            183 133 return
          </CharString>
          <CharString index="399">
            -158 -46 -39 -113 vhcurveto
            11 0 11 1 10 vhcurveto
            4 67 21 39 13 24 rrcurveto
            return
          </CharString>
          <CharString index="400">
            783 rmoveto
            -15 -16 -21 -21 -23 46 -48 21 11 7 11 13 26 -34 63 -20 hvcurveto
            return
          </CharString>
          <CharString index="401">
            -30 -207 -57 -89 vvcurveto
            -69 82 -62 71 63 28 56 75 31 -3 26 -6 23 vhcurveto
            return
          </CharString>
          <CharString index="402">
            339 callsubr
            -16 -82 -15 -91 -17 -86 return
          </CharString>
          <CharString index="403">
            168 173 callgsubr
            return
          </CharString>
          <CharString index="404">
            218 rmoveto
            25 21 -25 -15 -41 -79 -20 -85 -3 hvcurveto
            53 35 45 51 38 hhcurveto
            return
          </CharString>
          <CharString index="405">
            -71 callsubr
            116 -102 callgsubr
          </CharString>
          <CharString index="406">
            -72 -87 -57 67 -50 67 71 30 52 56 28 return
          </CharString>
          <CharString index="407">
            -34 -30 -43 hvcurveto
            -129 242 -44 -92 vvcurveto
            return
          </CharString>
          <CharString index="408">
            22 37 -71 callgsubr
            32 return
          </CharString>
          <CharString index="409">
            350 callsubr
            16 return
          </CharString>
          <CharString index="410">
            229 callsubr
            -47 return
          </CharString>
          <CharString index="411">
            92 29 125 return
          </CharString>
          <CharString index="412">
            hlineto
            -50 callgsubr
            -76 -61 -59 return
          </CharString>
          <CharString index="413">
            rmoveto
            -11 -14 -25 -18 -22 40 -52 18 11 7 8 14 25 -28 70 -23 hvcurveto
            return
          </CharString>
          <CharString index="414">
            hmoveto
            -81 callgsubr
            return
          </CharString>
          <CharString index="415">
            25 36 7 9 75 hvcurveto
            120 12 36 5 20 vvcurveto
            275 callsubr
            return
          </CharString>
          <CharString index="416">
            hvcurveto
            275 callgsubr
            return
          </CharString>
          <CharString index="417">
            -37 -129 -49 -49 -81 return
          </CharString>
          <CharString index="418">
            -67 -16 -75 -77 vvcurveto
            -97 return
          </CharString>
          <CharString index="419">
            -45 -36 hvcurveto
            -43 -12 -19 -26 vvcurveto
            -15 6 -12 18 vhcurveto
            0 1 vlineto
            26 return
          </CharString>
          <CharString index="420">
            -32 hvcurveto
            -39 -12 -22 -21 vvcurveto
            -21 8 -13 11 28 29 61 60 69 -34 return
          </CharString>
          <CharString index="421">
            185 179 20 -12 23 -14 19 vhcurveto
            return
          </CharString>
          <CharString index="422">
            70 -45 61 hvcurveto
            return
          </CharString>
          <CharString index="423">
            320 callsubr
            -14 return
          </CharString>
          <CharString index="424">
            334 333 callsubr
            return
          </CharString>
          <CharString index="425">
            39 -60 callsubr
          </CharString>
          <CharString index="426">
            vhcurveto
            73 -432 rmoveto
            -10 -10 -7 -15 -32 -2 -29 -4 -28 hvcurveto
            return
          </CharString>
          <CharString index="427">
            446 74 callgsubr
            return
          </CharString>
          <CharString index="428">
            2 -52 4 callgsubr
            return
          </CharString>
          <CharString index="429">
            rrcurveto
            243 198 callgsubr
            return
          </CharString>
          <CharString index="430">
            107 104 vvcurveto
            30 -6 25 -10 21 vhcurveto
            return
          </CharString>
          <CharString index="431">
            -13 7 -7 14 27 73 77 65 88 return
          </CharString>
          <CharString index="432">
            21 41 205 callgsubr
            return
          </CharString>
          <CharString index="433">
            hlineto
            -1 -11 0 -13 -14 vvcurveto
            return
          </CharString>
          <CharString index="434">
            9 22 vvcurveto
            16 -21 10 -39 return
          </CharString>
          <CharString index="435">
            -21 -65 -9 -72 -75 vvcurveto
            return
          </CharString>
          <CharString index="436">
            241 callgsubr
            -84 return
          </CharString>
          <CharString index="437">
            vvcurveto
            -43 34 -26 59 return
          </CharString>
          <CharString index="438">
            1 2 0 1 return
          </CharString>
          <CharString index="439">
            103 callsubr
            75 8 return
          </CharString>
          <CharString index="440">
            630 rmoveto
            13 6 -6 -13 -55 -91 -62 -66 -5 -6 1 return
          </CharString>
          <CharString index="441">
            144 -102 callgsubr
          </CharString>
          <CharString index="442">
            -32 -14 61 62 return
          </CharString>
          <CharString index="443">
            vvcurveto
            -24 24 -18 14 28 34 -71 callgsubr
            32 vhcurveto
            return
          </CharString>
          <CharString index="444">
            hlineto
            -21 -63 -13 -77 -65 vvcurveto
            -102 31 -101 82 48 60 return
          </CharString>
          <CharString index="445">
            vvcurveto
            -33 38 -36 31 113 133 49 87 93 vhcurveto
            return
          </CharString>
          <CharString index="446">
            -106 callsubr
            344 hlineto
            return
          </CharString>
          <CharString index="447">
            7 -14 vhcurveto
            -41 -68 -89 -151 hhcurveto
            -36 -18 9 27 return
          </CharString>
          <CharString index="448">
            360 callsubr
            -13 -10 -19 return
          </CharString>
          <CharString index="449">
            -8 -18 vhcurveto
            -298 -116 -356 -36 vvcurveto
            -21 return
          </CharString>
          <CharString index="450">
            -60 -28 -34 -271 -92 -32 vvcurveto
            -10 10 -5 21 return
          </CharString>
          <CharString index="451">
            93 39 72 78 45 24 -21 -46 -56 -37 -55 45 return
          </CharString>
          <CharString index="452">
            365 callsubr
            16 -5 return
          </CharString>
          <CharString index="453">
            hhcurveto
            -45 -45 -12 -24 -34 67 20 135 -35 hvcurveto
            return
          </CharString>
          <CharString index="454">
            44 46 28 59 60 -23 callsubr
            return
          </CharString>
          <CharString index="455">
            vlineto
            -105 callgsubr
            endchar
          </CharString>
          <CharString index="456">
            hlineto
            -47 -56 -34 -68 -60 return
          </CharString>
          <CharString index="457">
            vvcurveto
            -12 8 -10 return
          </CharString>
          <CharString index="458">
            hhcurveto
            -31 -13 66 58 63 16 81 25 67 hvcurveto
            return
          </CharString>
          <CharString index="459">
            hvcurveto
            366 callsubr
            return
          </CharString>
          <CharString index="460">
            25 26 -18 19 -26 -25 -19 -19 -26 -25 19 return
          </CharString>
          <CharString index="461">
            rrcurveto
            -40 -9 -35 4 -19 vvcurveto
            -17 37 -26 33 return
          </CharString>
          <CharString index="462">
            -29 hhcurveto
            116 callgsubr
            return
          </CharString>
          <CharString index="463">
            rrcurveto
            -8 -33 -8 -42 -24 vvcurveto
            -17 5 -14 14 return
          </CharString>
          <CharString index="464">
            rmoveto
            -12 -65 -12 -64 -13 -66 return
          </CharString>
          <CharString index="465">
            1 -87 68 -58 72 -9 -17 return
          </CharString>
          <CharString index="466">
            72 79 39 52 56 return
          </CharString>
          <CharString index="467">
            57 -10 48 -37 -18 return
          </CharString>
          <CharString index="468">
            57 58 -1 40 hhcurveto
            return
          </CharString>
          <CharString index="469">
            65 23 11 11 15 return
          </CharString>
          <CharString index="470">
            -47 -10 vhcurveto
            87 return
          </CharString>
          <CharString index="471">
            -14 43 62 112 45 76 13 42 vhcurveto
            return
          </CharString>
          <CharString index="472">
            146 callgsubr
            -103 hlineto
            -7 return
          </CharString>
          <CharString index="473">
            15 61 9 64 59 vvcurveto
            81 -26 92 -90 return
          </CharString>
          <CharString index="474">
            hmoveto
            -107 callsubr
            return
          </CharString>
          <CharString index="475">
            -100 115 -116 66 23 11 12 15 return
          </CharString>
          <CharString index="476">
            22 15 vvcurveto
            66 -204 106 -58 1 vhcurveto
            return
          </CharString>
          <CharString index="477">
            -76 75 -39 113 25 23 2 4 21 return
          </CharString>
        <CharString name=".notdef">
          219 173 hmoveto
          406 701 -406 hlineto
          63 -59 rmoveto
          280 -583 -280 hlineto
          endchar
        </CharString>
        <CharString name="A">
          75 237 342 -95 callgsubr
        </CharString>
        <CharString name="AE">
          298 421 385 rmoveto
          -70 -9 -72 -11 -54 -11 49 118 50 116 18 19 10 12 47 6 71 4 -3 -76 -22 -86 -24 -82 rrcurveto
          185 246 rmoveto
          152 74 13 22 23 -49 16 -239 -165 -92 -9 -50 -29 hvcurveto
          -27 -46 -53 -136 -38 -96 rrcurveto
          -55 -140 -67 -138 -23 vvcurveto
          -28 26 -26 21 23 48 126 139 57 vhcurveto
          36 3 81 16 88 11 rrcurveto
          -25 -81 -21 -73 -49 vvcurveto
          -48 54 -42 61 136 188 291 callgsubr
          -10 vhcurveto
          -25 -126 -49 -155 hhcurveto
          -16 -12 10 17 32 25 76 26 87 hvcurveto
          157 19 93 9 27 vvcurveto
          23 -31 8 -48 -26 -56 -4 -7 -67 vhcurveto
          23 78 18 79 59 vvcurveto
          7 -1 6 -2 6 vhcurveto
          endchar
        </CharString>
        <CharString name="Aacute">
          75 380 783 122 callgsubr
          -143 -441 -95 callgsubr
        </CharString>
        <CharString name="Abreve">
          75 399 788 rmoveto
          71 82 63 43 15 -7 8 -16 hvcurveto
          -34 -19 -61 -65 -74 5 96 -29 hhcurveto
          -18 -27 -19 -36 -48 63 -61 68 hvcurveto
          -162 -446 -95 callgsubr
        </CharString>
        <CharString name="Acircumflex">
          75 249 794 79 callgsubr
          -12 -452 -95 callgsubr
        </CharString>
        <CharString name="Adieresis">
          75 483 799 25 callsubr
          -96 -457 -95 callgsubr
        </CharString>
        <CharString name="Agrave">
          75 331 836 -37 callsubr
          -94 -494 -95 callgsubr
        </CharString>
        <CharString name="Amacron">
          75 255 230 callgsubr
          -18 -457 -95 callgsubr
        </CharString>
        <CharString name="Aogonek">
          75 237 342 rmoveto
          36 96 39 102 40 91 14 -70 11 -91 10 -96 -48 -8 -53 -11 -49 -13 rrcurveto
          327 21 rmoveto
          21 -17 5 -28 -13 -17 -1 -2 -19 vhcurveto
          172 -18 -33 172 -44 hhcurveto
          -34 -42 -28 -40 -17 hvcurveto
          -26 -65 -48 -113 -41 -103 -8 -22 -9 -22 -9 -21 rrcurveto
          -59 -19 -40 -19 -14 vvcurveto
          -26 26 -19 25 vhcurveto
          2 2 0 3 hhcurveto
          -32 -74 -25 -57 -11 vvcurveto
          -32 34 -29 18 16 39 99 131 50 vhcurveto
          25 7 29 8 35 10 35 9 36 9 34 9 6 -65 5 -64 4 -59 3 -26 4 -20 4 -15 rrcurveto
          -49 -21 -75 -91 -55 58 callgsubr
          hvcurveto
          44 95 35 45 vvcurveto
          2 0 2 -1 1 vhcurveto
          9 19 4 36 55 vvcurveto
          49 -3 63 -5 65 vhcurveto
          52 15 36 15 14 vvcurveto
          endchar
        </CharString>
        <CharString name="Aring">
          75 401 911 193 callgsubr
          -151 -430 -95 callgsubr
        </CharString>
        <CharString name="Atilde">
          75 254 787 rmoveto
          35 7 58 23 47 hvcurveto
          27 callsubr
          -19 14 -11 19 hvcurveto
          -17 -445 -95 callgsubr
        </CharString>
        <CharString name="B">
          104 153 96 rmoveto
          10 11 14 41 23 84 12 44 11 42 10 39 rrcurveto
          -14 10 20 -14 17 hhcurveto
          81 127 -28 -43 -78 -193 -80 -142 -4 hvcurveto
          211 536 rmoveto
          63 54 -25 -45 -71 -100 -36 -70 -27 hvcurveto
          -26 -11 -25 -10 -16 -10 rrcurveto
          21 83 14 64 23 vvcurveto
          14 -13 23 -15 16 vhcurveto
          6 34 39 6 40 hhcurveto
          9 -253 rmoveto
          130 41 68 68 79 vvcurveto
          96 -107 52 -185 -81 -64 -19 -23 -16 30 -43 26 vhcurveto
          8 hlineto
          -2 -174 -98 -235 -45 vvcurveto
          -27 22 -28 17 -9 vhcurveto
          2 -67 -28 42 -19 hhcurveto
          -9 -8 -9 -17 -38 68 -59 84 205 212 115 122 61 -79 56 -114 7 hvcurveto
          endchar
        </CharString>
        <CharString name="C">
          66 470 718 46 callgsubr
        </CharString>
        <CharString name="CR">
          -132 endchar
        </CharString>
        <CharString name="Cacute">
          152 483 812 -65 callsubr
          -12 -94 46 callgsubr
        </CharString>
        <CharString name="Ccaron">
          159 504 853 rmoveto
          -42 callgsubr
          228 callgsubr
          vhcurveto
          -33 -135 46 callgsubr
        </CharString>
        <CharString name="Ccedilla">
          70 241 -33 rmoveto
          11 20 9 19 6 15 rrcurveto
          114 5 161 108 45 vvcurveto
          12 -8 10 -6 vhcurveto
          -30 -94 -87 -146 hhcurveto
          -53 -46 33 64 178 213 235 106 hvcurveto
          31 18 -15 17 hhcurveto
          4 4 3 13 35 -46 58 -35 -186 -219 -313 -190 -78 65 -77 73 -28 hvcurveto
          -15 -37 -25 -43 -18 10 callgsubr
        </CharString>
        <CharString name="D">
          80 callgsubr
          endchar
        </CharString>
        <CharString name="Dcaron">
          80 callgsubr
          453 169 rmoveto
          228 callgsubr
          hvcurveto
          -42 callgsubr
          vhcurveto
          endchar
        </CharString>
        <CharString name="Dcroat">
          92 212 288 rmoveto
          11 1 rlineto
          76 9 59 9 21 vvcurveto
          28 -35 15 -44 -7 -16 -2 -2 -21 vhcurveto
          31 105 16 65 36 114 callsubr
          6 41 12 60 13 44 rrcurveto
          -85 103 rmoveto
          -67 -7 -41 -11 -24 vvcurveto
          -27 24 -15 34 8 20 3 3 25 vhcurveto
          -20 -74 -16 -63 -31 141 callsubr
          -12 -8 -6 -14 -23 26 -32 44 -18 vhcurveto
          -5 -63 -29 -108 -29 -102 rrcurveto
          endchar
        </CharString>
        <CharString name="E">
          52 267 615 -83 callsubr
        </CharString>
        <CharString name="Eacute">
          52 418 783 122 callgsubr
          -151 -168 -83 callsubr
        </CharString>
        <CharString name="Ecaron">
          52 406 774 46 callsubr
          -139 -159 -83 callsubr
        </CharString>
        <CharString name="Ecircumflex">
          52 287 794 79 callgsubr
          -20 -179 -83 callsubr
        </CharString>
        <CharString name="Edieresis">
          52 521 799 25 callsubr
          -104 -184 -83 callsubr
        </CharString>
        <CharString name="Edotaccent">
          52 441 788 97 callsubr
          -174 -173 -83 callsubr
        </CharString>
        <CharString name="Egrave">
          52 369 836 -37 callsubr
          -102 -221 -83 callsubr
        </CharString>
        <CharString name="Emacron">
          52 293 230 callgsubr
          -26 -184 -83 callsubr
        </CharString>
        <CharString name="Eogonek">
          52 267 615 rmoveto
          29 5 38 8 44 5 rrcurveto
          131 15 96 -1 34 vvcurveto
          23 -87 6 -114 -154 -53 -13 -24 -11 vhcurveto
          -2 -6 -2 -7 -10 -181 -119 -249 -115 vvcurveto
          -48 54 -42 61 61 71 13 18 60 vhcurveto
          -16 -25 -10 -25 -21 58 callgsubr
          hvcurveto
          44 95 35 45 vvcurveto
          14 -13 10 -13 2 vhcurveto
          1 -2 -2 1 -3 -25 -125 -49 -156 hhcurveto
          -15 -12 10 17 34 27 81 27 92 hvcurveto
          123 149 18 51 9 -13 5 -21 hvcurveto
          -59 -39 -10 -96 hhcurveto
          -8 -8 0 1 -6 hvcurveto
          20 74 17 75 56 vvcurveto
          endchar
        </CharString>
        <CharString name="Eth">
          86 229 287 rmoveto
          33 5 32 6 20 6 rrcurveto
          25 6 12 10 11 vvcurveto
          22 -36 15 -31 -9 -11 0 -1 -13 vhcurveto
          27 94 15 60 34 114 callsubr
          6 41 12 60 13 44 rrcurveto
          -47 472 rmoveto
          -12 -8 -6 -14 -23 26 -32 44 -18 hvcurveto
          -5 -59 -25 -98 -27 -96 -35 -5 -36 -6 -30 -6 rrcurveto
          -24 -5 -19 -10 -17 vvcurveto
          -25 47 -12 22 8 19 2 2 25 vhcurveto
          -22 -82 -19 -71 -34 141 callsubr
          vhcurveto
          endchar
        </CharString>
        <CharString name="Euro">
          20 205 209 rmoveto
          189 26 104 18 28 vvcurveto
          18 -37 7 -44 -42 -95 -8 -11 -87 vhcurveto
          7 27 11 27 15 27 28 2 rcurveline
          156 11 114 10 26 vvcurveto
          26 -65 10 -83 -21 -35 -1 -2 -39 vhcurveto
          79 64 82 59 59 29 12 -30 16 hhcurveto
          11 11 16 18 35 -41 50 -38 -119 -119 -107 -127 -74 hvcurveto
          -65 -6 -54 -11 -15 vvcurveto
          -19 22 -37 19 12 12 1 1 12 vhcurveto
          -11 -28 -8 -28 -6 -27 rrcurveto
          -54 -9 -38 -11 -9 vvcurveto
          -17 23 -37 18 15 14 1 2 15 vhcurveto
          -100 6 70 -79 119 hhcurveto
          109 151 91 43 12 -6 11 -11 hvcurveto
          -36 -79 -70 -125 hhcurveto
          -70 -35 43 61 -7 hvcurveto
          endchar
        </CharString>
        <CharString name="F">
          -10 197 313 rmoveto
          129 147 30 43 9 -15 7 -23 -39 -45 -9 -1 -81 hvcurveto
          -20 -1 -17 1 -19 1 rrcurveto
          21 91 18 87 38 vvcurveto
          3 0 3 -1 3 vhcurveto
          30 3 41 6 50 5 rrcurveto
          120 13 96 2 28 vvcurveto
          25 -87 13 -103 -147 -59 -11 -28 -13 vhcurveto
          -4 -5 -3 -8 -11 vvcurveto
          -3 -136 -114 -369 -55 vvcurveto
          -23 37 -51 18 13 16 75 86 22 vhcurveto
          9 37 12 48 12 51 rrcurveto
          endchar
        </CharString>
        <CharString name="G">
          78 461 624 rmoveto
          271 callsubr
          25 callgsubr
          endchar
        </CharString>
        <CharString name="Gbreve">
          78 453 717 rmoveto
          25 callgsubr
          271 callsubr
          hvcurveto
          201 193 rmoveto
          -34 -19 -61 -65 131 callsubr
          endchar
        </CharString>
        <CharString name="H">
          137 205 300 rmoveto
          31 7 36 8 42 8 57 10 52 7 45 6 rrcurveto
          -31 -120 -29 -109 -30 vvcurveto
          -33 34 -37 17 18 25 125 125 34 vhcurveto
          25 93 rlineto
          39 8 23 9 16 vvcurveto
          16 -18 8 -28 4 vhcurveto
          27 102 18 79 25 vvcurveto
          44 -43 49 -20 -15 -5 -8 -22 -51 -24 -106 -27 -110 vhcurveto
          -66 -4 -106 -13 -87 -18 rrcurveto
          30 118 19 93 28 vvcurveto
          44 -41 49 -20 -15 -5 -7 -23 -60 -34 -136 -33 -129 vhcurveto
          -32 -10 -20 -10 -9 vvcurveto
          -22 15 -18 17 -6 vhcurveto
          -24 -94 -20 -80 -28 vvcurveto
          -25 38 -46 16 17 25 125 125 34 vhcurveto
          endchar
        </CharString>
        <CharString name="I">
          -28 callgsubr
          endchar
        </CharString>
        <CharString name="Iacute">
          -28 callgsubr
          175 728 -65 callsubr
          endchar
        </CharString>
        <CharString name="Icircumflex">
          -28 callgsubr
          216 877 rmoveto
          -31 callsubr
          220 callgsubr
          endchar
        </CharString>
        <CharString name="Idieresis">
          -28 callgsubr
          122 841 -18 callgsubr
          endchar
        </CharString>
        <CharString name="Idotaccent">
          -28 callgsubr
          224 704 97 callsubr
          endchar
        </CharString>
        <CharString name="Igrave">
          -28 callgsubr
          152 752 -37 callsubr
          endchar
        </CharString>
        <CharString name="Imacron">
          -28 callgsubr
          368 768 40 callsubr
          endchar
        </CharString>
        <CharString name="Iogonek">
          -223 134 38 rmoveto
          18 43 23 108 26 103 rrcurveto
          42 171 30 126 36 vvcurveto
          44 -43 49 -21 -16 -5 -8 -22 vhcurveto
          -1 -112 -119 -433 -59 vvcurveto
          -6 2 -7 4 -7 vhcurveto
          -49 -28 -66 -83 -52 58 callgsubr
          41 84 34 10 41 hvcurveto
          endchar
        </CharString>
        <CharString name="J">
          -65 8 165 rmoveto
          -48 99 -104 90 102 25 91 286 78 vhcurveto
          43 150 52 118 33 vvcurveto
          24 -25 9 -20 -56 -251 -52 -52 -14 13 -11 24 33 99 32 13 87 vhcurveto
          -25 -41 -27 -87 -22 -79 rrcurveto
          -244 -66 -29 -94 -47 -76 -57 99 -26 hhcurveto
          -12 -6 -9 -20 hvcurveto
          endchar
        </CharString>
        <CharString name="K">
          58 105 20 63 callgsubr
        </CharString>
        <CharString name="L">
          13 220 725 5 callsubr
        </CharString>
        <CharString name="Lacute">
          13 303 812 -65 callsubr
          -83 -87 5 callsubr
        </CharString>
        <CharString name="Lcaron">
          13 334 526 rmoveto
          -13 10 -5 12 46 94 65 74 40 -37 33 -40 -22 -28 -22 -22 -27 34 5 18 -26 vhcurveto
          265 callgsubr
          -114 199 5 callsubr
        </CharString>
        <CharString name="Lslash">
          -19 227 376 rmoveto
          107 39 36 15 20 vvcurveto
          11 -10 4 -16 -12 -42 -7 -12 -50 vhcurveto
          24 86 17 74 41 vvcurveto
          40 -41 38 -20 -17 -4 -9 -21 -58 -28 -107 -31 -108 vhcurveto
          -67 -19 -58 -21 -16 vvcurveto
          -16 29 -22 24 7 19 5 7 23 vhcurveto
          -29 -101 -26 -90 -40 vvcurveto
          -48 55 -44 64 138 173 59 57 12 -2 5 -14 vhcurveto
          -26 -118 -49 -154 hhcurveto
          -15 -11 8 16 21 11 44 32 103 hvcurveto
          8 27 8 27 8 26 rrcurveto
          endchar
        </CharString>
        <CharString name="M">
          256 206 718 rmoveto
          -17 -4 -8 -22 hvcurveto
          -117 -129 -409 -72 vvcurveto
          -24 32 -46 16 14 32 123 124 35 vhcurveto
          17 62 24 100 12 76 36 -114 39 -100 22 -32 rrcurveto
          -21 16 21 -10 18 hhcurveto
          41 69 91 229 183 hvcurveto
          -56 -152 -53 -234 -64 vvcurveto
          -42 22 -36 18 22 22 134 155 41 vhcurveto
          44 157 40 127 54 vvcurveto
          28 -35 32 -22 -42 -121 -182 -195 -164 vhcurveto
          -57 122 -54 142 -5 49 rrcurveto
          31 -3 -59 44 -15 hhcurveto
          endchar
        </CharString>
        <CharString name="N">
          144 583 723 -48 callgsubr
          endchar
        </CharString>
        <CharString name="NULL">
          endchar
        </CharString>
        <CharString name="Nacute">
          144 401 812 -65 callsubr
          182 -89 -48 callgsubr
          endchar
        </CharString>
        <CharString name="Ncaron">
          144 422 853 rmoveto
          -42 callgsubr
          228 callgsubr
          vhcurveto
          161 -130 -48 callgsubr
          endchar
        </CharString>
        <CharString name="Ntilde">
          144 583 723 -48 callgsubr
          -315 94 rmoveto
          -19 14 -11 19 35 7 58 23 47 vhcurveto
          27 callsubr
          hvcurveto
          endchar
        </CharString>
        <CharString name="O">
          123 callsubr
          endchar
        </CharString>
        <CharString name="OE">
          407 486 377 rmoveto
          -134 -44 -133 -147 -84 hhcurveto
          -40 -40 47 77 196 177 221 80 47 51 -61 -118 -19 -3 -21 -5 -20 hvcurveto
          46 245 rmoveto
          47 -35 -49 32 -58 hhcurveto
          -142 -200 -256 -252 -82 72 -115 93 70 70 37 56 60 hvcurveto
          -5 vlineto
          -48 54 -42 61 137 187 291 callgsubr
          -10 vhcurveto
          -25 -126 -49 -155 hhcurveto
          -15 -13 10 17 33 27 81 27 91 hvcurveto
          1 2 rlineto
          123 149 18 51 9 -13 5 -22 hvcurveto
          -59 -38 -10 -96 hhcurveto
          -8 -8 0 1 -6 hvcurveto
          20 74 17 75 56 vvcurveto
          3 vlineto
          29 5 37 8 45 5 rrcurveto
          131 15 95 -1 34 vvcurveto
          23 -86 6 -114 -144 -55 -11 -22 -16 vhcurveto
          -5 -5 -3 -9 -13 vvcurveto
          endchar
        </CharString>
        <CharString name="Oacute">
          80 456 812 -65 callsubr
          -237 -795 -61 callsubr
          endchar
        </CharString>
        <CharString name="Ocircumflex">
          80 497 961 rmoveto
          -31 callsubr
          220 callgsubr
          -278 -944 -61 callsubr
          endchar
        </CharString>
        <CharString name="Odieresis">
          80 403 925 -18 callgsubr
          -335 -908 -61 callsubr
          endchar
        </CharString>
        <CharString name="Ograve">
          123 callsubr
          -67 378 -37 callsubr
          endchar
        </CharString>
        <CharString name="Ohungarumlaut">
          80 419 903 -12 callsubr
          -346 -875 -61 callsubr
          endchar
        </CharString>
        <CharString name="Omacron">
          80 649 852 40 callsubr
          -430 -835 -61 callsubr
          endchar
        </CharString>
        <CharString name="Oslash">
          80 505 458 rmoveto
          -147 -173 -215 -102 -21 -22 13 23 -16 vhcurveto
          65 82 102 128 160 183 rrcurveto
          4 -19 3 -23 -25 vvcurveto
          -360 -238 rmoveto
          196 177 221 80 23 24 -14 -28 20 vhcurveto
          -60 -68 -70 -89 -66 -82 -43 -53 -45 -54 -39 -48 rrcurveto
          -1 6 0 6 7 vvcurveto
          436 399 rmoveto
          34 37 9 22 14 vvcurveto
          14 -10 9 -14 -14 -26 -21 -34 -33 vhcurveto
          38 -35 -45 24 -51 hhcurveto
          -142 -200 -256 -252 -30 10 -34 17 -31 hvcurveto
          -27 -37 -18 -27 -11 vvcurveto
          -16 10 -13 17 10 16 17 36 30 vhcurveto
          -30 29 37 -21 40 hhcurveto
          188 184 266 187 46 -11 46 -20 40 hvcurveto
          endchar
        </CharString>
        <CharString name="Otilde">
          123 callsubr
          -177 359 rmoveto
          -19 14 -11 19 35 7 58 23 47 vhcurveto
          27 callsubr
          hvcurveto
          endchar
        </CharString>
        <CharString name="P">
          10 204 340 rmoveto
          35 129 14 68 40 vvcurveto
          14 -4 14 -6 13 vhcurveto
          13 29 38 17 45 hhcurveto
          65 51 -42 -59 -84 -109 -81 -158 -42 hvcurveto
          355 213 rmoveto
          106 -92 71 -127 353 callgsubr
          -8 -182 -115 -290 -68 vvcurveto
          -25 33 -39 19 15 36 125 122 36 vhcurveto
          217 42 160 100 149 vvcurveto
          endchar
        </CharString>
        <CharString name="Q">
          108 247 96 rmoveto
          -44 -58 47 78 115 58 126 67 83 hvcurveto
          -5 -21 -2 -22 -25 vvcurveto
          -83 31 -138 40 -125 vhcurveto
          -22 -30 -30 -13 -27 hhcurveto
          269 365 rmoveto
          -87 -53 -107 -65 -76 vhcurveto
          -29 97 -24 115 128 vvcurveto
          43 8 33 15 21 vhcurveto
          5 12 12 3 11 hhcurveto
          49 64 -61 -114 hvcurveto
          91 9 rmoveto
          127 -97 122 -114 -144 -195 -248 -257 -99 93 -95 93 41 40 12 20 38 vhcurveto
          -108 41 45 -83 32 hhcurveto
          15 10 6 17 33 -38 75 -38 106 hvcurveto
          105 92 73 156 124 vvcurveto
          endchar
        </CharString>
        <CharString name="R">
          51 241 607 57 callsubr
        </CharString>
        <CharString name="Racute">
          42 204 352 rmoveto
          32 114 10 63 38 vvcurveto
          13 -4 14 -6 13 vhcurveto
          12 31 38 13 45 hhcurveto
          65 43 -20 -42 -112 -191 -57 -63 -49 hvcurveto
          -15 -53 -33 callgsubr
          347 716 12 callgsubr
        </CharString>
        <CharString name="Rcaron">
          42 381 774 46 callsubr
          -177 -422 rmoveto
          32 114 10 63 38 vvcurveto
          13 -4 14 -6 13 vhcurveto
          12 31 38 13 45 hhcurveto
          65 43 -20 -42 -112 -191 -57 -63 -49 hvcurveto
          -15 -53 113 callgsubr
        </CharString>
        <CharString name="S">
          -2 468 214 rmoveto
          -19 callgsubr
          -51 85 -92 124 140 114 83 110 hvcurveto
          endchar
        </CharString>
        <CharString name="Sacute">
          -7 382 812 -65 callsubr
          86 -598 rmoveto
          -19 callgsubr
          -51 85 -92 124 140 114 83 110 hvcurveto
          endchar
        </CharString>
        <CharString name="Scaron">
          -7 403 853 rmoveto
          -42 callgsubr
          228 callgsubr
          vhcurveto
          65 -639 rmoveto
          -19 callgsubr
          -51 85 -92 124 140 114 83 110 hvcurveto
          endchar
        </CharString>
        <CharString name="T">
          2 373 714 32 callgsubr
        </CharString>
        <CharString name="Tcaron">
          -12 333 733 46 callsubr
          27 -19 32 callgsubr
        </CharString>
        <CharString name="Thorn">
          -30 214 264 rmoveto
          -11 -1 -10 -1 -11 1 16 61 15 63 13 55 rrcurveto
          10 23 23 6 21 hhcurveto
          48 46 -29 -44 -62 -87 -53 -86 -6 hvcurveto
          87 284 rmoveto
          -16 -20 -3 -5 -20 hvcurveto
          4 23 2 18 11 vvcurveto
          55 -50 34 -20 -19 -4 -9 -22 vhcurveto
          -191 -107 -314 -67 vvcurveto
          -24 27 -39 20 19 19 73 96 26 vhcurveto
          18 20 1 2 18 hvcurveto
          133 12 120 80 107 vvcurveto
          77 -91 85 -79 vhcurveto
          endchar
        </CharString>
        <CharString name="U">
          65 189 33 callsubr
          endchar
        </CharString>
        <CharString name="Uacute">
          59 336 812 -65 callsubr
          -152 -93 -64 callsubr
          endchar
        </CharString>
        <CharString name="Ucircumflex">
          59 377 961 rmoveto
          -31 callsubr
          220 callgsubr
          -193 -242 -64 callsubr
          endchar
        </CharString>
        <CharString name="Udieresis">
          59 283 925 -18 callgsubr
          -250 -206 -64 callsubr
          endchar
        </CharString>
        <CharString name="Ugrave">
          28 callsubr
          129 117 -37 callsubr
          endchar
        </CharString>
        <CharString name="Uhungarumlaut">
          28 callsubr
          115 184 -12 callsubr
          endchar
        </CharString>
        <CharString name="Umacron">
          28 callsubr
          345 133 40 callsubr
          endchar
        </CharString>
        <CharString name="Uogonek">
          46 279 17 rmoveto
          156 40 129 252 287 vvcurveto
          81 -60 42 -23 -14 -4 -6 -15 vhcurveto
          -31 9 -31 -74 vvcurveto
          -252 -142 -214 -86 -46 -30 51 75 vhcurveto
          109 81 218 87 vvcurveto
          43 -46 40 -19 -16 -4 -8 -22 vhcurveto
          -126 -84 -196 -161 vvcurveto
          -74 42 -78 61 -30 vhcurveto
          -36 -37 -32 -51 -36 58 callgsubr
          34 58 29 25 33 hvcurveto
          endchar
        </CharString>
        <CharString name="Uring">
          59 291 858 192 callsubr
          -226 -155 -64 callsubr
          endchar
        </CharString>
        <CharString name="V">
          -1 545 718 rmoveto
          -43 -171 -333 -238 -84 hvcurveto
          -52 199 -13 238 -18 58 rrcurveto
          45 -17 -34 31 -27 hhcurveto
          -11 -6 -9 -22 -69 80 -446 38 -95 hvcurveto
          -32 13 26 -32 17 hhcurveto
          39 41 133 211 106 hvcurveto
          95 191 69 89 45 vvcurveto
          18 -27 18 -21 vhcurveto
          endchar
        </CharString>
        <CharString name="W">
          249 498 719 rmoveto
          -32 -16 -7 -22 -20 35 -43 39 84 38 -120 -103 -142 -62 -149 -77 hvcurveto
          -73 24 300 -57 hhcurveto
          -45 -123 -145 -133 -79 hvcurveto
          15 190 60 267 49 vvcurveto
          36 -54 41 -27 -13 -9 -9 -28 vhcurveto
          -209 -54 -252 -118 vvcurveto
          -45 40 -38 18 27 41 36 118 85 vhcurveto
          31 43 28 39 30 42 rrcurveto
          -161 11 31 -116 91 hhcurveto
          124 106 188 184 175 -72 152 -165 hvcurveto
          endchar
        </CharString>
        <CharString name="X">
          91 312 420 rmoveto
          -51 90 -39 91 70 vvcurveto
          27 -50 21 -36 -11 -3 -12 -15 -73 61 -140 74 -133 vhcurveto
          -92 -120 -83 -98 -33 -36 rrcurveto
          -16 -17 -8 -5 -12 vvcurveto
          -16 29 -22 20 45 66 97 152 116 vhcurveto
          -137 83 88 -113 34 hhcurveto
          12 14 10 23 35 -91 121 -83 134 hvcurveto
          114 147 67 86 36 35 rrcurveto
          27 26 24 7 16 vvcurveto
          19 -37 37 -15 -36 -46 -43 -216 -154 vhcurveto
          endchar
        </CharString>
        <CharString name="Y">
          26 callsubr
          endchar
        </CharString>
        <CharString name="Yacute">
          26 callsubr
          128 313 -65 callsubr
          endchar
        </CharString>
        <CharString name="Ydieresis">
          26 callsubr
          75 426 -18 callgsubr
          endchar
        </CharString>
        <CharString name="Z">
          87 467 680 -22 callgsubr
          endchar
        </CharString>
        <CharString name="Zacute">
          87 376 812 -65 callsubr
          91 -132 -22 callgsubr
          endchar
        </CharString>
        <CharString name="Zcaron">
          87 397 853 rmoveto
          -42 callgsubr
          228 callgsubr
          vhcurveto
          70 -173 -22 callgsubr
          endchar
        </CharString>
        <CharString name="Zdotaccent">
          87 467 680 -22 callgsubr
          -42 108 97 callsubr
          endchar
        </CharString>
        <CharString name="a">
          -64 343 221 callgsubr
          75 45 rmoveto
          350 callgsubr
          -132 -158 -256 -119 -57 75 -64 60 54 63 52 61 48 vhcurveto
          -65 3 16 -48 24 hhcurveto
          23 -1 57 62 11 hvcurveto
          14 77 8 42 30 vvcurveto
          8 -5 9 -7 9 vhcurveto
          13 20 12 29 22 vvcurveto
          endchar
        </CharString>
        <CharString name="aacute">
          -61 346 334 -74 callsubr
          207 241 12 callgsubr
        </CharString>
        <CharString name="abreve">
          -61 346 334 -74 callsubr
          226 185 rmoveto
          -34 -19 -61 -65 131 callsubr
          endchar
        </CharString>
        <CharString name="acircumflex">
          -61 346 334 -74 callsubr
          158 170 rmoveto
          34 -29 -11 25 -26 hhcurveto
          -31 callsubr
          endchar
        </CharString>
        <CharString name="acute">
          1 687 -65 callsubr
          endchar
        </CharString>
        <CharString name="adieresis">
          -61 330 578 rmoveto
          247 callgsubr
          -21 -23 -30 -22 -27 45 -47 31 hvcurveto
          16 -244 -74 callsubr
          149 193 rmoveto
          -21 -24 -30 -22 -27 46 -47 30 273 callgsubr
          hvcurveto
          endchar
        </CharString>
        <CharString name="ae">
          210 29 138 rmoveto
          -61 73 -62 55 63 53 55 72 54 vhcurveto
          -76 14 68 -51 88 hhcurveto
          289 callgsubr
          -8 8 -18 hvcurveto
          356 callgsubr
          28 9 27 hvcurveto
          -9 38 41 -7 47 hhcurveto
          162 callsubr
          -54 -52 -36 -47 -42 hvcurveto
          44 -20 -45 39 -48 hhcurveto
          -142 -143 -254 -119 hvcurveto
          552 294 rmoveto
          35 39 -48 -33 -39 -56 -23 -83 -22 -29 3 6 -28 hvcurveto
          72 35 57 62 52 hhcurveto
          -213 -87 rmoveto
          -12 -20 -9 -22 -6 -20 rrcurveto
          -117 -57 -70 -68 -61 hhcurveto
          -20 -22 14 24 83 119 209 93 31 12 -30 -53 2 hvcurveto
          endchar
        </CharString>
        <CharString name="agrave">
          -61 346 334 -74 callsubr
          67 170 rmoveto
          39 -39 -18 28 -19 hhcurveto
          -25 -23 -31 -25 -22 32 -18 53 -37 hvcurveto
          -27 40 24 -26 17 hhcurveto
          14 13 14 15 19 -13 12 -56 59 hvcurveto
          endchar
        </CharString>
        <CharString name="amacron">
          -61 346 334 -74 callsubr
          74 131 callgsubr
        </CharString>
        <CharString name="ampersand">
          171 103 112 rmoveto
          28 67 54 79 65 vhcurveto
          18 -32 20 -31 23 -28 rrcurveto
          -46 -72 -67 -35 -40 hhcurveto
          -16 -12 11 14 hvcurveto
          164 375 rmoveto
          62 35 56 51 35 15 -26 -30 -46 -54 -58 -67 -59 vhcurveto
          -10 35 -5 34 32 vvcurveto
          302 -396 rmoveto
          -50 -48 21 35 -42 hvcurveto
          119 80 103 90 26 vvcurveto
          18 -8 15 -23 -18 -114 -89 -80 -117 vhcurveto
          -24 31 -21 35 -17 37 rrcurveto
          94 81 89 90 76 vvcurveto
          48 -23 76 -96 -115 -79 -90 -97 -51 13 -57 23 -56 vhcurveto
          -99 -81 -101 -78 -48 vvcurveto
          -52 63 -62 52 56 91 43 55 90 vhcurveto
          -53 57 66 -34 66 hhcurveto
          68 30 20 27 19 -20 5 -65 hvcurveto
          endchar
        </CharString>
        <CharString name="aogonek">
          -61 346 221 callgsubr
          25 -297 rmoveto
          6 22 2 36 7 38 rrcurveto
          14 77 8 42 30 vvcurveto
          8 -5 9 -7 9 vhcurveto
          13 20 12 29 22 vvcurveto
          350 callgsubr
          -132 -158 -256 -119 -57 75 -64 60 54 63 52 61 48 vhcurveto
          1 -26 4 -23 5 -19 rrcurveto
          -49 -21 -76 -91 -55 58 callgsubr
          44 94 35 1 45 hvcurveto
          endchar
        </CharString>
        <CharString name="apostrophemod">
          203 callsubr
        </CharString>
        <CharString name="approxequal">
          56 53 168 90 callgsubr
          53 230 90 callgsubr
          endchar
        </CharString>
        <CharString name="aring">
          -61 346 334 -74 callsubr
          91 93 rmoveto
          -15 -11 16 20 30 18 20 15 16 11 -16 -21 -29 -17 -20 -17 hvcurveto
          14 142 rmoveto
          -55 -44 -55 -54 -47 34 -39 45 55 44 55 53 48 -34 39 -45 hvcurveto
          endchar
        </CharString>
        <CharString name="asciicircum">
          -111 334 683 rmoveto
          -37 88 -2 32 -18 19 rrcurveto
          12 -11 -34 11 -19 hhcurveto
          -45 -113 -190 -67 -14 19 -17 19 25 13 44 55 30 hvcurveto
          20 37 20 28 27 28 rrcurveto
          -70 34 64 -126 34 hhcurveto
          11 5 4 14 13 -18 40 -24 59 hvcurveto
          endchar
        </CharString>
        <CharString name="asciitilde">
          61 80 273 90 callgsubr
          endchar
        </CharString>
        <CharString name="asterisk">
          -176 381 726 rmoveto
          13 -18 13 -12 -13 -37 -41 -25 -40 vhcurveto
          7 25 11 35 10 vvcurveto
          16 -27 21 -12 -9 -4 -3 -12 -13 1 -44 -1 -34 vhcurveto
          -18 9 -29 35 -4 8 rrcurveto
          13 -6 -32 6 -19 hhcurveto
          -10 0 -5 -7 -16 65 -51 39 -15 hvcurveto
          -43 -27 -69 -20 -11 vvcurveto
          -11 13 -12 12 10 62 33 22 23 vhcurveto
          -6 -28 -18 -48 -11 vvcurveto
          -9 12 -13 10 14 16 76 31 4 vhcurveto
          -26 30 41 -26 15 hhcurveto
          9 13 9 9 11 -58 23 -32 27 hvcurveto
          40 17 70 37 9 vvcurveto
          endchar
        </CharString>
        <CharString name="at">
          432 605 354 rmoveto
          -10 -1 -5 -6 -2 -8 rrcurveto
          -124 -29 -107 -92 -54 hhcurveto
          -23 -25 18 25 79 131 201 78 26 16 -40 -45 4 hvcurveto
          2 369 rmoveto
          -340 -224 -346 -257 -159 126 -133 173 107 164 55 57 10 -4 4 -9 hvcurveto
          -29 -78 -48 -152 hhcurveto
          -132 -75 87 129 227 203 294 272 151 66 -107 -136 -144 -116 -114 -47 -21 -10 20 17 hvcurveto
          40 33 50 27 vvcurveto
          11 -7 11 -8 9 vhcurveto
          11 16 10 23 21 vvcurveto
          51 -56 77 -62 -129 -153 -239 -116 -55 74 -63 59 45 57 42 52 49 vhcurveto
          -41 9 31 -32 43 hhcurveto
          117 158 163 180 181 -116 136 -190 hvcurveto
          endchar
        </CharString>
        <CharString name="atilde">
          -61 346 334 -74 callsubr
          228 191 rmoveto
          -37 -7 -63 -7 -35 hvcurveto
          7 -35 -8 75 -70 hhcurveto
          -54 -64 -70 -48 -19 14 -11 19 35 7 58 23 47 hvcurveto
          -55 36 38 -33 38 hhcurveto
          52 49 65 45 21 -9 12 -16 hvcurveto
          endchar
        </CharString>
        <CharString name="b">
          -8 233 92 rmoveto
          -29 -38 19 41 -32 hvcurveto
          141 65 107 133 81 hhcurveto
          27 9 -23 -36 -133 -105 -142 -85 hvcurveto
          -127 -11 rmoveto
          1 2 rlineto
          -43 41 46 -26 51 hhcurveto
          135 126 211 140 72 -47 77 -65 -68 -79 -68 -93 -69 hvcurveto
          39 165 15 137 49 vvcurveto
          40 -42 358 callgsubr
          -297 -126 -324 -65 vvcurveto
          -23 33 -37 19 8 11 27 40 13 vhcurveto
          endchar
        </CharString>
        <CharString name="backslash">
          67 305 290 rmoveto
          -276 114 39 -91 16 hhcurveto
          16 31 39 18 49 -133 314 -183 424 hvcurveto
          20 -9 -1 9 -14 hhcurveto
          -15 -42 -52 -29 -54 99 -174 82 -197 hvcurveto
          endchar
        </CharString>
        <CharString name="bar">
          -165 122 -135 rmoveto
          20 75 376 122 29 hvcurveto
          37 156 44 189 33 vvcurveto
          40 -45 47 -20 -18 -4 -9 -21 vhcurveto
          -100 -173 -718 -54 vvcurveto
          -22 36 -39 19 vhcurveto
          endchar
        </CharString>
        <CharString name="braceleft">
          -112 183 338 rmoveto
          74 43 53 50 59 -44 46 -1 112 hvcurveto
          83 58 39 55 58 7 -32 -47 -26 1 -16 13 21 26 44 32 68 -55 59 -81 -97 -87 -70 -106 vhcurveto
          -108 47 -64 -52 vvcurveto
          -33 -22 -21 -36 vhcurveto
          -32 -34 36 -19 hhcurveto
          -8 -5 -14 -9 -18 11 -18 17 -14 hvcurveto
          7 -11 8 -13 -12 -100 -67 -51 -112 vvcurveto
          -88 72 -79 97 48 46 24 27 21 -16 6 -42 -79 -38 26 63 vhcurveto
          106 54 51 72 vvcurveto
          14 -2 12 -3 11 vhcurveto
          endchar
        </CharString>
        <CharString name="braceright">
          5 424 370 rmoveto
          -16 2 -17 1 -15 3 rrcurveto
          -23 7 -18 17 26 69 183 90 129 vvcurveto
          70 -91 78 -81 -80 -92 -61 -45 -15 30 -34 16 vhcurveto
          27 23 82 68 hhcurveto
          50 40 -34 -48 hvcurveto
          -99 -175 -93 -92 vvcurveto
          -47 32 -37 40 -19 vhcurveto
          -101 -74 58 -242 -101 -85 9 45 -38 hhcurveto
          -12 -5 -10 -14 -40 64 -50 77 202 -114 341 64 113 hvcurveto
          22 9 16 16 18 vvcurveto
          11 -12 1 -21 2 vhcurveto
          endchar
        </CharString>
        <CharString name="bracketleft">
          -80 269 759 rmoveto
          -1 -2 0 -3 -3 -136 -193 -512 -84 vvcurveto
          -48 55 -36 59 55 118 41 37 11 -4 7 -15 vhcurveto
          -25 -75 -13 -51 hhcurveto
          -14 -7 6 13 21 16 55 48 150 hvcurveto
          50 153 70 227 65 vvcurveto
          3 0 2 -1 3 vhcurveto
          13 3 14 3 16 3 rrcurveto
          101 14 52 -2 31 vvcurveto
          30 -70 4 -54 -94 -61 -7 -35 -2 vhcurveto
          endchar
        </CharString>
        <CharString name="bracketright">
          -83 410 711 rmoveto
          33 -44 10 -71 -78 -89 -20 -37 -15 20 -5 24 -2 vhcurveto
          -2 27 31 1 31 22 17 -1 13 hhcurveto
          -1 -4 0 -3 -4 vvcurveto
          -116 -118 -474 -10 -41 vhcurveto
          -16 -3 -9 -6 -18 -50 -49 12 -36 hhcurveto
          -14 -10 -4 -14 -40 103 -38 66 71 30 23 55 14 hvcurveto
          32 134 99 431 138 vvcurveto
          2 vlineto
          endchar
        </CharString>
        <CharString name="breve">
          58 635 rmoveto
          131 callsubr
          -34 -19 -61 -65 hhcurveto
          endchar
        </CharString>
        <CharString name="brokenbar">
          -164 68 -74 rmoveto
          -22 36 -39 19 25 59 272 38 41 -45 358 callgsubr
          -101 -52 -152 -54 vvcurveto
          120 565 rmoveto
          -22 36 -39 19 26 59 272 39 40 -45 47 -21 -17 -4 -9 -21 vhcurveto
          -100 -53 -152 -55 vvcurveto
          endchar
        </CharString>
        <CharString name="bullet">
          -296 160 239 rmoveto
          17 22 22 12 36 -51 116 -32 -31 -35 -45 -33 -38 67 -70 43 hvcurveto
          endchar
        </CharString>
        <CharString name="c">
          -88 32 163 rmoveto
          -78 85 -70 76 79 118 68 38 39 callsubr
          hvcurveto
          endchar
        </CharString>
        <CharString name="cacute">
          -86 295 591 -65 callsubr
          -259 -428 rmoveto
          -78 85 -70 76 79 118 68 38 39 callsubr
          hvcurveto
          endchar
        </CharString>
        <CharString name="caron">
          22 632 rmoveto
          -42 callgsubr
          228 callgsubr
          vhcurveto
          endchar
        </CharString>
        <CharString name="ccaron">
          -86 316 632 rmoveto
          -42 callgsubr
          228 callgsubr
          vhcurveto
          -280 -469 rmoveto
          -78 85 -70 76 79 118 68 38 39 callsubr
          hvcurveto
          endchar
        </CharString>
        <CharString name="ccedilla">
          -86 176 -33 rmoveto
          10 17 8 17 6 14 rrcurveto
          78 4 112 65 37 vvcurveto
          39 callsubr
          -59 48 -54 57 -23 hvcurveto
          -15 -36 -23 -40 -17 10 callgsubr
        </CharString>
        <CharString name="cedilla">
          -12 -56 rmoveto
          19 33 13 32 13 vvcurveto
          17 -13 7 -18 -13 -14 -5 -16 -5 vhcurveto
          -13 -39 -33 -54 -21 10 callgsubr
        </CharString>
        <CharString name="cent">
          -51 137 177 rmoveto
          76 79 128 74 43 vhcurveto
          -30 -100 -31 -122 -21 -94 rrcurveto
          -43 4 -28 28 37 vvcurveto
          246 339 rmoveto
          8 26 7 16 15 vvcurveto
          19 -9 21 -18 -13 -18 -37 -56 -20 vhcurveto
          -126 -12 -146 -201 -132 vvcurveto
          -68 73 -65 69 -13 vhcurveto
          -8 -37 -5 -26 -7 vvcurveto
          -13 16 -17 12 10 15 39 61 19 vhcurveto
          77 13 96 53 33 vvcurveto
          13 -7 6 -12 -28 -27 -27 -9 -76 vhcurveto
          27 97 30 121 30 105 rrcurveto
          -13 28 27 -30 22 hhcurveto
          10 6 7 12 29 -31 46 -41 22 hvcurveto
          endchar
        </CharString>
        <CharString name="circumflex">
          42 740 rmoveto
          -31 callsubr
          220 callgsubr
          endchar
        </CharString>
        <CharString name="colon">
          -287 125 -7 rmoveto
          16 12 15 14 35 -35 111 -36 -20 -23 -41 -28 -33 55 -73 31 hvcurveto
          77 343 rmoveto
          16 12 15 15 34 -35 112 -37 -19 -24 -41 -27 -34 55 -74 32 hvcurveto
          endchar
        </CharString>
        <CharString name="comma">
          -305 174 26 87 callsubr
        </CharString>
        <CharString name="copyright">
          175 501 491 rmoveto
          20 -27 32 -22 -101 -117 -159 -97 -49 57 -54 52 63 89 57 27 7 -5 10 -9 vhcurveto
          -19 -47 -41 -73 hhcurveto
          -24 -20 17 24 89 107 110 49 hvcurveto
          16 6 -7 12 hhcurveto
          7 6 4 10 hvcurveto
          -185 -378 rmoveto
          -98 -71 63 115 200 174 115 137 91 73 -80 -113 -193 -119 -107 -187 hvcurveto
          377 291 rmoveto
          145 -97 111 -160 265 callsubr
          vhcurveto
          endchar
        </CharString>
        <CharString name="currency">
          67 213 287 rmoveto
          63 45 72 66 52 36 -48 -55 1 vhcurveto
          -58 -44 -74 -67 -49 -40 42 58 vhcurveto
          325 207 rmoveto
          19 -32 28 -19 -18 -34 -27 -44 -38 vhcurveto
          10 -21 -23 5 -26 hhcurveto
          -29 -26 -7 -12 -24 hvcurveto
          -8 15 -6 14 -3 9 rrcurveto
          25 -9 -48 12 -31 hhcurveto
          -14 -1 -8 -13 -15 30 -39 28 -51 hvcurveto
          -30 -36 -18 -47 -46 vvcurveto
          -35 9 -31 16 -25 vhcurveto
          -46 -48 -32 -28 -8 vvcurveto
          -17 26 -28 23 16 32 31 43 39 vhcurveto
          -12 22 26 -6 27 hhcurveto
          24 23 5 9 20 hvcurveto
          -43 33 32 -27 19 hhcurveto
          13 11 9 13 13 -21 32 -28 44 hvcurveto
          39 39 23 56 55 vvcurveto
          31 -8 29 -14 23 vhcurveto
          42 41 34 28 15 vvcurveto
          endchar
        </CharString>
        <CharString name="d">
          -34 349 242 callgsubr
          110 491 rmoveto
          -18 -4 -10 -20 hvcurveto
          -4 -95 -24 -123 -28 -117 176 callsubr
          47 184 36 184 29 vvcurveto
          40 -43 47 -20 vhcurveto
          endchar
        </CharString>
        <CharString name="dagger">
          -130 417 423 rmoveto
          170 callgsubr
          -33 -214 -52 -251 -40 vvcurveto
          -23 33 -37 19 18 34 185 136 27 vhcurveto
          332 callgsubr
          endchar
        </CharString>
        <CharString name="daggerdbl">
          -130 164 132 rmoveto
          332 callgsubr
          170 callgsubr
          -14 -89 -17 -96 -15 -84 rrcurveto
          -97 -9 -88 -14 -14 vvcurveto
          -17 23 -35 18 30 42 5 6 58 vhcurveto
          -15 -80 -10 -60 -18 vvcurveto
          -23 33 -37 19 14 24 113 114 23 vhcurveto
          146 17 70 14 23 vvcurveto
          19 -39 7 -43 -30 -43 -2 -3 -47 vhcurveto
          endchar
        </CharString>
        <CharString name="danda">
          -208 177 -19 rmoveto
          23 39 149 callsubr
          -21 -107 rrcurveto
          -27 285 callsubr
          endchar
        </CharString>
        <CharString name="dcaron">
          199 375 292 rmoveto
          -2 -9 rlineto
          -111 -44 -115 -77 -43 hhcurveto
          -23 -21 15 25 99 94 194 91 35 28 -56 -72 hvcurveto
          110 491 rmoveto
          -17 -4 -10 -20 hvcurveto
          -4 -97 -25 -122 -27 -116 rrcurveto
          51 -18 -34 34 -50 hhcurveto
          -147 -114 -257 -116 -55 53 -68 61 54 65 46 56 54 hvcurveto
          -5 -22 -3 -17 -10 vvcurveto
          -26 29 -27 18 21 44 171 121 30 vhcurveto
          47 184 35 184 29 vvcurveto
          40 -42 47 -21 vhcurveto
          170 -15 rmoveto
          -21 -29 -22 -21 -29 35 6 279 callgsubr
          endchar
        </CharString>
        <CharString name="dcroat">
          -25 376 242 callgsubr
          162 299 rmoveto
          120 12 36 5 20 vvcurveto
          20 -47 4 -104 vhcurveto
          4 22 2 15 7 vvcurveto
          40 -43 358 callgsubr
          -1 -31 -4 -35 -5 -36 rrcurveto
          -58 -3 -48 -7 -17 vvcurveto
          -18 27 -31 27 11 12 1 2 17 vhcurveto
          -9 -52 -12 -55 -13 -53 176 callsubr
          27 107 24 108 15 76 rrcurveto
          endchar
        </CharString>
        <CharString name="degree">
          -194 79 530 rmoveto
          -65 42 -50 65 100 80 107 88 66 -41 49 -65 -101 -80 -107 -88 vhcurveto
          206 65 rmoveto
          -46 -33 -66 -48 -27 -18 24 33 46 34 68 48 27 17 -26 -33 vhcurveto
          endchar
        </CharString>
        <CharString name="dieresis">
          -52 826 -18 callgsubr
          endchar
        </CharString>
        <CharString name="divide">
          67 606 359 rmoveto
          16 -28 6 -40 -81 -107 -15 -3 -159 vhcurveto
          -1 -60 -48 0 371 callgsubr
          199 305 25 54 hvcurveto
          -316 -310 rmoveto
          14 18 17 11 29 -41 93 -27 -24 -29 -37 -25 -32 55 -56 34 hvcurveto
          88 396 rmoveto
          14 18 17 10 30 -41 94 -27 -25 -28 -37 -26 -31 55 -57 34 hvcurveto
          endchar
        </CharString>
        <CharString name="dollar">
          1 276 401 rmoveto
          -44 31 -34 27 21 vvcurveto
          27 58 33 66 23 vhcurveto
          -13 -46 -15 -54 -18 -62 rrcurveto
          117 -219 rmoveto
          -45 -62 -30 -75 -10 vhcurveto
          14 49 17 60 20 71 rrcurveto
          48 -34 38 -31 -30 vvcurveto
          39 508 rmoveto
          7 23 3 18 13 vvcurveto
          18 -5 17 -17 1 vhcurveto
          -23 -18 -35 -80 -26 hvcurveto
          -76 -20 -90 -38 -44 -44 rrcurveto
          -16 -16 -13 -45 -33 vvcurveto
          -56 69 -51 69 -48 vhcurveto
          -20 -69 -25 -82 -18 -70 rrcurveto
          6 -76 -39 88 -30 hhcurveto
          -13 -8 -13 -24 -43 56 -78 90 -19 hvcurveto
          -5 -21 -2 -17 -12 vvcurveto
          -16 -1 9 -15 13 hhcurveto
          14 13 26 51 18 hvcurveto
          121 6 134 65 -1 102 rrcurveto
          70 -77 61 -73 52 vhcurveto
          19 66 22 73 25 81 rrcurveto
          2 15 15 2 14 25 10 -9 15 hhcurveto
          8 6 4 12 32 -23 53 -42 hvcurveto
          -4 -4 0 -5 hhcurveto
          endchar
        </CharString>
        <CharString name="dotaccent">
          50 663 97 callsubr
          endchar
        </CharString>
        <CharString name="dotlessi">
          -273 163 192 callgsubr
          endchar
        </CharString>
        <CharString name="dottedcircle">
          127 183 472 rmoveto
          26 18 19 26 25 -18 19 -26 -26 -18 -19 -25 -26 18 -19 26 hvcurveto
          -80 -109 rmoveto
          24 20 19 25 25 -20 19 -24 -26 -20 -19 -25 -25 20 -19 26 hvcurveto
          -15 -125 rmoveto
          26 18 18 353 callsubr
          -18 25 hvcurveto
          52 -117 rmoveto
          25 19 18 26 25 -19 19 -25 -26 -18 -19 -25 -26 18 -18 26 hvcurveto
          102 -77 rmoveto
          25 19 20 26 24 -19 20 -25 -26 -19 -20 -24 -26 19 -20 26 hvcurveto
          126 -14 rmoveto
          26 19 18 26 26 -19 18 -26 325 callgsubr
          121 53 rmoveto
          25 20 18 26 25 -20 19 -25 -25 -19 -19 -25 -26 19 -18 25 hvcurveto
          74 98 rmoveto
          24 19 19 25 26 -19 19 -24 -26 -19 -19 -26 -25 19 -19 26 hvcurveto
          9 134 rmoveto
          25 19 18 26 26 -19 18 -25 325 callgsubr
          -50 118 rmoveto
          26 18 19 353 callsubr
          -19 25 hvcurveto
          -94 68 rmoveto
          25 18 20 24 26 -18 19 -25 -26 -19 -19 -26 -24 19 -20 26 hvcurveto
          -127 15 rmoveto
          26 18 18 26 26 -18 18 -26 325 callgsubr
          endchar
        </CharString>
        <CharString name="doubledanda">
          59 151 -19 rmoveto
          23 39 149 callsubr
          -21 -107 rrcurveto
          -27 285 callsubr
          255 hmoveto
          22 40 149 callsubr
          -22 -107 rrcurveto
          -26 285 callsubr
          endchar
        </CharString>
        <CharString name="dvA">
          215 583 645 rmoveto
          -89 callgsubr
          110 -107 callgsubr
        </CharString>
        <CharString name="dvA.init">
          349 719 645 rmoveto
          -90 callgsubr
          109 -102 callgsubr
        </CharString>
        <CharString name="dvAA">
          498 583 645 rmoveto
          -89 callgsubr
          183 -74 callgsubr
          endchar
        </CharString>
        <CharString name="dvAA.init">
          619 719 645 rmoveto
          -90 callgsubr
          171 -74 callgsubr
          endchar
        </CharString>
        <CharString name="dvAI">
          47 481 158 callsubr
          -358 138 callgsubr
          123 hlineto
          -7 -127 -93 -238 -117 vvcurveto
          -84 50 -40 109 102 128 38 51 16 -10 10 -19 vhcurveto
          -53 -33 -41 -128 hhcurveto
          -49 -13 13 44 105 97 254 6 116 hvcurveto
          190 hlineto
          18 -24 25 -34 -64 vvcurveto
          -81 -54 -62 -87 -24 -8 -9 -13 -17 17 -22 42 108 83 82 119 51 -14 43 -21 31 vhcurveto
          127 -107 callgsubr
        </CharString>
        <CharString name="dvAU">
          502 1014 -5 callsubr
          -367 hlineto
          -89 callgsubr
          186 -74 callgsubr
          endchar
        </CharString>
        <CharString name="dvAU.init">
          619 1138 -5 callsubr
          -355 hlineto
          -90 callgsubr
          168 -74 callgsubr
          endchar
        </CharString>
        <CharString name="dvAbbreviationsign">
          -231 62 277 rmoveto
          -48 34 -39 45 55 44 56 53 48 -34 38 -45 -55 -44 -55 -53 vhcurveto
          118 16 rmoveto
          -30 -17 -20 -16 -16 -11 17 20 29 18 21 16 15 11 -16 -21 vhcurveto
          endchar
        </CharString>
        <CharString name="dvAcandra">
          215 583 645 rmoveto
          -89 callgsubr
          110 -106 callgsubr
          63 239 rmoveto
          -14 callgsubr
          238 callsubr
          endchar
        </CharString>
        <CharString name="dvAcandra.init">
          349 719 645 rmoveto
          -90 callgsubr
          109 -101 callsubr
          60 239 rmoveto
          -14 callgsubr
          238 callsubr
          endchar
        </CharString>
        <CharString name="dvAnusvara">
          -27 840 116 callsubr
        </CharString>
        <CharString name="dvAnusvara.amI">
          -10 839 116 callsubr
        </CharString>
        <CharString name="dvAvagraha">
          5 520 239 rmoveto
          125 -286 30 58 vvcurveto
          26 48 31 96 18 vhcurveto
          94 18 70 -6 23 vvcurveto
          22 -29 33 -41 -93 -153 -34 -56 -46 vhcurveto
          -16 -18 -16 -44 -30 -95 281 -22 -80 vvcurveto
          -49 -104 -67 -92 vhcurveto
          -79 -48 98 -35 hhcurveto
          -14 -5 -12 -18 -53 89 -90 104 125 150 89 103 hvcurveto
          endchar
        </CharString>
        <CharString name="dvB">
          -171 126 197 -54 callgsubr
          -366 375 -106 callsubr
          433 -102 callgsubr
        </CharString>
        <CharString name="dvBA">
          35 349 209 -55 callgsubr
          -36 35 callgsubr
          391 145 callsubr
          -122 -114 -179 -136 250 callsubr
          hvcurveto
          -33 callsubr
        </CharString>
        <CharString name="dvBH">
          -68 162 138 34 callgsubr
          353 -153 rmoveto
          17 -13 10 -25 -39 -82 -2 -9 -92 vhcurveto
          366 callsubr
          -69 -66 -95 -83 62 callgsubr
          135 14 135 2 31 vvcurveto
          endchar
        </CharString>
        <CharString name="dvBHA">
          131 162 91 callgsubr
          98 327 -42 callsubr
          257 175 12 callsubr
          218 callgsubr
          vhcurveto
          -4 -24 -5 -25 -7 -23 rrcurveto
          -132 -14 -127 -11 -84 -25 callgsubr
        </CharString>
        <CharString name="dvBH_LA">
          678 162 138 34 callgsubr
          320 175 -73 callsubr
          541 hlineto
          -10 -55 -24 -27 -41 -50 -42 -39 rlinecurve
          -21 callsubr
          -91 -77 -53 -80 -39 vhcurveto
          -43 -1 -72 -2 -80 -8 rrcurveto
          366 callsubr
          -69 -66 -95 -83 62 callgsubr
          72 7 71 4 52 7 rrcurveto
          -5 -22 -3 -23 -24 vvcurveto
          -110 56 -99 102 51 44 31 27 19 -10 12 -18 vhcurveto
          -93 callsubr
        </CharString>
        <CharString name="dvBH_NA">
          145 265 -56 284 callgsubr
          -86 224 173 callgsubr
          81 302 37 callgsubr
          285 callgsubr
          18 vhcurveto
          -4 -24 -6 -25 -7 -23 rrcurveto
          -125 -13 -119 -6 -80 vvcurveto
          -62 70 -81 64 73 56 83 101 35 vhcurveto
          70 6 69 5 47 9 -16 -84 -20 -82 -10 -47 rrcurveto
          10 -19 -22 5 -30 hhcurveto
          -115 -206 -79 314 callgsubr
          -5 32 -14 26 hvcurveto
          12 40 40 7 30 hhcurveto
          32 23 -5 -23 30 hvcurveto
          -6 7 7 -4 5 hhcurveto
          301 callsubr
          hvcurveto
          21 90 27 -71 callsubr
          103 -107 callgsubr
        </CharString>
        <CharString name="dvBH_R">
          -78 548 213 rmoveto
          -73 -293 -230 -52 324 callsubr
          hvcurveto
          69 50 110 66 26 vvcurveto
          13 -8 5 -14 vhcurveto
          -386 -64 rmoveto
          -27 -32 48 32 24 73 11 90 9 hvcurveto
          -72 -31 -40 -52 -33 hhcurveto
          98 321 -42 callsubr
          305 -111 rmoveto
          -40 -78 -4 -9 -83 hvcurveto
          14 58 8 59 54 vvcurveto
          81 -26 92 -90 218 callgsubr
          vhcurveto
          252 callsubr
          126 10 128 9 30 vvcurveto
          18 -11 13 -22 vhcurveto
          endchar
        </CharString>
        <CharString name="dvBH_RA">
          145 179 296 callsubr
          81 302 37 callgsubr
          285 callgsubr
          18 vhcurveto
          -4 -24 -6 -25 -7 -23 rrcurveto
          -125 -13 -119 -6 -80 vvcurveto
          -62 70 -81 64 73 56 83 101 35 vhcurveto
          -2 callsubr
        </CharString>
        <CharString name="dvBH_R_YA">
          466 884 -100 callsubr
          -426 hmoveto
          -94 callgsubr
          -54 -28 -46 -34 -38 hvcurveto
          1 -4 -4 1 -4 hhcurveto
          -40 -78 -4 -9 -83 hvcurveto
          14 58 8 59 54 vvcurveto
          20 -2 22 -4 20 vhcurveto
          -2 8 8 -1 11 hhcurveto
          -245 -427 rmoveto
          -27 -32 48 32 24 73 11 90 9 hvcurveto
          -72 -31 -40 -52 -33 hhcurveto
          98 321 -42 callsubr
          147 175 179 callgsubr
          218 callgsubr
          hvcurveto
          252 callsubr
          58 5 58 4 46 6 rrcurveto
          -36 -28 -29 -21 -13 vvcurveto
          -19 12 -19 15 -13 vhcurveto
          -113 -65 -173 -145 -40 vvcurveto
          324 callsubr
          vhcurveto
          50 36 70 44 36 32 104 9 112 48 82 78 rrcurveto
          -104 callgsubr
        </CharString>
        <CharString name="dvBH_VA">
          475 641 135 -72 callsubr
          -479 3 34 callgsubr
          309 175 -106 callsubr
          374 hlineto
          -50 callgsubr
          -83 -65 -70 -84 -36 hvcurveto
          -43 -75 -3 -8 -84 352 callsubr
          -69 -66 -95 -83 62 callgsubr
          75 8 75 4 51 7 rrcurveto
          -8 -32 -5 -32 -30 vvcurveto
          -98 callsubr
        </CharString>
        <CharString name="dvBH_YA">
          466 884 -43 callgsubr
          98 332 195 callgsubr
          -9 -1 -8 hvcurveto
          -4 -16 -18 -3 -21 hhcurveto
          147 175 179 callgsubr
          218 callgsubr
          hvcurveto
          -5 -30 -7 -29 -8 -29 rrcurveto
          -131 -11 -124 -9 -78 18 callgsubr
        </CharString>
        <CharString name="dvB_BA">
          404 718 209 -55 callgsubr
          -369 hmoveto
          -56 callsubr
          -44 35 callgsubr
          768 145 callsubr
          -102 -97 -126 -121 -29 hvcurveto
          -19 -11 -29 -24 -35 -25 -44 53 -51 79 -36 65 -83 callgsubr
          84 113 60 54 62 hvcurveto
          -67 4 32 -47 74 hhcurveto
          74 99 47 49 57 hvcurveto
          -33 callsubr
        </CharString>
        <CharString name="dvB_BHA">
          527 558 91 callgsubr
          98 327 -42 callsubr
          -530 -273 -51 callgsubr
          787 448 12 callsubr
          -37 -36 -27 -38 -26 vhcurveto
          12 -5 -16 8 -31 hhcurveto
          -433 -15 callgsubr
          433 hlineto
          12 10 1 3 7 hvcurveto
          -8 -22 -5 -24 -22 vvcurveto
          59 callgsubr
          19 vhcurveto
          -4 -24 -5 -25 -7 -23 -111 -12 -108 -10 -31 -52 -20 -8 -31 -28 -40 -28 -44 53 -51 79 -36 65 -83 callgsubr
          90 123 69 57 59 hvcurveto
          -60 17 54 -59 55 hhcurveto
          77 65 92 115 39 hvcurveto
          65 6 63 5 45 8 rrcurveto
          -22 -116 -27 20 callgsubr
          116 -63 callgsubr
        </CharString>
        <CharString name="dvB_BH_RA">
          534 568 296 callsubr
          -442 29 rmoveto
          42 20 58 29 48 vhcurveto
          36 -58 48 -64 43 -45 rrcurveto
          -24 -42 -46 -18 -45 hhcurveto
          -31 -12 23 38 hvcurveto
          523 273 37 callgsubr
          -35 -34 -24 -34 -25 vhcurveto
          8 -8 -15 5 -24 hhcurveto
          -436 -15 callgsubr
          436 hlineto
          7 6 0 1 5 hvcurveto
          -8 -21 -4 -22 -22 vvcurveto
          59 callgsubr
          18 vhcurveto
          -4 -24 -6 -25 -7 -23 -107 -11 -104 -6 -26 -53 -24 -14 -33 -27 -39 -26 -43 53 -51 78 -36 65 -83 callgsubr
          87 128 73 60 66 hvcurveto
          -52 21 54 -49 50 hhcurveto
          73 56 83 101 35 hvcurveto
          -2 callsubr
        </CharString>
        <CharString name="dvB_DA">
          341 758 96 callsubr
          -632 14 -38 callsubr
          683 -20 callsubr
          -78 -101 -103 -94 -49 hvcurveto
          -20 -7 -32 -28 -41 -29 -44 53 -51 79 -36 65 -83 callgsubr
          79 103 52 51 64 hvcurveto
          0 vlineto
          -82 80 -42 110 -2 vhcurveto
          -87 callsubr
        </CharString>
        <CharString name="dvB_DA_mU">
          345 758 132 callsubr
          -632 14 -38 callsubr
          683 -20 callsubr
          -78 -101 -103 -94 -49 hvcurveto
          -20 -7 -32 -28 -41 -29 -44 53 -51 79 -36 65 -83 callgsubr
          79 103 52 51 64 hvcurveto
          0 vlineto
          -84 83 -42 114 vhcurveto
          -97 callgsubr
        </CharString>
        <CharString name="dvB_DA_mUU">
          347 758 183 -51 callsubr
          -368 412 -38 callsubr
          683 50 callgsubr
          -79 -101 -103 -94 -49 hvcurveto
          -20 -7 -32 -28 -41 -29 -44 53 -51 79 -36 65 -83 callgsubr
          79 103 52 51 64 hvcurveto
          0 vlineto
          264 callsubr
          -96 callsubr
        </CharString>
        <CharString name="dvB_DHA">
          462 126 197 -54 callgsubr
          259 360 34 callsubr
          191 15 -29 callgsubr
          -44 -53 -30 -44 -48 hvcurveto
          16 -4 -15 10 -35 hhcurveto
          -433 -15 callgsubr
          433 hlineto
          5 4 0 1 4 hvcurveto
          -47 -57 -34 -68 -60 vvcurveto
          -49 28 -33 57 vhcurveto
          4 5 0 4 hhcurveto
          -40 -41 -32 -48 -38 vvcurveto
          -43 30 -25 50 104 112 48 68 81 vhcurveto
          -19 -87 -18 -72 -17 83 callgsubr
          41 14 16 19 20 -14 14 -41 hvcurveto
          endchar
        </CharString>
        <CharString name="dvB_DH_VA">
          776 126 197 -54 callgsubr
          492 -135 -72 callsubr
          -233 495 34 callsubr
          161 15 -106 callsubr
          374 hlineto
          -50 callgsubr
          -88 -68 -80 -91 -35 hvcurveto
          -51 -58 -105 -94 -129 8 callgsubr
          -44 -53 -30 -44 -48 hvcurveto
          16 -4 -15 10 -35 hhcurveto
          -433 -15 callgsubr
          433 hlineto
          5 4 0 1 4 hvcurveto
          -47 -57 -34 -68 -60 vvcurveto
          -49 28 -33 57 vhcurveto
          4 5 0 4 hhcurveto
          -40 -41 -32 -47 -39 vvcurveto
          -43 30 -25 50 97 108 47 55 73 vhcurveto
          -1 -7 0 -8 -7 vvcurveto
          -98 callsubr
        </CharString>
        <CharString name="dvB_JA">
          573 183 callsubr
          921 hlineto
          -80 callgsubr
          -74 -73 -101 -107 -14 vhcurveto
          -19 -5 -33 -30 -43 -30 -44 53 -51 79 -36 65 -83 callgsubr
          94 130 75 59 55 hvcurveto
          -57 10 36 -41 66 hhcurveto
          135 126 76 86 6 -1 6 -2 6 hvcurveto
          10 hlineto
          45 48 13 21 39 hvcurveto
          -1 vlineto
          -23 -121 -32 -119 -22 vvcurveto
          -21 32 -44 callsubr
          115 -106 callgsubr
          endchar
        </CharString>
        <CharString name="dvB_JHA">
          631 1067 111 callsubr
          -474 107 rmoveto
          42 20 58 29 48 vhcurveto
          37 -59 50 -66 44 -46 rrcurveto
          -21 -41 -46 -17 -50 hhcurveto
          -31 -12 23 38 hvcurveto
          -44 448 -73 callsubr
          673 107 callsubr
          hvcurveto
          -129 242 -44 -92 vvcurveto
          -29 -31 -21 363 callsubr
          -38 -51 80 -87 hhcurveto
          -26 -24 -7 -12 -19 hvcurveto
          -17 -8 -24 -18 -31 -19 -44 52 -53 82 -37 67 -83 callgsubr
          67 88 38 40 62 hvcurveto
          -78 13 93 -45 106 hhcurveto
          13 12 0 1 12 hvcurveto
          -93 38 40 -101 35 hhcurveto
          14 7 7 15 23 -39 82 -31 76 hvcurveto
          76 16 52 38 63 vvcurveto
          29 -10 25 -15 21 vhcurveto
          64 9 79 26 68 29 rrcurveto
          -25 -113 -24 -100 -31 72 callsubr
          112 -107 callgsubr
        </CharString>
        <CharString name="dvB_J_YA">
          933 1351 -100 callsubr
          -1238 -379 -38 callsubr
          856 14 callgsubr
          -64 -67 -80 -93 -25 vhcurveto
          -19 -5 -34 -29 -43 -31 -44 53 -51 79 -36 65 -83 callgsubr
          89 122 68 56 59 hvcurveto
          -68 1 37 -56 76 hhcurveto
          134 callsubr
          8 -2 9 -4 9 hvcurveto
          8 hlineto
          42 55 11 16 49 hvcurveto
          -31 -24 -23 -17 -12 100 callgsubr
          113 130 50 87 92 vhcurveto
          -104 callgsubr
        </CharString>
        <CharString name="dvB_JxA">
          573 578 -39 callsubr
          -452 153 -38 callsubr
          921 hlineto
          -80 callgsubr
          -74 -73 -101 -107 -14 vhcurveto
          -19 -5 -33 -30 -43 -30 -44 53 -51 79 -36 65 -83 callgsubr
          94 130 75 59 55 hvcurveto
          -57 10 36 -41 66 hhcurveto
          135 126 76 86 6 -1 6 -2 6 hvcurveto
          10 hlineto
          45 48 13 21 39 hvcurveto
          -1 vlineto
          -23 -121 -32 -119 -22 vvcurveto
          -21 32 -44 callsubr
          115 -106 callgsubr
          endchar
        </CharString>
        <CharString name="dvB_LA">
          579 183 callsubr
          940 hlineto
          -10 -55 -24 -27 -41 -50 -42 -39 rlinecurve
          -21 callsubr
          -118 -93 -88 -123 -19 vhcurveto
          -20 -10 -31 -26 -37 -26 -44 53 -51 79 -36 65 -83 callgsubr
          89 120 67 56 60 hvcurveto
          -98 9 55 -83 93 hhcurveto
          98 callgsubr
          hvcurveto
          -93 callsubr
        </CharString>
        <CharString name="dvB_L_YA">
          919 1337 -100 callsubr
          -1224 -379 -38 callsubr
          842 -89 callsubr
          -59 -32 -48 -38 -39 hvcurveto
          -45 -10 -121 -35 -77 -34 rrcurveto
          5 19 3 21 21 vvcurveto
          71 -42 75 -77 -119 -94 -85 -126 -19 vhcurveto
          -20 -9 -31 -26 -38 -27 -44 53 -51 79 -36 65 -83 callgsubr
          89 122 68 56 59 hvcurveto
          -99 9 56 -83 89 hhcurveto
          52 43 31 27 19 -9 14 -20 hvcurveto
          -29 -3 -23 -41 hhcurveto
          -45 -32 55 78 101 77 87 84 43 14 -45 -36 hvcurveto
          -43 -12 -19 -26 vvcurveto
          -15 6 -12 18 vhcurveto
          1 hlineto
          1 hlineto
          25 47 21 31 88 hvcurveto
          26 9 rlineto
          -16 -13 -11 -11 -8 100 callgsubr
          113 130 50 87 92 vhcurveto
          -104 callgsubr
        </CharString>
        <CharString name="dvB_NA">
          35 366 261 55 callsubr
          1 -312 rmoveto
          -29 -12 -26 -33 359 callgsubr
          51 21 vhcurveto
          11 -19 4 -23 -19 vvcurveto
          -110 701 -106 callsubr
          431 231 callsubr
          -12 -49 -12 -44 -7 -30 rrcurveto
          9 -19 -23 6 -30 hhcurveto
          -115 -205 -79 -89 -57 67 -50 67 71 30 52 57 28 -6 32 -13 26 hvcurveto
          12 39 40 7 30 hhcurveto
          32 22 -5 -22 31 hvcurveto
          -6 7 8 -5 5 139 callgsubr
        </CharString>
        <CharString name="dvB_R">
          -171 175 169 rmoveto
          -30 -13 18 32 35 17 49 26 42 hvcurveto
          33 -53 40 -53 40 -43 rrcurveto
          -16 -33 -37 -11 -43 hhcurveto
          273 133 rmoveto
          -25 -37 -42 -37 -54 hvcurveto
          -40 51 -42 65 -34 62 rrcurveto
          23 22 24 15 22 hhcurveto
          20 15 -21 -23 14 hvcurveto
          -23 13 12 -20 17 hhcurveto
          15 7 15 20 46 -51 78 -52 -124 -113 -174 -121 -61 23 -39 54 -8 hvcurveto
          15 -4 20 -1 21 2 rrcurveto
          -81 -71 -72 -78 -25 vvcurveto
          -12 7 -7 14 30 84 96 78 95 vhcurveto
          80 66 122 91 37 vvcurveto
          15 -5 7 -16 vhcurveto
          -358 343 -106 callsubr
          408 -107 callgsubr
        </CharString>
        <CharString name="dvB_RA">
          35 366 261 55 callsubr
          -70 389 -106 callsubr
          392 231 callsubr
          77 callsubr
        </CharString>
        <CharString name="dvB_SA">
          644 126 197 -54 callgsubr
          641 306 -18 callsubr
          -328 69 rmoveto
          -4 -4 0 -4 -3 -4 0 -4 hhcurveto
          -433 -15 callgsubr
          433 hlineto
          4 4 0 3 4 4 0 4 hhcurveto
          78 hlineto
          -44 callgsubr
          hvcurveto
          -51 -13 255 callgsubr
          -6 -7 -10 -4 hvcurveto
          -4 -5 -2 -6 -6 vvcurveto
          -38 202 -263 41 15 140 callsubr
          vhcurveto
          -69 callgsubr
        </CharString>
        <CharString name="dvB_SHA">
          588 515 576 369 callgsubr
          -433 -15 callgsubr
          44 -379 -54 callgsubr
          217 276 -58 callsubr
        </CharString>
        <CharString name="dvB_TA">
          440 183 callsubr
          803 hlineto
          26 callgsubr
          -122 -87 -40 -89 -8 hvcurveto
          -20 -10 -30 -25 -36 -26 -44 53 -51 79 -36 65 -83 callgsubr
          93 126 72 58 57 hvcurveto
          -102 26 94 -89 56 hhcurveto
          23 11 12 15 hvcurveto
          -86 callgsubr
        </CharString>
        <CharString name="dvB_VA">
          361 528 135 -72 callsubr
          -402 62 -38 callsubr
          748 hlineto
          -50 callgsubr
          -110 -78 -123 -115 -22 hvcurveto
          -20 -12 -26 -22 -32 -22 -44 53 -51 79 -36 65 -83 callgsubr
          83 109 58 53 63 hvcurveto
          -66 4 27 -51 65 hhcurveto
          -1 callgsubr
        </CharString>
        <CharString name="dvB_YA">
          428 846 -100 callsubr
          -733 -379 rmoveto
          42 20 58 29 48 vhcurveto
          37 -59 49 -65 43 -45 rrcurveto
          -23 -40 -47 -17 -48 hhcurveto
          -31 -12 23 38 hvcurveto
          -44 35 callgsubr
          351 -89 callsubr
          -106 -104 -72 -57 -45 hvcurveto
          -20 -14 -32 -28 -40 -27 -44 53 -52 80 -36 65 -83 callgsubr
          85 114 59 56 66 hvcurveto
          -12 13 16 -8 15 hhcurveto
          113 130 50 87 92 hvcurveto
          -104 callgsubr
        </CharString>
        <CharString name="dvC">
          -43 428 326 rmoveto
          49 callsubr
          -61 40 -42 82 158 133 94 44 15 -10 340 callsubr
          49 72 66 87 28 hvcurveto
          -317 319 -106 callsubr
          503 -107 callgsubr
        </CharString>
        <CharString name="dvCA">
          175 111 -45 callgsubr
          505 -5 callgsubr
          -58 -40 -38 -54 -54 vvcurveto
          -63 41 -43 82 90 84 41 71 64 vhcurveto
          48 callgsubr
        </CharString>
        <CharString name="dvCH">
          148 760 576 264 callgsubr
          -673 -15 callgsubr
          194 hlineto
          -94 -41 -92 -102 -72 vvcurveto
          -47 45 -26 54 -4 vhcurveto
          -62 -53 -58 -79 -60 330 callsubr
          186 316 140 188 -17 callgsubr
          162 -177 rmoveto
          28 9 -23 -29 -45 -29 -41 -45 -36 hvcurveto
          -17 8 -18 17 43 vvcurveto
          55 27 51 45 vhcurveto
          endchar
        </CharString>
        <CharString name="dvCHA">
          148 575 -52 callsubr
          -445 408 -106 callsubr
          175 269 callgsubr
          152 callgsubr
        </CharString>
        <CharString name="dvCH_R">
          148 566 399 43 callsubr
          vhcurveto
          7 hlineto
          -45 -56 -49 -75 -18 21 callsubr
          111 hvcurveto
          174 44 194 118 147 vvcurveto
          -17 callgsubr
          356 -107 callgsubr
        </CharString>
        <CharString name="dvCH_RA">
          142 575 -52 callsubr
          -445 408 -106 callsubr
          175 269 callgsubr
          -61 -54 -56 -78 -59 330 callsubr
          vhcurveto
          6 hlineto
          -45 -56 -49 -75 -18 21 callsubr
          111 hvcurveto
          175 47 200 125 159 vvcurveto
          41 callsubr
        </CharString>
        <CharString name="dvCH_R_YA">
          748 1166 -100 callsubr
          -613 -177 43 callsubr
          vhcurveto
          6 hlineto
          -45 -56 -49 -75 -18 21 callsubr
          110 hvcurveto
          174 44 195 118 148 vvcurveto
          -17 callgsubr
          349 188 callgsubr
          -146 -198 -82 -35 100 callgsubr
          113 130 50 87 92 vhcurveto
          -104 callgsubr
        </CharString>
        <CharString name="dvCH_YA">
          771 1189 -100 callsubr
          -636 -177 43 callsubr
          186 316 140 188 -17 callgsubr
          372 188 callgsubr
          -146 -198 -82 -35 100 callgsubr
          113 130 50 87 92 vhcurveto
          -104 callgsubr
        </CharString>
        <CharString name="dvC_CA">
          535 111 -45 callgsubr
          865 -5 callgsubr
          -58 -40 -38 -54 -54 -4 0 -3 -4 vvcurveto
          -24 -43 -67 -54 -118 hhcurveto
          -36 -18 9 27 49 72 66 87 28 hvcurveto
          0 vlineto
          49 callsubr
          -61 40 -42 82 112 99 47 43 48 vhcurveto
          -23 21 32 -13 46 hhcurveto
          90 84 41 71 64 hvcurveto
          48 callgsubr
        </CharString>
        <CharString name="dvC_CHA">
          579 1005 -52 callsubr
          -852 408 -106 callsubr
          582 269 callgsubr
          -12 -12 rlineto
          -37 -55 -98 -87 -133 hhcurveto
          -36 -18 10 25 49 72 67 87 28 hvcurveto
          0 vlineto
          49 callsubr
          -61 40 -42 82 66 69 22 29 59 vhcurveto
          -4 -12 -2 -12 -11 81 callgsubr
        </CharString>
        <CharString name="dvC_CH_VA">
          564 998 388 rmoveto
          18 8 -15 -28 -60 -55 -57 -74 -44 hvcurveto
          112 27 32 92 44 hhcurveto
          -255 -621 rmoveto
          -16 -52 -45 -10 -41 hhcurveto
          -52 -58 3 31 36 81 62 51 47 42 -44 -57 28 hvcurveto
          -633 873 -106 callsubr
          593 hlineto
          -93 -40 -92 -99 -73 vvcurveto
          -48 49 -24 51 -4 vhcurveto
          -15 -13 -15 -14 -14 -14 rrcurveto
          -5 -39 -84 -95 -148 hhcurveto
          -36 -19 10 25 49 72 67 87 28 hvcurveto
          0 vlineto
          9 3 5 6 8 vvcurveto
          27 -29 17 -56 vhcurveto
          -142 hlineto
          137 callsubr
          37 -46 26 51 49 1 1 49 hvcurveto
          -55 -39 -37 -53 -49 vvcurveto
          -61 40 -42 82 76 73 25 30 56 vhcurveto
          -3 -12 -2 -12 -12 vvcurveto
          -40 30 -32 62 64 75 14 26 71 vhcurveto
          -4 -23 -12 -67 -12 -64 -11 -55 rlinecurve
          49 -32 -44 36 -51 hhcurveto
          -94 -116 -93 -75 -65 74 -30 94 48 48 8 13 44 hvcurveto
          -2 -14 -1 -10 -7 vvcurveto
          -16 6 -10 13 22 19 19 31 8 vhcurveto
          19 86 20 125 26 124 14 69 rcurveline
          121 59 97 90 102 vvcurveto
          61 -27 51 -59 -120 -43 -153 -161 -30 vhcurveto
          -32 -77 -84 -19 -64 hhcurveto
          -8 -5 3 6 52 72 71 57 44 hvcurveto
          21 17 42 29 18 vvcurveto
          4 -1 4 -2 3 vhcurveto
          8 -3 -8 3 -16 -26 -31 -11 -38 hhcurveto
          -34 -19 7 18 48 122 115 354 callgsubr
          15 -7 17 -13 12 hvcurveto
          366 -63 callgsubr
        </CharString>
        <CharString name="dvC_MA">
          617 815 -85 callsubr
          -558 286 callgsubr
          639 119 callgsubr
          -66 -11 -59 -15 -37 -23 rrcurveto
          -20 -45 -77 -73 -130 hhcurveto
          -38 -19 10 26 47 68 63 83 30 hvcurveto
          14 3 8 6 10 vvcurveto
          27 -29 18 -56 vhcurveto
          -49 -38 -1 -55 -49 -35 5 -34 hhcurveto
          -14 -8 -4 -9 -14 37 -46 26 hvcurveto
          51 48 1 49 hhcurveto
          -54 -39 -37 -52 -49 vvcurveto
          -61 40 -42 82 83 81 30 34 57 vhcurveto
          -60 17 58 -68 58 hhcurveto
          120 callsubr
          hvcurveto
          70 10 76 11 64 16 -7 -37 -91 callsubr
          118 -106 callgsubr
          endchar
        </CharString>
        <CharString name="dvC_NA">
          171 296 -38 rmoveto
          -30 -12 -25 -33 -26 65 callsubr
          -185 343 callgsubr
          501 101 callsubr
          -15 -72 -17 -67 -8 -42 129 callgsubr
          117 -101 callsubr
          endchar
        </CharString>
        <CharString name="dvC_R">
          -60 428 354 rmoveto
          49 callsubr
          -56 33 -36 67 -7 vhcurveto
          25 -2 20 1 26 5 rrcurveto
          -88 -65 -86 -86 -28 vvcurveto
          -13 7 -8 15 28 73 78 70 90 vhcurveto
          83 64 119 81 38 vvcurveto
          14 -9 340 callsubr
          51 73 64 86 28 hvcurveto
          -317 120 callgsubr
          502 -102 callgsubr
        </CharString>
        <CharString name="dvC_RA">
          171 107 -45 callgsubr
          505 101 callsubr
          -14 -65 -14 -61 -10 -43 rrcurveto
          21 -25 -32 16 -31 hhcurveto
          -55 -53 -42 -37 -44 hvcurveto
          -61 -55 -69 -74 -24 302 callsubr
          26 62 71 51 54 vhcurveto
          35 38 45 29 37 hhcurveto
          30 31 -30 -22 21 hvcurveto
          -4 9 13 -11 14 hhcurveto
          1 hlineto
          1 hlineto
          93 callgsubr
        </CharString>
        <CharString name="dvC_YA">
          591 1009 -100 callsubr
          -912 -68 callgsubr
          486 -89 callsubr
          -111 -115 -75 -55 -44 hvcurveto
          -32 -49 -99 -80 -123 hhcurveto
          -36 -18 13 22 44 72 66 87 28 hvcurveto
          0 vlineto
          82 callgsubr
          48 hvcurveto
          -54 -39 -37 -51 -45 vvcurveto
          -56 40 -47 82 106 107 51 48 64 vhcurveto
          -11 13 15 -7 14 hhcurveto
          113 130 50 87 92 hvcurveto
          -104 callgsubr
        </CharString>
        <CharString name="dvCandrabindu">
          -2 958 rmoveto
          -16 -17 -22 -20 -24 50 -53 23 11 7 8 15 28 -35 68 -23 hvcurveto
          -201 -68 rmoveto
          238 callsubr
          -14 callgsubr
          vhcurveto
          endchar
        </CharString>
        <CharString name="dvD">
          -21 22 -261 -58 callgsubr
          376 444 16 callgsubr
          -308 462 -73 callsubr
          315 -20 callsubr
          -108 241 callgsubr
          -82 80 -42 110 -2 hvcurveto
          -87 callsubr
        </CharString>
        <CharString name="dvDA">
          -21 391 96 callsubr
          -308 462 -73 callsubr
          315 -20 callsubr
          -108 241 callgsubr
          -82 80 -42 110 -2 hvcurveto
          -87 callsubr
        </CharString>
        <CharString name="dvDA_mU">
          -21 391 132 callsubr
          -377 197 callgsubr
          384 -20 callsubr
          -108 329 callsubr
          83 -42 114 hvcurveto
          -97 callgsubr
        </CharString>
        <CharString name="dvDA_mUU">
          -20 391 183 -51 callsubr
          -112 196 callgsubr
          383 50 callgsubr
          -109 329 callsubr
          84 -42 113 hvcurveto
          -96 callsubr
        </CharString>
        <CharString name="dvDA_mvR">
          -26 382 188 rmoveto
          10 2 6 -3 -3 -10 -3 -22 -30 -15 -44 -8 18 30 21 22 25 4 rrcurveto
          -320 457 -106 callsubr
          343 60 callgsubr
          -1 vlineto
          9 -20 -21 6 -17 hhcurveto
          -109 -152 -190 -96 -75 73 -42 104 -5 hvcurveto
          -8 -28 -5 -29 -1 -25 rrcurveto
          -87 -7 -134 -92 -88 vvcurveto
          -63 58 -39 106 69 75 17 30 13 -14 15 -24 vhcurveto
          -35 -10 -13 -66 hhcurveto
          -57 -37 15 27 59 123 69 63 hvcurveto
          305 callgsubr
          -8 77 63 22 hvcurveto
          1 vlineto
          88 10 81 40 65 vvcurveto
          35 -29 33 -41 -55 -47 -52 -64 -31 vhcurveto
          -5 hlineto
          -77 -46 19 37 70 118 137 69 hvcurveto
          52 17 -34 25 hhcurveto
          5 5 2 3 5 hvcurveto
          12 7 3 15 19 vvcurveto
          96 23 48 13 31 vhcurveto
          148 -107 callgsubr
        </CharString>
        <CharString name="dvDD">
          -31 43 8 -58 callgsubr
          41 637 -73 callsubr
          308 136 callgsubr
          -78 -144 -68 -56 -21 21 335 callgsubr
          -70 callgsubr
        </CharString>
        <CharString name="dvDDA">
          -31 84 23 callgsubr
          308 136 callgsubr
          -78 -144 -68 -56 -21 21 335 callgsubr
          -70 callgsubr
        </CharString>
        <CharString name="dvDDH">
          60 50 -5 -58 callgsubr
          395 223 -40 callsubr
          11 8 7 9 4 hvcurveto
          3 8 2 10 14 vvcurveto
          96 12 39 4 35 vhcurveto
          159 -106 callgsubr
          endchar
        </CharString>
        <CharString name="dvDDHA">
          60 412 218 -40 callsubr
          11 8 7 9 4 hvcurveto
          3 8 2 10 14 vvcurveto
          96 12 39 4 35 vhcurveto
          159 -106 callgsubr
          endchar
        </CharString>
        <CharString name="dvDDH_DDHA">
          29 324 206 rmoveto
          44 21 21 52 33 18 -12 -16 -28 -55 -19 -68 -8 vhcurveto
          -1 6 0 6 6 vvcurveto
          -86 -416 rmoveto
          25 28 15 26 37 23 -20 -21 -26 -32 -20 -52 -9 vhcurveto
          -21 17 -9 19 20 vvcurveto
          -167 855 201 callsubr
          -16 37 43 -8 55 hhcurveto
          13 hlineto
          7 -29 9 -31 12 -27 rrcurveto
          3 -15 -16 1 -18 hhcurveto
          -119 -159 -109 -107 -109 101 -45 115 118 104 50 72 56 -52 46 -76 -73 -43 -35 -49 -27 12 -25 20 -23 hvcurveto
          -8 hlineto
          -88 -55 29 54 73 115 85 96 hvcurveto
          57 17 -13 28 hhcurveto
          11 10 8 15 hvcurveto
          1 vlineto
          2 vlineto
          22 -31 54 -19 63 vhcurveto
          103 16 71 48 56 vvcurveto
          50 -43 40 -73 -89 -42 -49 -78 -6 0 -6 1 -7 vhcurveto
          -2 hlineto
          -87 -43 21 33 66 153 120 65 44 15 -32 -5 25 hvcurveto
          -1 331 callsubr
          hhcurveto
          1 hlineto
          1 hlineto
          3 hlineto
          21 3 5 15 26 vvcurveto
          77 9 38 3 30 vhcurveto
          178 -107 callgsubr
        </CharString>
        <CharString name="dvDDH_R">
          60 -16 -170 -58 callgsubr
          461 388 rmoveto
          25 21 -25 -15 -41 -79 -20 -85 -3 hvcurveto
          53 35 45 51 38 hhcurveto
          -337 427 -106 callsubr
          368 hlineto
          -12 -29 -7 -41 -1 -39 rrcurveto
          11 -17 -18 7 -16 hhcurveto
          -105 -235 -193 -114 -39 41 -52 49 -19 hvcurveto
          17 -7 19 -6 21 -3 rrcurveto
          -48 -57 -59 -88 -20 -39 callgsubr
          26 -64 77 -6 105 hvcurveto
          126 5 117 124 callsubr
        </CharString>
        <CharString name="dvDDH_RA">
          60 445 297 callsubr
          -337 427 -106 callsubr
          368 hlineto
          -12 -29 -7 -41 -1 -39 rrcurveto
          11 -17 -18 7 -16 hhcurveto
          -105 -235 -193 -114 -39 41 -52 49 -19 hvcurveto
          17 -7 19 -5 20 -4 rrcurveto
          -48 -57 -59 -88 -20 -39 callgsubr
          26 -64 77 -6 105 hvcurveto
          126 5 118 124 callsubr
        </CharString>
        <CharString name="dvDDH_VA">
          32 326 198 rmoveto
          52 7 19 21 48 hhcurveto
          34 17 -12 -16 -28 -57 -20 -69 -7 hvcurveto
          -218 -390 rmoveto
          -42 4 -16 18 3 30 9 70 106 29 72 -7 -3 -41 -3 -42 -2 -39 -39 -20 -40 -6 -45 4 rrcurveto
          -33 847 201 callsubr
          35 -15 39 -8 50 -1 -4 -36 -5 -41 -4 -44 -6 1 -8 1 -7 1 -84 9 -140 -49 -14 -105 -8 -67 39 -43 77 -8 49 -5 46 7 41 18 rrcurveto
          -66 7 -45 17 15 7 22 28 4 vhcurveto
          3 21 20 247 16 156 rrcurveto
          115 12 82 51 60 vvcurveto
          50 -43 40 -73 -84 -37 -48 -79 -10 vhcurveto
          -2 -19 rlineto
          -85 -44 21 33 66 153 120 65 44 15 -32 -5 25 hvcurveto
          -1 331 callsubr
          hhcurveto
          1 hlineto
          1 hlineto
          331 callsubr
          hhcurveto
          20 3 5 15 26 vvcurveto
          77 9 38 3 30 vhcurveto
          178 -107 callgsubr
        </CharString>
        <CharString name="dvDDH_YA">
          688 665 576 rmoveto
          6 hlineto
          13 hlineto
          435 hlineto
          172 callgsubr
          -49 49 -45 -76 -139 -47 -36 -109 vhcurveto
          1 89 11 37 4 34 rrcurveto
          -94 -358 -40 callsubr
          3 3 1 1 2 hvcurveto
          1 -2 rlineto
          14 111 120 64 106 hhcurveto
          15 9 -5 -13 hvcurveto
          -74 -172 -78 -31 vvcurveto
          -35 47 -40 31 107 128 43 86 92 vhcurveto
          -22 -112 -25 -109 -19 -75 callsubr
          76 134 callgsubr
        </CharString>
        <CharString name="dvDDHxA">
          60 194 21 -79 callsubr
          251 197 -40 callsubr
          11 8 7 9 4 hvcurveto
          3 8 2 10 14 vvcurveto
          96 12 39 4 35 vhcurveto
          159 -106 callgsubr
          endchar
        </CharString>
        <CharString name="dvDD_DDA">
          -56 58 23 callgsubr
          333 hlineto
          -5 -22 -3 -24 -22 vvcurveto
          -7 0 -7 1 -7 vhcurveto
          7 -15 -17 4 -14 hhcurveto
          -75 -140 -59 -48 -20 19 -32 24 -12 hvcurveto
          67 -37 127 -2 -53 vvcurveto
          -28 -38 -26 -67 -75 -35 33 40 -18 vhcurveto
          21 -9 -12 13 -20 hhcurveto
          -18 -9 -14 -19 -75 87 -66 111 12 11 1 1 11 hvcurveto
          -4 -21 -2 -22 -18 vvcurveto
          -7 0 -7 1 -7 vhcurveto
          7 -16 -17 5 -14 hhcurveto
          -76 -132 -56 -49 -20 18 -32 24 -12 hvcurveto
          67 -37 128 -2 -53 vvcurveto
          -28 -38 -26 -67 -79 -43 33 43 -21 vhcurveto
          20 -10 -11 14 -20 hhcurveto
          -18 -9 -13 -20 -71 96 -73 113 105 72 52 65 hvcurveto
          127 -227 -7 32 vvcurveto
          28 94 19 40 vhcurveto
          31 22 -16 19 hhcurveto
          20 11 16 29 69 8 33 5 24 hvcurveto
          44 22 26 34 40 127 -228 -7 32 vvcurveto
          27 102 22 39 vhcurveto
          32 21 -15 19 hhcurveto
          22 11 13 32 60 6 31 5 23 hvcurveto
          169 -107 callgsubr
        </CharString>
        <CharString name="dvDD_DDHA">
          -77 232 -182 rmoveto
          39 20 -21 -16 -28 -42 -17 -57 -7 hvcurveto
          -13 17 -8 16 16 vvcurveto
          26 27 14 34 vhcurveto
          -187 827 -73 callsubr
          343 hlineto
          -6 -21 -3 -25 141 callgsubr
          13 12 1 1 12 hvcurveto
          -9 -30 -4 -35 -24 vvcurveto
          -4 vlineto
          7 -18 -20 5 -19 hhcurveto
          -103 -196 -146 -99 -40 24 -34 32 -19 hvcurveto
          -24 41 49 -10 62 hhcurveto
          123 103 50 65 56 -63 40 -64 -70 -50 -35 -52 -20 6 -21 13 -20 hvcurveto
          -75 1 -56 24 38 vvcurveto
          67 161 111 65 vhcurveto
          46 15 -26 32 hhcurveto
          6 5 4 5 4 hvcurveto
          6 7 2 11 15 vvcurveto
          76 14 45 6 32 vhcurveto
          43 21 25 35 39 262 callsubr
          62 7 30 5 22 hvcurveto
          175 -107 callgsubr
        </CharString>
        <CharString name="dvDD_R">
          -31 -6 -169 -58 callgsubr
          90 814 15 callsubr
        </CharString>
        <CharString name="dvDD_RA">
          -31 84 645 15 callsubr
        </CharString>
        <CharString name="dvDD_VA">
          -8 274 -111 rmoveto
          -15 -28 -35 -11 -42 hhcurveto
          -46 -44 9 28 33 54 28 46 42 32 -30 -34 23 hvcurveto
          -210 748 -106 callsubr
          352 hlineto
          -6 -22 -3 -24 141 callgsubr
          15 13 1 2 13 hvcurveto
          -13 -40 -12 -51 -10 -50 rrcurveto
          30 -30 -38 18 -42 hhcurveto
          -89 -84 -64 -67 -57 67 -37 85 39 35 8 14 32 hvcurveto
          -1 -12 -1 -8 -5 vvcurveto
          -31 3 -26 16 25 17 79 74 13 vhcurveto
          11 72 29 113 10 58 rrcurveto
          44 21 26 35 40 262 callsubr
          60 6 31 5 23 hvcurveto
          132 -102 callgsubr
        </CharString>
        <CharString name="dvDD_YA">
          580 1011 576 rmoveto
          172 callgsubr
          -50 49 -44 vhcurveto
          -73 -47 -33 -99 hhcurveto
          -11 -14 0 1 -14 hvcurveto
          1 56 6 30 5 23 rrcurveto
          -376 136 callsubr
          308 136 callgsubr
          -78 -144 -68 -56 -21 21 335 callgsubr
          -24 callsubr
          -20 -9 -16 -21 115 callsubr
          hvcurveto
          137 -248 -13 32 vvcurveto
          29 105 33 40 vhcurveto
          31 22 -16 17 hhcurveto
          -6 23 27 -1 25 79 70 34 62 hhcurveto
          15 9 -5 -13 hvcurveto
          -74 -173 -79 -30 349 callgsubr
          128 43 86 92 vhcurveto
          -22 -112 -25 -109 -19 vvcurveto
          -24 25 -18 13 28 34 -92 callgsubr
          115 -102 callgsubr
        </CharString>
        <CharString name="dvDDxA">
          -31 174 21 -79 callsubr
          -90 624 -73 callsubr
          308 136 callgsubr
          -78 -144 -68 -56 -21 21 335 callgsubr
          -70 callgsubr
        </CharString>
        <CharString name="dvDH">
          -157 334 630 34 callsubr
          183 -281 rmoveto
          -34 -118 -167 -174 8 callgsubr
          181 callgsubr
          hvcurveto
          4 5 0 4 hhcurveto
          -40 -41 -32 -47 -39 vvcurveto
          -43 30 -25 50 163 194 135 74 15 -7 10 -13 vhcurveto
          endchar
        </CharString>
        <CharString name="dvDHA">
          98 334 630 34 callsubr
          191 15 -29 callgsubr
          181 callgsubr
          hvcurveto
          4 5 0 4 hhcurveto
          -40 -41 -32 -48 -38 vvcurveto
          -43 30 -25 50 104 112 48 68 81 vhcurveto
          -19 -87 -18 -72 -17 83 callgsubr
          41 14 16 19 20 -14 14 -41 hvcurveto
          endchar
        </CharString>
        <CharString name="dvDH_MA">
          523 721 -85 callsubr
          -240 467 34 callsubr
          173 15 261 callgsubr
          -65 -11 -57 -14 -38 -22 rrcurveto
          -23 -45 -99 -121 -150 8 callgsubr
          181 callgsubr
          hvcurveto
          4 5 0 4 hhcurveto
          -40 -41 -32 -47 -39 vvcurveto
          -43 30 -25 50 89 108 47 51 70 vhcurveto
          -57 20 55 -60 54 hhcurveto
          120 callsubr
          hvcurveto
          70 10 76 11 64 16 -7 -37 -91 callsubr
          118 -106 callgsubr
          endchar
        </CharString>
        <CharString name="dvDH_NA">
          100 227 -38 rmoveto
          -30 -12 -25 -32 -27 65 callsubr
          107 668 rmoveto
          13 6 -6 -13 -55 -91 -62 -66 -5 -6 1 3 -6 hvcurveto
          65 44 72 67 39 hhcurveto
          192 15 13 callgsubr
          -106 -155 -166 -115 -49 29 -39 56 hvcurveto
          210 callgsubr
          -14 -68 -15 -64 -8 -40 rrcurveto
          44 callsubr
          118 -63 callgsubr
        </CharString>
        <CharString name="dvDH_N_YA">
          466 897 576 rmoveto
          -5 -24 -4 -25 -5 -24 -39 -147 -173 -120 -142 257 callgsubr
          -227 hmoveto
          -49 callsubr
          26 -29 21 vhcurveto
          18 17 35 41 hhcurveto
          31 16 -22 -38 -98 -91 -70 -58 -45 hvcurveto
          -39 -56 -99 -70 -131 hhcurveto
          -16 -5 8 8 42 75 87 316 callgsubr
          12 20 13 11 vvcurveto
          14 -15 20 -17 -5 -6 -2 -3 -7 vhcurveto
          -11 -27 -54 -27 -56 hhcurveto
          -18 -5 10 16 11 3 12 5 13 hvcurveto
          -4 11 13 -2 12 hhcurveto
          98 97 65 76 27 hvcurveto
          3 4 0 4 hhcurveto
          -85 54 rmoveto
          13 6 -6 -13 -55 -91 -62 -66 -5 -5 1 2 -6 hvcurveto
          67 45 73 66 36 hhcurveto
          -50 -690 rmoveto
          -29 -40 -15 -33 -26 -24 5 28 19 20 27 32 30 vhcurveto
          49 -19 22 -21 -25 vvcurveto
          135 705 rmoveto
          -7 hlineto
          30 -9 -25 18 -37 hhcurveto
          -99 -162 -161 -124 -49 29 -38 56 hvcurveto
          12 hlineto
          -39 -44 -31 -58 -39 vvcurveto
          -43 36 -31 50 12 13 1 2 13 vhcurveto
          -77 -60 -61 -63 -51 vvcurveto
          -62 53 -35 67 72 61 38 60 47 -34 40 -56 20 vhcurveto
          56 45 71 50 62 41 16 8 rcurveline
          -14 13 19 -10 16 hhcurveto
          328 callgsubr
          hvcurveto
          -23 -116 -26 -116 -20 336 callsubr
          101 callgsubr
        </CharString>
        <CharString name="dvDH_R">
          -144 317 callsubr
          3 -6 hvcurveto
          68 46 70 64 39 hhcurveto
          171 -322 rmoveto
          -14 -18 -13 -13 -14 hvcurveto
          -51 -61 -92 -52 -115 hhcurveto
          -10 -4 3 7 41 75 76 55 34 hvcurveto
          19 269 callsubr
          -6 vhcurveto
          -8 -25 -59 -30 -60 hhcurveto
          -17 -6 4 16 16 249 callsubr
          115 114 90 93 47 -27 28 -47 -107 -160 -172 -130 -49 28 -33 57 5 5 0 1 5 hvcurveto
          -41 -42 -33 -48 -40 vvcurveto
          -43 30 -25 50 50 47 8 20 45 vhcurveto
          -75 -78 -100 -106 -25 vvcurveto
          -13 8 -7 12 29 100 108 80 76 vhcurveto
          45 48 106 100 38 vvcurveto
          13 -5 10 -13 vhcurveto
          endchar
        </CharString>
        <CharString name="dvDH_RA">
          100 317 callsubr
          3 -6 hvcurveto
          65 44 72 67 39 hhcurveto
          192 15 13 callgsubr
          -106 -155 -166 -115 -49 29 -39 56 hvcurveto
          210 callgsubr
          -13 -63 -14 -59 -8 -40 rrcurveto
          19 -24 -32 14 -33 hhcurveto
          -51 -60 -34 -39 -44 hvcurveto
          -61 -55 -66 -73 -24 213 callsubr
          25 61 73 50 56 vhcurveto
          35 39 45 22 35 hhcurveto
          36 27 -22 -23 23 hvcurveto
          6 -4 6 -4 8 -1 rrcurveto
          -4 5 5 -3 4 88 callgsubr
        </CharString>
        <CharString name="dvDH_VA">
          400 567 135 -72 callsubr
          -233 495 34 callsubr
          161 15 -106 callsubr
          374 hlineto
          -50 callgsubr
          -88 -68 -80 -91 -35 hvcurveto
          -51 -58 -105 -94 -129 8 callgsubr
          181 callgsubr
          hvcurveto
          4 5 0 4 hhcurveto
          -40 -41 -32 -47 -39 vvcurveto
          -43 30 -25 50 97 108 47 55 73 vhcurveto
          -1 -7 0 -8 -7 vvcurveto
          -98 callsubr
        </CharString>
        <CharString name="dvDH_YA">
          470 890 236 callsubr
          -488 hmoveto
          63 86 callgsubr
          27 hvcurveto
          -73 277 callgsubr
          79 15 rmoveto
          -2 hlineto
          31 -8 -25 17 -37 hhcurveto
          181 callgsubr
          6 6 0 1 6 hvcurveto
          135 callsubr
          118 -63 callgsubr
        </CharString>
        <CharString name="dvD_BA">
          50 470 278 callgsubr
          -308 -295 rmoveto
          -42 -17 17 33 25 14 21 21 17 hvcurveto
          340 callgsubr
          124 158 224 callgsubr
          -200 599 -106 callsubr
          396 214 callsubr
          -66 45 -46 83 48 47 22 33 35 vhcurveto
          -46 5 11 -35 22 hhcurveto
          34 -18 78 94 16 hvcurveto
          5 28 7 27 9 26 rrcurveto
          86 15 77 43 62 360 callgsubr
          -58 -50 -57 -72 -33 vhcurveto
          -18 hlineto
          121 callsubr
          159 -102 callgsubr
        </CharString>
        <CharString name="dvD_BHA">
          193 618 280 callsubr
          -465 -415 rmoveto
          -21 -35 29 23 26 37 27 68 13 hvcurveto
          -57 -17 -61 -32 vhcurveto
          -50 254 rmoveto
          -20 -10 10 16 29 30 54 29 23 17 -38 -49 11 hvcurveto
          -13 -25 -29 -9 -26 hhcurveto
          -39 622 -106 callsubr
          555 -20 callsubr
          -108 329 callsubr
          83 -42 114 hvcurveto
          8 hlineto
          -8 -31 -7 -32 -7 -32 -2 -10 rcurveline
          10 -45 -68 2 -56 hhcurveto
          -11 hlineto
          99 -8 -35 155 -86 hhcurveto
          -72 -59 -101 -65 -51 43 -25 50 34 33 9 15 30 hvcurveto
          2 -15 2 -14 1 -14 rrcurveto
          -89 -17 -80 -46 -58 vvcurveto
          -54 76 -65 52 74 30 98 91 4 vhcurveto
          1 9 10 0 10 hhcurveto
          47 58 -4 -2 34 hvcurveto
          -12 -58 -12 -62 -26 vvcurveto
          -17 6 -14 15 30 19 97 131 31 vhcurveto
          8 34 11 41 13 39 rrcurveto
          80 17 68 42 58 303 callsubr
          -62 -39 -54 -74 -27 vhcurveto
          -1 -10 -10 0 -10 hhcurveto
          -77 -46 57 callgsubr
          52 13 -37 100 callsubr
          7 6 hvcurveto
          10 7 2 14 17 vvcurveto
          96 23 48 13 31 vhcurveto
          147 -107 callgsubr
        </CharString>
        <CharString name="dvD_B_RA">
          26 431 278 callgsubr
          -367 -245 rmoveto
          25 14 21 21 17 vhcurveto
          340 callgsubr
          -42 -17 17 33 hvcurveto
          183 108 224 callgsubr
          -197 599 -46 callsubr
          393 214 callsubr
          -61 38 -44 71 -6 vhcurveto
          -56 -48 -43 -44 -20 vvcurveto
          -10 5 -7 13 26 106 111 66 99 vhcurveto
          -43 4 12 -32 21 hhcurveto
          34 -18 78 94 16 hvcurveto
          5 28 7 27 9 26 rrcurveto
          86 15 77 43 62 360 callgsubr
          -58 -50 -57 -72 -33 vhcurveto
          -18 hlineto
          121 callsubr
          151 -107 callgsubr
        </CharString>
        <CharString name="dvD_DA">
          -57 49 -45 callgsubr
          286 hlineto
          -5 0 -5 -5 -39 -2 -34 -26 vvcurveto
          -1 hlineto
          -106 -121 -64 -80 -41 44 -23 46 -12 hvcurveto
          -82 -34 -83 -62 -54 vvcurveto
          -29 25 -28 26 -11 vhcurveto
          -12 28 32 -4 42 hhcurveto
          30 31 4 7 28 hvcurveto
          -85 6 54 -71 60 hhcurveto
          20 11 7 11 hvcurveto
          29 -90 -10 131 vvcurveto
          8 vlineto
          39 17 27 23 24 vvcurveto
          23 -16 16 -28 -26 -34 -19 -43 -15 vhcurveto
          -7 -27 -29 -4 -29 hhcurveto
          -59 -35 6 15 20 31 33 67 33 hvcurveto
          74 39 65 8 23 vvcurveto
          1 vlineto
          0 vlineto
          40 -164 -7 42 vvcurveto
          37 95 36 64 vhcurveto
          18 3 -7 10 hhcurveto
          5 6 4 6 4 hvcurveto
          18 23 9 69 48 vvcurveto
          14 -3 13 -4 11 vhcurveto
          170 -102 callgsubr
        </CharString>
        <CharString name="dvD_DHA">
          124 410 45 rmoveto
          -78 -39 -132 -116 -109 hhcurveto
          -10 -5 4 8 hvcurveto
          52 111 69 29 vvcurveto
          14 -9 5 -13 -5 -6 -2 -2 -7 vhcurveto
          -7 -26 -46 -19 -48 hhcurveto
          -19 -9 6 16 8 2 10 2 9 hvcurveto
          -1 5 4 0 5 hhcurveto
          69 61 25 34 38 hvcurveto
          -43 31 65 -21 80 256 callgsubr
          -376 14 rmoveto
          17 5 -10 -13 -32 -66 -34 -69 -1 hvcurveto
          47 31 46 43 36 hhcurveto
          -147 447 -106 callsubr
          524 50 callgsubr
          -83 -108 -116 -98 -46 hvcurveto
          5 -10 -11 3 -14 hhcurveto
          -102 -109 -136 -98 -49 35 -26 53 8 8 0 1 9 hvcurveto
          -27 -31 -20 -35 -27 vvcurveto
          -38 25 -32 54 85 101 57 65 69 vhcurveto
          -5 -24 -5 -22 -5 -21 356 callsubr
          35 18 296 callgsubr
          -24 32 -47 -61 -38 -54 -74 -27 vhcurveto
          -1 -11 -11 0 -11 hhcurveto
          -76 -46 57 callgsubr
          51 13 -37 26 hhcurveto
          7 7 3 6 5 hvcurveto
          12 6 3 16 18 vvcurveto
          96 22 48 13 31 vhcurveto
          138 -107 callgsubr
        </CharString>
        <CharString name="dvD_GA">
          -21 404 280 callsubr
          -407 -345 283 callsubr
          18 806 -46 callsubr
          390 -20 callsubr
          -108 241 callgsubr
          -36 15 -28 27 -21 hvcurveto
          -6 vlineto
          292 callgsubr
          89 55 152 123 6 hvcurveto
          -8 28 33 -4 36 hhcurveto
          9 hlineto
          -7 -23 -5 -23 -6 -24 rrcurveto
          -21 -93 -17 -92 -42 vvcurveto
          -17 5 -18 15 26 21 98 129 31 vhcurveto
          8 34 11 41 13 39 rrcurveto
          80 17 68 42 58 303 callsubr
          -63 -37 -54 -74 -28 vhcurveto
          -1 -10 -10 0 -10 hhcurveto
          -77 -46 57 callgsubr
          52 13 -37 100 callsubr
          7 6 hvcurveto
          10 7 2 14 17 vvcurveto
          96 23 48 13 31 vhcurveto
          151 -102 callgsubr
        </CharString>
        <CharString name="dvD_GHA">
          105 384 45 rmoveto
          -92 -53 -138 -110 -104 hhcurveto
          -8 -4 2 6 18 22 30 50 46 hvcurveto
          31 29 31 16 20 vvcurveto
          15 -12 8 -14 vhcurveto
          -1 0 hlineto
          -58 4 -53 3 16 vvcurveto
          23 61 63 45 25 vhcurveto
          -81 2 84 -41 111 256 callgsubr
          -463 461 -106 callsubr
          464 50 callgsubr
          -85 -112 -122 -99 -44 hvcurveto
          -73 -13 -125 -116 -59 vvcurveto
          -39 47 -24 50 -7 vhcurveto
          -10 -8 -9 -8 -9 -9 rrcurveto
          -42 -41 -25 -44 -30 vvcurveto
          -40 28 -30 56 88 106 60 67 75 vhcurveto
          -5 -21 -4 -20 -5 -19 356 callsubr
          34 19 296 callgsubr
          -25 32 -46 -62 -38 -54 -74 -27 vhcurveto
          -1 -10 -11 0 -11 hhcurveto
          121 callsubr
          145 -107 callgsubr
        </CharString>
        <CharString name="dvD_G_RA">
          46 54 -161 283 callsubr
          438 350 rmoveto
          14 3 6 -6 -3 -12 -4 -18 -25 -16 -36 -10 14 33 16 23 18 3 rrcurveto
          -429 456 -106 callsubr
          415 -20 callsubr
          -108 241 callgsubr
          -26 9 -23 16 -17 hvcurveto
          -8 1 -9 -8 vvcurveto
          292 callgsubr
          90 56 158 125 4 hvcurveto
          -13 35 44 -7 47 hhcurveto
          13 hlineto
          -8 -29 -7 -31 -6 -31 -13 -61 rcurveline
          -98 -61 -153 -123 -39 vvcurveto
          -10 6 -7 13 23 109 105 62 86 vhcurveto
          -6 -33 -4 -28 -13 vvcurveto
          -18 3 -15 16 34 19 98 129 30 vhcurveto
          8 34 10 41 11 39 rrcurveto
          80 18 71 41 58 vvcurveto
          43 -25 35 -50 -62 -38 -55 -77 -28 vhcurveto
          -1 -10 -12 0 -11 hhcurveto
          -77 -59 16 40 69 120 148 67 hvcurveto
          52 13 -37 100 callsubr
          7 6 hvcurveto
          10 7 2 14 17 vvcurveto
          96 23 48 13 31 vhcurveto
          160 -107 callgsubr
        </CharString>
        <CharString name="dvD_MA">
          256 643 325 rmoveto
          -62 -23 -83 -26 -63 -21 -35 -12 -37 -12 -36 -12 rrcurveto
          -59 42 -69 25 49 vvcurveto
          50 44 23 50 vhcurveto
          74 14 -33 26 hhcurveto
          3 2 0 1 2 hvcurveto
          22 4 31 90 70 vvcurveto
          13 -1 12 -3 11 vhcurveto
          232 hlineto
          -16 -78 -16 -82 -19 -88 rrcurveto
          -296 -241 rmoveto
          -32 -41 -17 -50 -48 -27 14 20 25 59 25 76 25 vhcurveto
          19 -17 12 -19 -24 vvcurveto
          -274 558 -46 callsubr
          332 hlineto
          -2 -13 -2 -14 -1 -14 -4 -38 -4 -27 -4 -21 rrcurveto
          15 -25 -35 11 -40 hhcurveto
          -92 -71 -56 -78 -77 63 -38 59 -34 hvcurveto
          -79 -30 -59 -35 -52 vvcurveto
          -52 53 -45 94 87 65 46 61 33 -10 27 -17 22 vhcurveto
          28 9 28 9 27 9 51 18 59 18 51 15 rrcurveto
          -21 -94 -18 -79 -27 vvcurveto
          -14 31 -24 14 325 callsubr
          174 callgsubr
          119 -102 callgsubr
        </CharString>
        <CharString name="dvD_NA">
          -17 398 190 callsubr
          -330 -398 rmoveto
          -30 -7 -25 -28 -29 -35 11 23 26 35 34 46 24 vhcurveto
          12 -18 6 -22 -23 vvcurveto
          -38 196 callgsubr
          375 60 callgsubr
          -1 vlineto
          9 -20 228 callsubr
          -109 329 callsubr
          84 -42 113 hvcurveto
          2 hlineto
          -7 -31 -4 -31 -27 vvcurveto
          -12 1 -13 1 -12 vhcurveto
          13 -22 -26 8 -34 hhcurveto
          -122 -133 -93 -75 -55 67 -45 70 63 29 52 56 33 -9 34 -16 24 hvcurveto
          5 19 19 3 18 hhcurveto
          38 27 -11 -25 36 hvcurveto
          -5 4 5 -2 6 hhcurveto
          13 4 18 26 2 hvcurveto
          1 23 -1 20 4 43 -8 callsubr
          13 -95 callsubr
          -41 hvcurveto
          endchar
        </CharString>
        <CharString name="dvD_R">
          -17 12 -255 -58 callgsubr
          386 438 110 callsubr
          -353 197 callgsubr
          360 60 callgsubr
          -1 vlineto
          9 -20 228 callsubr
          -109 329 callsubr
          84 -42 113 hvcurveto
          -66 callsubr
        </CharString>
        <CharString name="dvD_RA">
          -48 398 190 callsubr
          -353 197 callgsubr
          360 60 callgsubr
          -1 vlineto
          9 -20 228 callsubr
          -109 329 callsubr
          84 -42 113 hvcurveto
          -66 callsubr
        </CharString>
        <CharString name="dvD_VA">
          -58 398 144 callsubr
          -201 599 -106 callsubr
          397 -20 callsubr
          -108 241 callgsubr
          -39 18 -29 30 -21 hvcurveto
          63 callsubr
        </CharString>
        <CharString name="dvD_YA">
          126 344 308 rmoveto
          0 vlineto
          0 vlineto
          1 vlineto
          0 vlineto
          0 vlineto
          37 -142 -9 52 vvcurveto
          32 64 27 48 vhcurveto
          18 3 -7 9 hhcurveto
          4 5 3 5 4 hvcurveto
          17 16 8 47 26 vvcurveto
          14 -2 13 -4 11 vhcurveto
          181 hlineto
          -12 -70 -14 -68 -14 -72 rrcurveto
          -92 -53 -120 -120 -152 hhcurveto
          -8 -7 3 7 16 26 28 37 28 hvcurveto
          43 33 59 22 2 17 rrcurveto
          -309 337 -46 callsubr
          280 hlineto
          -5 0 -5 -5 vvcurveto
          -46 -3 vlineto
          -85 -93 -55 -74 -47 43 -30 44 -13 hvcurveto
          -60 -34 -58 -57 -44 vvcurveto
          -40 41 -32 48 111 107 55 66 75 vhcurveto
          -17 -79 -14 -67 -15 vvcurveto
          -17 35 -25 12 22 35 183 131 29 vhcurveto
          20 90 28 126 5 318 callsubr
        </CharString>
        <CharString name="dvE">
          50 50 23 callgsubr
          123 hlineto
          -7 -127 -93 -238 -117 vvcurveto
          -84 50 -40 109 102 128 38 51 16 -10 10 -19 vhcurveto
          -53 -33 -41 -128 hhcurveto
          -49 -13 13 44 105 97 254 6 116 hvcurveto
          190 hlineto
          18 -24 25 -34 -64 vvcurveto
          -81 -54 -62 -87 -24 -8 -9 -13 -17 17 -22 42 108 83 82 119 51 -14 43 -21 31 vhcurveto
          127 -107 callgsubr
        </CharString>
        <CharString name="dvEcandra">
          54 478 707 rmoveto
          143 callgsubr
          hvcurveto
          -14 callgsubr
          235 callgsubr
          vhcurveto
          -424 -62 -73 callsubr
          123 hlineto
          -7 -127 -93 -238 -117 vvcurveto
          -84 50 -40 109 102 128 38 51 16 -10 10 -19 vhcurveto
          -53 -33 -41 -128 hhcurveto
          -49 -13 13 44 105 97 254 6 116 hvcurveto
          190 hlineto
          18 -24 25 -34 -64 vvcurveto
          -81 -54 -62 -87 -24 -8 -9 -13 -17 17 -22 42 108 83 82 119 51 -14 43 -21 31 vhcurveto
          127 -107 callgsubr
        </CharString>
        <CharString name="dvEight">
          -42 250 78 rmoveto
          104 111 55 49 15 -9 6 -13 hvcurveto
          -25 -47 -50 -116 hhcurveto
          -59 -42 18 52 hvcurveto
          160 224 160 29 vvcurveto
          15 -29 22 -18 -41 -217 -218 -170 -100 75 -43 102 vhcurveto
          endchar
        </CharString>
        <CharString name="dvEyelash">
          195 296 rmoveto
          -22 -31 -41 -7 -43 hhcurveto
          -65 -39 14 55 hvcurveto
          8 2 5 10 vvcurveto
          14 -33 25 -18 -16 -6 -13 -20 -103 70 -53 106 57 55 19 29 37 vhcurveto
          endchar
        </CharString>
</ttFont>
